<?xml version="1.0" encoding="utf-8"?>
<!-- Generator: Adobe Illustrator 16.0.3, SVG Export Plug-In . SVG Version: 6.00 Build 0)  -->
<!DOCTYPE svg PUBLIC "-//W3C//DTD SVG 1.1//EN" "http://www.w3.org/Graphics/SVG/1.1/DTD/svg11.dtd">
<svg version="1.1" id="Layer_1" xmlns="http://www.w3.org/2000/svg" xmlns:xlink="http://www.w3.org/1999/xlink" x="0px" y="0px"
	 width="1400px" height="900px" viewBox="0 0 1400 900" enable-background="new 0 0 1400 900" xml:space="preserve">
<path opacity="0.1" fill="#4875D5" enable-background="new    " d="M1259.41,741.639c-4.469,11-9.963,21.553-16.41,31.521
	c-3.027,4.754-6.348,9.316-9.939,13.66l-0.11,0.129H121.6l0.2-0.141c1-0.779,6.87-5.529,16-13.658c6.55-5.842,14.77-13.42,24-22.541
	c75.49-74.25,220.5-250,99.73-411c-112.27-149.67,8.61-176.84,88.35-180c30.64-1.189,61.204,3.807,89.87,14.69
	c36.83,14,104.16,35.47,191.88,45.3c2.88,0.327,5.787,0.64,8.72,0.94c46.442,4.725,93.197,5.571,139.78,2.53l0,0
	c1.37-0.07,2.75-0.17,4.14-0.271c46.082-3.244,91.813-10.322,136.721-21.16c2.91-0.71,5.779-1.38,8.64-2
	c149.63-34.62,287.57,83.37,253.09,216.72c-12.76,49.31-9.52,101.89,33,144.409C1285.27,630.209,1276.8,698.57,1259.41,741.639z"/>
<ellipse transform="matrix(-0.8728 -0.488 0.488 -0.8728 1721.374 1174.1298)" fill="#3F3D56" cx="1013.664" cy="362.788" rx="10.73" ry="14.05"/>
<ellipse transform="matrix(-0.8728 -0.488 0.488 -0.8728 1744.3931 1150.1279)" fill="#3F3D56" cx="1022.04" cy="347.798" rx="10.73" ry="14.05"/>
<ellipse transform="matrix(-0.8728 -0.488 0.488 -0.8728 1767.3906 1126.1715)" fill="#3F3D56" cx="1030.424" cy="332.813" rx="10.73" ry="14.05"/>
<ellipse transform="matrix(-0.8728 -0.488 0.488 -0.8728 1790.3975 1102.1676)" fill="#3F3D56" cx="1038.8" cy="317.813" rx="10.73" ry="14.05"/>
<ellipse transform="matrix(-0.8728 -0.488 0.488 -0.8728 1813.4025 1078.1788)" fill="#3F3D56" cx="1047.17" cy="302.833" rx="10.73" ry="14.05"/>
<ellipse transform="matrix(-0.8728 -0.488 0.488 -0.8728 1836.4226 1054.1976)" fill="#3F3D56" cx="1055.556" cy="287.843" rx="10.73" ry="14.05"/>
<ellipse transform="matrix(-0.8728 -0.488 0.488 -0.8728 1859.4386 1030.2251)" fill="#3F3D56" cx="1063.941" cy="272.858" rx="10.73" ry="14.05"/>
<path fill="#4875D5" d="M1156.3,189.87c2.189-0.915,4.314-1.978,6.36-3.18l-22.35-17.81l26.489,15.08
	c11.436-8.345,18.933-21.028,20.73-35.07l-46.07-1.44l46.47-5.79c-0.218-28.392-23.41-51.232-51.803-51.014
	c-28.393,0.218-51.232,23.411-51.014,51.803c0.021,2.677,0.25,5.349,0.687,7.991c-3.411,1.422-6.659,3.205-9.689,5.32l22.689,34.46
	l-27.67-30.479c-12.896,11.645-19.039,29.016-16.33,46.18c-26.204,10.918-38.595,41.012-27.677,67.215s41.011,38.595,67.215,27.677
	c21.892-9.122,34.701-32.037,31.002-55.462c21.9-9.121,34.712-32.048,31-55.48H1156.3z"/>
<path opacity="0.1" enable-background="new    " d="M1060.66,172.81c-5.62,10.064-7.685,21.729-5.86,33.11
	c-26.204,10.918-38.595,41.012-27.677,67.215s41.011,38.595,67.215,27.677c21.892-9.122,34.701-32.037,31.002-55.462
	C1135.57,241.08,1063.48,167.81,1060.66,172.81z"/>
<path fill="#3F3D56" d="M1127.39,722.77h12.11c13.807,0,25,11.193,25,25v37.109l0,0h-62.11l0,0V747.77
	C1102.39,733.963,1113.583,722.77,1127.39,722.77z"/>
<path opacity="0.1" enable-background="new    " d="M1127.39,722.77h12.11c13.807,0,25,11.193,25,25v37.109l0,0h-62.11l0,0V747.77
	C1102.39,733.963,1113.583,722.77,1127.39,722.77z"/>
<circle fill="#3F3D56" cx="1130.97" cy="731.47" r="4.97"/>
<circle fill="#3F3D56" cx="1130.97" cy="725.26" r="4.971"/>
<circle fill="#3F3D56" cx="1130.97" cy="719.04" r="4.97"/>
<circle fill="#3F3D56" cx="1130.97" cy="712.829" r="4.97"/>
<circle fill="#3F3D56" cx="1130.97" cy="706.62" r="4.97"/>
<circle fill="#3F3D56" cx="1130.97" cy="700.409" r="4.97"/>
<circle fill="#3F3D56" cx="1130.97" cy="694.2" r="4.97"/>
<circle fill="#3F3D56" cx="1138.42" cy="696.68" r="4.971"/>
<circle fill="#3F3D56" cx="1143.39" cy="694.2" r="4.97"/>
<circle fill="#3F3D56" cx="1148.36" cy="691.71" r="4.97"/>
<circle fill="#3F3D56" cx="1130.97" cy="687.989" r="4.97"/>
<circle fill="#3F3D56" cx="1130.97" cy="681.78" r="4.97"/>
<circle fill="#3F3D56" cx="1130.97" cy="675.56" r="4.97"/>
<circle fill="#3F3D56" cx="1130.97" cy="669.35" r="4.971"/>
<path fill="#4875D5" d="M1151.57,653.33c-1.233,0.18-2.474,0.309-3.721,0.389c1.153-1.006,2.224-2.102,3.2-3.279
	c-0.688-2.088-1.7-4.055-3-5.83c-1.232,0.693-2.594,1.125-4,1.27c-1.229,0.18-2.47,0.311-3.71,0.391c1.669-1.584,3.255-3.252,4.75-5
	c-8.635-7.826-21.979-7.17-29.804,1.465c-7.826,8.633-7.171,21.977,1.464,29.803s21.979,7.17,29.805-1.463
	c3.522-3.889,5.472-8.949,5.465-14.195c0.001-1.217-0.106-2.432-0.319-3.629L1151.57,653.33z"/>
<path fill="#4875D5" d="M1168.17,678.02c-1.269,0.779-2.698,1.258-4.18,1.4c-1.23,0.18-2.471,0.311-3.71,0.391
	c1.317-1.184,2.548-2.459,3.68-3.82c-1.038-0.273-2.106-0.414-3.18-0.42c-6.87-0.014-12.45,5.545-12.464,12.416
	c-0.012,6.871,5.547,12.451,12.418,12.463c6.87,0.014,12.449-5.547,12.463-12.416C1173.204,684.086,1171.339,680.371,1168.17,678.02
	L1168.17,678.02z"/>
<circle fill="#3F3D56" cx="1123.51" cy="696.68" r="4.971"/>
<circle fill="#3F3D56" cx="1118.54" cy="694.2" r="4.97"/>
<circle fill="#3F3D56" cx="1113.58" cy="691.71" r="4.97"/>
<path fill="#4875D5" d="M1093.8,678.02c1.269,0.779,2.698,1.258,4.181,1.4c1.229,0.18,2.47,0.311,3.709,0.391
	c-1.317-1.184-2.547-2.459-3.68-3.82c1.039-0.273,2.107-0.414,3.18-0.42c6.871-0.014,12.451,5.545,12.464,12.416
	s-5.547,12.451-12.417,12.463c-6.871,0.014-12.45-5.547-12.463-12.416C1088.766,684.086,1090.631,680.371,1093.8,678.02
	L1093.8,678.02z"/>
<path fill="#3F3D56" d="M1127.39,726.5h12.11c13.807,0,25,11.193,25,25v32.869c0,2.342-1.898,4.24-4.24,4.24h-53.63
	c-2.342,0-4.24-1.898-4.24-4.24V751.5C1102.39,737.693,1113.583,726.5,1127.39,726.5z"/>
<g opacity="0.1">
	<path d="M1151.95,654.689c-0.501,0.543-1.04,1.051-1.61,1.52c0.57,0,1.141-0.09,1.7-0.15
		C1152.02,655.6,1152,655.139,1151.95,654.689z"/>
	<path d="M1142.89,648.75c1.24-0.08,2.48-0.211,3.71-0.391c1.113-0.137,2.201-0.432,3.23-0.879c-0.508-1-1.09-1.959-1.74-2.871
		c-0.622,0.379-1.296,0.666-2,0.85C1145.11,646.637,1144.04,647.738,1142.89,648.75z"/>
	<path d="M1112.33,659.42c-0.023-11.643,9.396-21.1,21.039-21.121c4.064-0.008,8.045,1.158,11.461,3.361l0.32-0.34
		c-8.706-7.748-22.043-6.969-29.79,1.736c-7.746,8.705-6.969,22.043,1.737,29.789c0.077,0.068,0.154,0.137,0.232,0.203
		C1114.096,669.244,1112.323,664.412,1112.33,659.42z"/>
</g>
<g opacity="0.1">
	<path d="M1160.28,682.299c1.239-0.09,2.479-0.219,3.71-0.398c1.48-0.141,2.91-0.615,4.18-1.391c2.844,2.088,4.662,5.289,5,8.799
		c0.049-0.438,0.072-0.879,0.07-1.318c0.018-3.939-1.839-7.652-5-10c-1.27,0.777-2.699,1.256-4.181,1.398l-1,0.121
		C1162.209,680.512,1161.279,681.445,1160.28,682.299z"/>
	<path d="M1160.8,678.049c0.42,0,0.83,0,1.24,0.09c0.649-0.689,1.29-1.43,1.94-2.148c-1.039-0.273-2.107-0.414-3.181-0.42
		c-6.859,0-12.42,5.561-12.42,12.42l0,0c0,0.42,0,0.84,0.06,1.24C1149.081,682.883,1154.422,678.053,1160.8,678.049z"/>
</g>
<g opacity="0.1">
	<path d="M1101.65,682.299c-1.24-0.09-2.48-0.219-3.711-0.398c-1.48-0.141-2.91-0.615-4.18-1.391c-2.844,2.088-4.662,5.289-5,8.799
		c-0.049-0.438-0.072-0.879-0.07-1.318c-0.018-3.939,1.839-7.652,5-10c1.27,0.777,2.699,1.256,4.181,1.398l1,0.121
		C1099.724,680.51,1100.652,681.443,1101.65,682.299z"/>
	<path d="M1101.15,678.049c-0.42,0-0.83,0-1.24,0.09c-0.65-0.689-1.29-1.43-1.94-2.148c1.038-0.273,2.106-0.414,3.181-0.42
		c6.859,0,12.42,5.561,12.42,12.42c0,0.42,0,0.84-0.061,1.24C1112.868,682.883,1107.528,678.053,1101.15,678.049z"/>
</g>
<path fill="#3F3D56" d="M173,630h95.54c13.807,0,25,11.193,25,25v120.49l0,0H148l0,0V655C148,641.193,159.193,630,173,630z"/>
<path opacity="0.1" enable-background="new    " d="M173,630h95.54c13.807,0,25,11.193,25,25v120.49l0,0H148l0,0V655
	C148,641.193,159.193,630,173,630z"/>
<circle fill="#3F3D56" cx="214.97" cy="650.329" r="11.64"/>
<circle fill="#3F3D56" cx="214.97" cy="635.779" r="11.641"/>
<circle fill="#3F3D56" cx="214.97" cy="621.22" r="11.64"/>
<circle fill="#3F3D56" cx="214.97" cy="606.669" r="11.64"/>
<circle fill="#3F3D56" cx="214.97" cy="592.109" r="11.641"/>
<circle fill="#3F3D56" cx="214.97" cy="577.56" r="11.64"/>
<circle fill="#3F3D56" cx="214.97" cy="563.01" r="11.641"/>
<circle fill="#3F3D56" cx="232.43" cy="568.829" r="11.64"/>
<circle fill="#3F3D56" cx="244.07" cy="563.01" r="11.641"/>
<circle fill="#3F3D56" cx="255.72" cy="557.18" r="11.641"/>
<circle fill="#3F3D56" cx="214.97" cy="548.449" r="11.641"/>
<circle fill="#3F3D56" cx="214.97" cy="533.899" r="11.64"/>
<circle fill="#3F3D56" cx="214.97" cy="519.34" r="11.641"/>
<circle fill="#3F3D56" cx="214.97" cy="504.79" r="11.64"/>
<path fill="#4875D5" d="M263.24,467.24c-2.887,0.42-5.787,0.727-8.7,0.92c2.696-2.361,5.201-4.934,7.49-7.691
	c-1.588-4.887-3.929-9.494-6.94-13.66c-2.864,1.637-6.039,2.66-9.32,3c-2.88,0.422-5.79,0.73-8.7,0.932
	c3.83-3.102,7.38-7.791,11.13-11.601c-20.274-18.413-51.637-16.903-70.05,3.371c-18.413,20.275-16.904,51.636,3.37,70.05
	c20.274,18.412,51.637,16.902,70.05-3.371c10.322-11.365,14.798-26.871,12.12-41.99L263.24,467.24z"/>
<path fill="#4875D5" d="M302.14,525.1c-2.74,1.93-6.38,2.76-9.79,3.26c-2.89,0.43-5.79,0.73-8.7,0.93c3-2.41,5.76-5.77,8.62-8.939
	c-15.55-4.127-31.5,5.133-35.627,20.684c-4.126,15.549,5.134,31.5,20.684,35.627s31.5-5.133,35.627-20.684
	C316.015,544.441,311.729,532.205,302.14,525.1z"/>
<circle fill="#3F3D56" cx="197.5" cy="568.829" r="11.64"/>
<circle fill="#3F3D56" cx="185.86" cy="563.01" r="11.641"/>
<circle fill="#3F3D56" cx="174.22" cy="557.18" r="11.641"/>
<path fill="#4875D5" d="M127.8,525.1c2.74,1.93,6.38,2.76,9.8,3.26c2.88,0.43,5.78,0.73,8.69,0.93c-3-2.41-5.76-5.77-8.62-8.939
	c15.55-4.127,31.501,5.133,35.627,20.684c4.126,15.549-5.134,31.5-20.684,35.627s-31.5-5.133-35.627-20.684
	C113.925,544.441,118.21,532.205,127.8,525.1z"/>
<path fill="#3F3D56" d="M173,638.689h95.54c13.807,0,25,11.193,25,25V780c0,2.342-1.898,4.24-4.24,4.24H152.26
	c-2.341,0.01-4.249-1.879-4.26-4.221c0-0.006,0-0.014,0-0.02V663.689C148,649.883,159.193,638.689,173,638.689z"/>
<g opacity="0.1">
	<path d="M264.12,470.42c-1.17,1.271-2.427,2.461-3.76,3.561c1.33-0.092,2.67-0.211,4-0.342
		C264.31,472.559,264.24,471.48,264.12,470.42z"/>
	<path d="M242.9,456.52c2.91-0.199,5.81-0.5,8.69-0.93c2.609-0.305,5.161-0.979,7.58-2c-1.183-2.35-2.547-4.603-4.08-6.74
		c-1.446,0.893-3.016,1.568-4.66,2C248.123,451.598,245.605,454.162,242.9,456.52z"/>
	<path d="M171.3,481.51c-0.054-27.277,22.015-49.434,49.292-49.487c9.525-0.019,18.852,2.717,26.858,7.878
		c0.25-0.261,0.5-0.551,0.75-0.801c-20.261-18.305-51.524-16.719-69.829,3.542c-18.305,20.261-16.719,51.525,3.542,69.83
		c0.367,0.332,0.74,0.658,1.117,0.979C175.446,504.537,171.288,493.213,171.3,481.51z"/>
</g>
<g opacity="0.1">
	<path d="M283.65,535.109c2.907-0.188,5.807-0.496,8.7-0.93c3.41-0.49,7-1.32,9.79-3.26c6.636,4.902,10.875,12.396,11.66,20.609
		c0.1-1,0.16-2,0.16-3.07c0.006-9.217-4.371-17.889-11.79-23.359c-2.74,1.93-6.38,2.76-9.79,3.26c-0.77,0.109-1.53,0.199-2.29,0.291
		C288.117,530.969,285.964,533.129,283.65,535.109z"/>
	<path d="M284.8,525.17c0.977,0.016,1.951,0.082,2.92,0.199c1.521-1.619,3-3.34,4.53-5c-15.464-4.17-31.38,4.986-35.55,20.449
		c-0.673,2.498-1.01,5.074-1,7.662c0,1,0.05,2,0.14,2.908C257.325,536.508,269.845,525.172,284.8,525.17z"/>
</g>
<g opacity="0.1">
	<path d="M146.28,535.109c-2.906-0.188-5.803-0.496-8.69-0.93c-3.42-0.49-7.06-1.32-9.8-3.26c-6.625,4.908-10.853,12.4-11.63,20.609
		c-0.1-1-0.16-2-0.16-3.07c-0.003-9.219,4.377-17.891,11.8-23.359c2.74,1.93,6.38,2.76,9.8,3.26c0.76,0.109,1.52,0.199,2.28,0.291
		C141.842,530.965,143.982,533.125,146.28,535.109z"/>
	<path d="M145.11,525.17c-0.976,0.016-1.951,0.082-2.92,0.199c-1.52-1.619-3-3.34-4.53-5c15.464-4.17,31.38,4.986,35.55,20.449
		c0.674,2.498,1.01,5.074,1,7.662c0,1,0,2-0.14,2.908C172.585,536.508,160.065,525.172,145.11,525.17z"/>
</g>
<polygon fill="#D0D2D5" points="795.98,787.139 600.98,784.639 601.55,779.639 610.98,697.139 782.23,697.139 794.83,779.639 
	795.79,785.889 "/>
<polygon opacity="0.1" enable-background="new    " points="795.79,785.889 698.48,785.889 600.98,784.639 601.55,779.639 
	794.83,779.639 "/>
<rect x="568.48" y="780.889" fill="#D0D2D5" width="258.75" height="6.25"/>
<path fill="#444053" d="M1074.1,201.62c0.045-8.987-7.202-16.311-16.189-16.36H335.3c-8.991,0.044-16.244,7.369-16.2,16.36v0
	v437.999h755V201.62z"/>
<path fill="#D0D2D5" d="M319.1,635.26v51.311c-0.028,8.941,7.198,16.211,16.14,16.238c0.02,0,0.04,0,0.06,0h722.61
	c8.941,0,16.189-7.248,16.189-16.189l0,0V635.26H319.1z"/>
<rect x="350.35" y="212.76" opacity="0.1" fill="#4875D5" enable-background="new    " width="696.25" height="393.75"/>
<path fill="#4875D5" d="M700.35,683.299c5.181,0.004,10.075-2.369,13.28-6.439l0,0c0.478-0.615,0.915-1.26,1.311-1.93l-9.261-1.52
	l10,0.07c1.949-4.223,2.064-9.061,0.32-13.371l-13.43,7l12.39-9.1c-4.535-8.139-14.81-11.059-22.948-6.523
	s-11.06,14.809-6.523,22.947c0.465,0.836,1.001,1.631,1.602,2.375l0,0C690.278,680.895,695.168,683.287,700.35,683.299z"/>
<polygon opacity="0.1" enable-background="new    " points="717.23,702.76 795.02,780.889 783.09,702.76 "/>
<rect x="369.73" y="266.38" fill="#FFFFFF" width="537.5" height="285.409"/>
<rect x="399.71" y="340.78" opacity="0.1" fill="#4875D5" enable-background="new    " width="149.92" height="7.77"/>
<rect x="413.04" y="299.69" opacity="0.1" fill="#4875D5" enable-background="new    " width="14.44" height="41.09"/>
<rect x="434.14" y="299.69" opacity="0.1" fill="#4875D5" enable-background="new    " width="14.44" height="41.09"/>
<rect x="455.24" y="299.69" opacity="0.1" fill="#4875D5" enable-background="new    " width="14.44" height="41.09"/>
<rect x="476.34" y="299.69" opacity="0.1" fill="#4875D5" enable-background="new    " width="14.44" height="41.09"/>
<rect x="497.44" y="299.69" opacity="0.1" fill="#4875D5" enable-background="new    " width="14.44" height="41.09"/>
<rect x="518.54" y="299.69" opacity="0.1" fill="#4875D5" enable-background="new    " width="14.44" height="41.09"/>
<rect x="413.04" y="307.47" opacity="0.1" fill="#4875D5" enable-background="new    " width="14.44" height="4.44"/>
<rect x="434.14" y="307.47" opacity="0.1" fill="#4875D5" enable-background="new    " width="14.44" height="4.44"/>
<rect x="455.24" y="307.47" opacity="0.1" fill="#4875D5" enable-background="new    " width="14.44" height="4.44"/>
<rect x="476.34" y="307.47" opacity="0.1" fill="#4875D5" enable-background="new    " width="14.44" height="4.44"/>
<rect x="497.44" y="307.47" opacity="0.1" fill="#4875D5" enable-background="new    " width="14.44" height="4.44"/>
<rect x="518.54" y="307.47" opacity="0.1" fill="#4875D5" enable-background="new    " width="14.44" height="4.44"/>
<rect x="413.04" y="327.46" opacity="0.1" fill="#4875D5" enable-background="new    " width="14.44" height="4.44"/>
<rect x="434.14" y="327.46" opacity="0.1" fill="#4875D5" enable-background="new    " width="14.44" height="4.44"/>
<rect x="455.24" y="327.46" opacity="0.1" fill="#4875D5" enable-background="new    " width="14.44" height="4.44"/>
<rect x="476.34" y="327.46" opacity="0.1" fill="#4875D5" enable-background="new    " width="14.44" height="4.44"/>
<rect x="497.44" y="327.46" opacity="0.1" fill="#4875D5" enable-background="new    " width="14.44" height="4.44"/>
<rect x="518.54" y="327.46" opacity="0.1" fill="#4875D5" enable-background="new    " width="14.44" height="4.44"/>
<rect x="728.43" y="360.77" opacity="0.1" fill="#4875D5" enable-background="new    " width="149.92" height="7.77"/>
<rect x="741.76" y="319.68" opacity="0.1" fill="#4875D5" enable-background="new    " width="14.44" height="41.09"/>
<rect x="762.86" y="319.68" opacity="0.1" fill="#4875D5" enable-background="new    " width="14.439" height="41.09"/>
<rect x="783.96" y="319.68" opacity="0.1" fill="#4875D5" enable-background="new    " width="14.44" height="41.09"/>
<rect x="805.06" y="319.68" opacity="0.1" fill="#4875D5" enable-background="new    " width="14.44" height="41.09"/>
<rect x="826.16" y="319.68" opacity="0.1" fill="#4875D5" enable-background="new    " width="14.439" height="41.09"/>
<rect x="847.26" y="319.68" opacity="0.1" fill="#4875D5" enable-background="new    " width="14.44" height="41.09"/>
<rect x="741.76" y="327.46" opacity="0.1" fill="#4875D5" enable-background="new    " width="14.44" height="4.44"/>
<rect x="762.86" y="327.46" opacity="0.1" fill="#4875D5" enable-background="new    " width="14.439" height="4.44"/>
<rect x="783.96" y="327.46" opacity="0.1" fill="#4875D5" enable-background="new    " width="14.44" height="4.44"/>
<rect x="805.06" y="327.46" opacity="0.1" fill="#4875D5" enable-background="new    " width="14.44" height="4.44"/>
<rect x="826.16" y="327.46" opacity="0.1" fill="#4875D5" enable-background="new    " width="14.439" height="4.44"/>
<rect x="847.26" y="327.46" opacity="0.1" fill="#4875D5" enable-background="new    " width="14.44" height="4.44"/>
<rect x="741.76" y="347.45" opacity="0.1" fill="#4875D5" enable-background="new    " width="14.44" height="4.44"/>
<rect x="762.86" y="347.45" opacity="0.1" fill="#4875D5" enable-background="new    " width="14.439" height="4.44"/>
<rect x="783.96" y="347.45" opacity="0.1" fill="#4875D5" enable-background="new    " width="14.44" height="4.44"/>
<rect x="805.06" y="347.45" opacity="0.1" fill="#4875D5" enable-background="new    " width="14.44" height="4.44"/>
<rect x="826.16" y="347.45" opacity="0.1" fill="#4875D5" enable-background="new    " width="14.439" height="4.44"/>
<rect x="847.26" y="347.45" opacity="0.1" fill="#4875D5" enable-background="new    " width="14.44" height="4.44"/>
<rect x="728.43" y="417.41" opacity="0.1" fill="#4875D5" enable-background="new    " width="149.92" height="7.77"/>
<rect x="741.76" y="376.32" opacity="0.1" fill="#4875D5" enable-background="new    " width="14.44" height="41.09"/>
<rect x="762.86" y="376.32" opacity="0.1" fill="#4875D5" enable-background="new    " width="14.439" height="41.09"/>
<rect x="783.96" y="376.32" opacity="0.1" fill="#4875D5" enable-background="new    " width="14.44" height="41.09"/>
<rect x="805.06" y="376.32" opacity="0.1" fill="#4875D5" enable-background="new    " width="14.44" height="41.09"/>
<rect x="826.16" y="376.32" opacity="0.1" fill="#4875D5" enable-background="new    " width="14.439" height="41.09"/>
<rect x="847.26" y="376.32" opacity="0.1" fill="#4875D5" enable-background="new    " width="14.44" height="41.09"/>
<rect x="741.76" y="384.09" opacity="0.1" fill="#4875D5" enable-background="new    " width="14.44" height="4.44"/>
<rect x="762.86" y="384.09" opacity="0.1" fill="#4875D5" enable-background="new    " width="14.439" height="4.44"/>
<rect x="783.96" y="384.09" opacity="0.1" fill="#4875D5" enable-background="new    " width="14.44" height="4.44"/>
<rect x="805.06" y="384.09" opacity="0.1" fill="#4875D5" enable-background="new    " width="14.44" height="4.44"/>
<rect x="826.16" y="384.09" opacity="0.1" fill="#4875D5" enable-background="new    " width="14.439" height="4.44"/>
<rect x="847.26" y="384.09" opacity="0.1" fill="#4875D5" enable-background="new    " width="14.44" height="4.44"/>
<rect x="741.76" y="404.08" opacity="0.1" fill="#4875D5" enable-background="new    " width="14.44" height="4.439"/>
<rect x="762.86" y="404.08" opacity="0.1" fill="#4875D5" enable-background="new    " width="14.439" height="4.439"/>
<rect x="783.96" y="404.08" opacity="0.1" fill="#4875D5" enable-background="new    " width="14.44" height="4.439"/>
<rect x="805.06" y="404.08" opacity="0.1" fill="#4875D5" enable-background="new    " width="14.44" height="4.439"/>
<rect x="826.16" y="404.08" opacity="0.1" fill="#4875D5" enable-background="new    " width="14.439" height="4.439"/>
<rect x="847.26" y="404.08" opacity="0.1" fill="#4875D5" enable-background="new    " width="14.44" height="4.439"/>
<path opacity="0.1" fill="#4875D5" enable-background="new    " d="M491.66,428.66c-1.122-1.428-2.145-2.932-3.06-4.5l21.59-3.54
	l-23.39,0.189c-4.524-9.848-4.796-21.125-0.75-31.18l31.32,16.25l-28.88-21.23c10.843-18.834,34.9-25.312,53.735-14.47
	c18.834,10.843,25.312,34.901,14.47,53.735c-0.952,1.654-2.023,3.236-3.205,4.735c1.756,2.217,3.269,4.617,4.51,7.159l-28,14.55
	l29.87-10c4.267,12.593,1.882,26.49-6.34,36.939c13.438,17.08,10.486,41.82-6.593,55.258c-17.08,13.439-41.819,10.486-55.257-6.592
	c-11.233-14.277-11.233-34.389,0-48.666c-11.226-14.273-11.226-34.375,0-48.648L491.66,428.66z"/>
<path opacity="0.1" fill="#4875D5" enable-background="new    " d="M561.93,452.99c0.012,8.822-2.955,17.393-8.42,24.318
	c13.438,17.08,10.487,41.82-6.593,55.258c-17.079,13.439-41.818,10.488-55.257-6.592c-11.233-14.277-11.233-34.389,0-48.666
	C486.39,470.619,561.93,448.571,561.93,452.99z"/>
<path opacity="0.2" fill="#3F3D56" enable-background="new    " d="M528.9,551.459c0.07,0.111,0.12,0.221,0.19,0.33h-13.36
	c0.07-0.109,0.12-0.219,0.19-0.33c-1.147-2.002-1.741-4.271-1.72-6.58c-0.002-1.578,0.272-3.145,0.81-4.629l0,0
	c0.74,0.119,1.66,0.25,2.72,0.359c3.099,0.311,6.221,0.311,9.32,0c0.88-0.09,1.81-0.221,2.75-0.359c0.001,0.023,0.001,0.047,0,0.07
	c0.527,1.461,0.794,3.004,0.79,4.559C530.62,547.184,530.037,549.455,528.9,551.459z"/>
<path opacity="0.1" fill="#4875D5" enable-background="new    " d="M480.89,551.809h-74.3c-0.17-0.43-0.32-0.879-0.45-1.318
	c-2.62-8.426-2.313-17.49,0.87-25.721c-14.945-10.322-20.88-29.537-14.36-46.49c-1.494-1.037-2.917-2.172-4.26-3.4l19.58-9.76
	l-22.25,7.061c-7.237-8.074-10.825-18.775-9.92-29.58l34.72,6.27l-33.86-11.759c4.81-21.194,25.89-34.476,47.083-29.666
	c21.193,4.811,34.475,25.89,29.665,47.083c-0.422,1.861-0.98,3.691-1.668,5.473c2.326,1.611,4.474,3.465,6.41,5.529l-22.48,22.18
	l25.59-18.4c7.792,10.781,9.612,24.766,4.84,37.182C480.658,516.553,486.709,535.096,480.89,551.809z"/>
<path opacity="0.1" fill="#4875D5" enable-background="new    " d="M480.89,551.809h-74.3c-0.17-0.43-0.32-0.879-0.45-1.318
	c-2.62-8.426-2.313-17.49,0.87-25.721c-7-4.85,58.66-48.211,60-44c2.609,8.432,2.303,17.494-0.87,25.73
	C480.679,516.572,486.712,535.107,480.89,551.809z"/>
<path opacity="0.1" fill="#4875D5" enable-background="new    " d="M817.34,498.5c-4.514,7.582-11.455,13.416-19.7,16.559
	c0.353,2.811,0.409,5.648,0.17,8.471l-31.52-1.891l30.78,6.73c-2.035,9.404-7.438,17.742-15.19,23.439H738.98v1.111H695.31
	c0.091-0.381,0.181-0.75,0.28-1.111c3.256-12.234,12.181-22.168,24-26.709c-2.296-18.02,8.032-35.271,25-41.76
	c-0.234-1.801-0.345-3.615-0.33-5.43l20.351,8l-20.12-11.82c1.161-10.766,6.697-20.578,15.31-27.14l18.54,30l-13.89-33
	c18.987-10.561,42.941-3.729,53.502,15.257c6.829,12.279,6.592,27.266-0.622,39.322L817.34,498.5z"/>
<path opacity="0.1" fill="#4875D5" enable-background="new    " d="M792.37,540.26c-2.679,4.521-6.247,8.449-10.49,11.549H738.98
	v1.111H695.31c0.091-0.381,0.181-0.75,0.28-1.111c3.256-12.234,12.181-22.168,24-26.709c-0.37-2.869,8.11-2.48,19.4-0.58
	C761.06,528.219,793.87,537.75,792.37,540.26z"/>
<path fill="#EFB7B9" d="M606.45,435.27c0,0,5.35,29.17-6.65,38.68s10.141,66.58,46.92,59.93C683.5,527.23,698.4,479.34,698.4,479.34
	s-36.78-7.6-23.15-46.28L606.45,435.27z"/>
<path opacity="0.1" enable-background="new    " d="M606.45,435.27c0,0,5.35,29.17-6.65,38.68s10.141,66.58,46.92,59.93
	C683.5,527.23,698.4,479.34,698.4,479.34s-36.78-7.6-23.15-46.28L606.45,435.27z"/>
<circle fill="#EFB7B9" cx="638.95" cy="395.8" r="60.87"/>
<path fill="#4875D5" d="M738.98,511.52V552.9h-201v-39.49c0.003-10.24,6.13-19.486,15.56-23.48l5.77-2.451
	c14.58-6.209,32.29-13.92,38.08-17.129c0.635-0.316,1.231-0.701,1.78-1.15c3.17-3.17,2.54,0.951,2.54,0.951s-0.09,0.779-0.15,2.139
	c-0.34,9.311,1,45.93,43.9,42.881c41.86-3,43.7-31.24,43.32-39.551c-0.024-0.77-0.091-1.537-0.2-2.299c0-0.221,3.6,1,8.479,2.76
	c8.771,3.229,21.66,8.43,25.13,10.879c1.08,0.75,2.391,1.551,3.811,2.34c8.05,4.494,13.027,13.002,13,22.221H738.98z"/>
<path opacity="0.1" enable-background="new    " d="M697.05,476.08c-3.54,16.42-14.66,47.18-54.77,48
	c-42.71,0.84-45.17-41.641-44.91-53.691c0.64-0.316,1.24-0.705,1.79-1.158c3.17-3.172,2.54,0.949,2.54,0.949s-5.391,48.51,43.75,45
	c49.14-3.51,43.12-41.85,43.12-41.85C688.57,473.1,692.17,474.279,697.05,476.08z"/>
<path fill="#454B69" d="M566.9,398.81c4-1.3,8.77,0.9,11,4c2.229,3.101,2.54,6.851,2.81,10.44c2.65,0.56,4.14-2.44,4.38-4.69
	c1-9.21,1.05-18.59,4.141-27.47c3.09-8.88,9.84-17.48,20.22-20.9c3.529-1.225,7.302-1.584,11-1.05c2.189,0.37,4.26,1.13,6.45,1.49
	c7.569,1.25,15.819-2.34,22.93,0.16c4.45,1.57,7.32,5.2,9.36,8.84c0.909,1.955,2.14,3.743,3.64,5.29c3,2.7,7.76,3.41,12.08,4.26
	s9.06,2.31,10.91,5.65c1.67,3,0.439,6.5-0.12,9.78c-0.855,5.168,0.013,10.474,2.47,15.1c0.8,1.521,2.42,3.24,4.33,2.75
	c0.869-0.293,1.604-0.89,2.07-1.68c5-7,4.84-16.08,11.069-22.33c2.091-2.09,4.78-3.73,6.811-5.86c3.12-3.151,4.447-7.661,3.53-12
	c-1.12-4.81-5-8.82-8.07-13c-4.035-5.356-6.975-11.456-8.65-17.95c-0.295-0.752-0.295-1.588,0-2.34
	c0.588-0.765,1.344-1.385,2.21-1.81c3.512-2.329,4.741-6.906,2.87-10.68c-1.74-3.63-5.65-6.32-9.939-7.94c-4.29-1.62-9-2.31-13.66-3
	c-3.061,0.45-6.65-1.3-7.601-3.75c-0.42-1.09-0.42-2.27-0.85-3.36c-0.83-2.09-3.22-3.57-5.79-4.08
	c-2.614-0.429-5.292-0.24-7.82,0.55c-2.88,0.81-6.22,2-8.729,0.62c-1.32-0.75-2.061-2.11-3.48-2.72c-2.88-1.23-5.92,1.25-8,3.3
	c-2.018,2.135-4.488,3.792-7.229,4.85c-2.891,1-6.45,1-8.94-0.59c-2-1.27-3-3.31-4.59-4.93c-2.61-2.67-6.74-4.12-10.86-4.45
	c-4.132-0.217-8.271,0.235-12.26,1.34c-7.613,1.844-14.887,4.882-21.55,9c-3.33,2.09-6.52,4.53-8.26,7.68
	c-1.236,2.456-1.874,5.17-1.86,7.92c-0.31,8.61,2.55,17.69,10,23.72c-4.54,1.9-6.08,6.55-7.14,10.68c-1.7,6.58-3.41,13.28-2.771,20
	c0.32,3.47,1.271,6.94,0.761,10.39c-0.24,1.67-0.82,3.31-0.681,5C563.47,396.957,564.979,398.45,566.9,398.81z"/>
<g opacity="0.1">
	<path d="M715.1,367.99c-0.658,1.425-1.547,2.732-2.63,3.87c-2,2.13-4.72,3.77-6.81,5.87c-6.23,6.24-6.101,15.35-11.07,22.33
		c-0.466,0.788-1.201,1.381-2.07,1.671c-1.909,0.489-3.529-1.23-4.33-2.75c-0.972-1.85-1.7-3.815-2.17-5.851
		c-0.106,0.507-0.206,1.017-0.3,1.53c-0.854,5.168,0.013,10.474,2.47,15.1c0.801,1.521,2.421,3.24,4.33,2.75
		c0.87-0.293,1.604-0.89,2.07-1.68c5-7,4.84-16.08,11.07-22.33c2.09-2.09,4.78-3.73,6.81-5.86c3.121-3.151,4.447-7.661,3.53-12
		C715.787,369.729,715.485,368.842,715.1,367.99z"/>
	<path d="M701.51,324.81c-0.867,0.418-1.625,1.035-2.21,1.8c-0.295,0.752-0.295,1.588,0,2.34c0.577,2.267,1.315,4.489,2.21,6.65l0,0
		c3.556-2.35,4.775-6.998,2.83-10.79c-0.281-0.596-0.616-1.165-1-1.7C702.818,323.765,702.202,324.338,701.51,324.81z"/>
	<path d="M572.91,338.29c-5.157-4.264-8.559-10.282-9.55-16.9c-0.259,1.318-0.406,2.657-0.44,4c-0.321,6.354,1.357,12.649,4.8,18
		C568.767,341.111,570.613,339.296,572.91,338.29z"/>
	<path d="M685.72,383.88c0.561-3.28,1.79-6.77,0.12-9.78c-1.85-3.34-6.58-4.81-10.91-5.65c-4.33-0.84-9.06-1.56-12.08-4.26
		c-1.5-1.547-2.73-3.335-3.64-5.29c-2-3.64-4.91-7.27-9.36-8.84c-7.109-2.5-15.359,1.09-22.93-0.16c-2.189-0.36-4.26-1.12-6.45-1.49
		c-3.693-0.551-7.466-0.208-11,1c-10.38,3.42-17.13,12-20.22,20.9s-3.16,18.26-4.14,27.47c-0.24,2.25-1.73,5.25-4.38,4.689
		c-0.271-3.59-0.601-7.34-2.811-10.439c-2.21-3.101-6.93-5.31-11-4c-1.232-0.278-2.324-0.987-3.08-2c0.14,1.331,0.119,2.674-0.06,4
		c-0.24,1.67-0.82,3.31-0.681,5c0.375,1.918,1.88,3.415,3.801,3.779c4-1.3,8.77,0.9,11,4c2.229,3.101,2.54,6.851,2.81,10.44
		c2.65,0.56,4.14-2.44,4.38-4.69c1-9.21,1.05-18.59,4.141-27.47c3.09-8.88,9.84-17.48,20.22-20.9c3.529-1.225,7.302-1.584,11-1.05
		c2.189,0.37,4.26,1.13,6.45,1.49c7.569,1.25,15.819-2.34,22.93,0.16c4.45,1.57,7.32,5.2,9.36,8.84
		c0.909,1.955,2.14,3.743,3.64,5.29c3,2.7,7.76,3.41,12.08,4.26s8.71,2.21,10.689,5.31C685.65,384.32,685.68,384.1,685.72,383.88z"
		/>
	<path d="M563.8,379.34c0.234-2.715,0.073-5.451-0.479-8.12c-0.428,2.815-0.522,5.672-0.28,8.51c0.06,0.73,0.16,1.45,0.26,2.18
		C563.42,381.05,563.64,380.2,563.8,379.34z"/>
</g>
<rect x="934.73" y="489.689" fill="#FFFFFF" width="90" height="62.449"/>
<path opacity="0.1" fill="#4875D5" enable-background="new    " d="M1016.71,536.809c-1.284,2.16-3.261,3.82-5.61,4.711
	c0.102,0.799,0.119,1.607,0.051,2.41l-9-0.541l8.76,1.92c-0.585,2.672-2.12,5.039-4.32,6.66h-12.18v0.32h-12.42
	c0-0.109,0-0.209,0.08-0.32c0.266-1.016,0.677-1.988,1.22-2.889c1.283-2.156,3.256-3.816,5.6-4.711
	c-0.658-5.127,2.281-10.037,7.11-11.879c-0.069-0.512-0.1-1.025-0.09-1.541l5.79,2.281l-5.73-3.361
	c0.327-3.068,1.909-5.867,4.37-7.73l5.27,8.541l-3.949-9.4c5.433-2.957,12.234-0.951,15.191,4.482
	c1.884,3.461,1.811,7.654-0.191,11.047H1016.71z"/>
<path opacity="0.1" fill="#4875D5" enable-background="new    " d="M1009.6,548.719c-0.766,1.287-1.787,2.402-3,3.281H994.41v0.32
	h-12.42c0-0.111,0-0.211,0.08-0.32c0.266-1.018,0.677-1.99,1.22-2.891c1.283-2.156,3.256-3.814,5.6-4.709
	c-0.1-0.811,2.311-0.701,5.521-0.16C1000.689,545.299,1010.03,548.01,1009.6,548.719z"/>
<path opacity="0.1" fill="#4875D5" enable-background="new    " d="M938.15,536.809c1.283,2.16,3.261,3.82,5.609,4.711
	c-0.102,0.799-0.118,1.607-0.05,2.41l9-0.541l-8.76,1.92c0.584,2.672,2.12,5.039,4.319,6.66h12.211v0.32h12.43
	c0-0.109-0.061-0.209-0.08-0.32c-0.275-1.014-0.686-1.984-1.22-2.889c-1.29-2.154-3.266-3.814-5.61-4.711
	c0.658-5.127-2.28-10.037-7.11-11.879c0.068-0.512,0.102-1.025,0.101-1.541l-5.79,2.281l5.72-3.361
	c-0.327-3.068-1.908-5.867-4.37-7.73l-5.27,8.541l3.95-9.4c-5.434-2.957-12.234-0.951-15.192,4.482
	c-1.884,3.461-1.811,7.654,0.192,11.047H938.15z"/>
<path opacity="0.1" fill="#4875D5" enable-background="new    " d="M945.26,548.719c0.767,1.287,1.787,2.402,3,3.281h12.21v0.32
	H972.9c0-0.111-0.061-0.211-0.08-0.32c-0.275-1.014-0.686-1.986-1.221-2.891c-1.289-2.154-3.265-3.812-5.609-4.709
	c0.1-0.811-2.311-0.701-5.521-0.16C954.17,545.299,944.8,548.01,945.26,548.719z"/>
<rect x="968.51" y="503.449" fill="#464353" width="20.11" height="22.4"/>
<rect x="968.51" y="503.449" opacity="0.1" enable-background="new    " width="20.11" height="22.4"/>
<polygon fill="#A1616A" points="959.939,546.35 959.53,552.17 965.27,552.17 965.63,544.48 "/>
<polygon fill="#A1616A" points="990.18,546.35 989.311,552.17 994.57,552.17 994.9,544.48 "/>
<path fill="#A1616A" d="M973.53,514.66c0,0-0.2,2.91-0.9,3.67s6.25,7.49,11.72,0.84c0,0-2.35-2-1.8-4.24
	S973.53,514.66,973.53,514.66z"/>
<path opacity="0.1" enable-background="new    " d="M973.53,514.66c0,0-0.2,2.91-0.9,3.67s6.25,7.49,11.72,0.84c0,0-2.35-2-1.8-4.24
	S973.53,514.66,973.53,514.66z"/>
<circle fill="#A1616A" cx="978.561" cy="507.199" r="10.061"/>
<path fill="#4875D5" d="M978.04,520.9c0,0-4.22-0.07-4.851-3.92c-0.836,0.723-1.718,1.391-2.64,2c-0.41,0.139-4.439,2.42-5.2,2.559
	c-0.743,0.15-1.434,0.496-2,1c-2.012,1.58-3.229,3.965-3.33,6.521c-0.14,4.51-0.689,13.318-0.689,13.318l0.21,3.191v2.08
	c0,0,3.74,1,6-1c0,0,0-0.762,0.42-1c0.42-0.24,0.479-1.25,0.41-1.67c-0.036-0.623-0.036-1.248,0-1.871
	c0.072,0.34,0.272,0.637,0.56,0.83c0.166,0.564,0.214,1.156,0.141,1.74c-0.211,0.41-0.42,1.381-0.211,1.59
	c0.218,0.381,0.161,0.859-0.14,1.18c-0.382,0.535-0.685,1.121-0.899,1.74c0,0-0.211,1.24-0.42,1.381
	c-0.237,0.506-0.398,1.045-0.48,1.6h25c-0.441-1.268-0.775-2.568-1-3.891c0.07-0.619-0.62-3.189-0.14-3.879
	c0.706-0.916,1.096-2.035,1.109-3.191l0.28,2.701l-0.76,6c0,0,4.64,1.459,5.13,0.549c0.519-1.582,0.913-3.205,1.18-4.85
	c0,0,1.11-5,1.39-5.689c0.28-0.689,0.9-14.561-2.85-16.57s-10.82-5.471-11-5.301C982.435,520.133,980.239,521.332,978.04,520.9z"/>
<path opacity="0.1" fill="none" stroke="#000000" stroke-miterlimit="10" enable-background="new    " d="M965.99,534.459
	c-0.715,1.021-1.021,2.273-0.86,3.51c0.169,1.225,0.569,2.406,1.181,3.48"/>
<path opacity="0.1" fill="none" stroke="#000000" stroke-miterlimit="10" enable-background="new    " d="M990.28,535.41
	c0.179,0.508,0.319,1.029,0.42,1.559c0.363,1.342,0.122,2.773-0.66,3.92"/>
<path fill="#464353" d="M974.061,500.32c0.786-0.211,1.622-0.125,2.35,0.238c0.716,0.371,1.466,0.668,2.24,0.891
	c0.52,0.109,1,0.109,1.58,0.189c1.976,0.359,3.535,1.883,3.939,3.852c0.45,2.459-1,4.879-1,7.389c0.006,1.438,0.512,2.826,1.43,3.93
	c0.771,0.703,1.444,1.508,2,2.391c0.29,0.641,0.351,1.371,0.631,2c0.611,1.133,1.624,1.996,2.84,2.42
	c1.205,0.404,2.367,0.928,3.47,1.561c2,1.33,3.18,3.879,5.5,4.43c0.233,0.102,0.497,0.102,0.729,0
	c0.214-0.17,0.339-0.428,0.341-0.699c0.116-0.992-0.226-1.982-0.931-2.691c-0.569-0.568-1.399-1-1.58-1.77
	c-0.18-0.77,0.301-1.43,0.561-2.129c0.83-2.271-0.55-4.74-2.12-6.58s-3.45-3.66-3.83-6c-0.09-0.791-0.12-1.586-0.09-2.381
	c-0.029-1.637-0.312-3.26-0.84-4.811c-0.254-0.838-0.661-1.621-1.2-2.309c-0.5-0.602-1.141-1.061-1.66-1.641
	c-0.69-0.955-1.312-1.957-1.86-3c-1.613-2.51-4.366-4.057-7.35-4.131c-2.81,0-5.47,1.24-7.85,2.73
	c-0.876,0.479-1.634,1.145-2.221,1.951c-1,1.59-0.7,3.689-1.279,5.488c-0.58,1.801-1.95,3.131-2.431,4.891
	c-0.147,0.518-0.172,1.062-0.069,1.59c0.178,0.559,0.416,1.094,0.71,1.6c0.531,1.289,0.832,2.658,0.89,4.051
	c0.15,1.68,0.22,3.49-0.66,4.92c-0.683,0.867-1.533,1.588-2.5,2.119c0.98,0.797,2.232,1.18,3.49,1.07c1.899,0.08,4.1,0,5.28-1.5
	c0.706-1.076,0.99-2.375,0.8-3.648c-0.094-1.393-0.376-2.766-0.84-4.08c-0.65-1.852-1.65-3.602-1.94-5.541
	c-0.229-1.414,0.132-2.859,1-4c0.36-0.449,1-0.68,1.3-1.16C973.27,501.309,973.16,500.639,974.061,500.32z"/>
<g opacity="0.1">
	<path d="M966.07,509.59c0.531,1.287,0.832,2.658,0.89,4.049c0,0.441,0.07,0.891,0.08,1.342c0.104-0.979,0.104-1.963,0-2.941
		c-0.062-1.375-0.362-2.729-0.89-4c-0.288-0.506-0.525-1.037-0.711-1.59c-0.147,0.514-0.172,1.055-0.069,1.58
		C965.548,508.572,965.782,509.096,966.07,509.59z"/>
	<path d="M972.66,518.809c-1.18,1.49-3.38,1.58-5.28,1.512c-0.804,0.002-1.604-0.119-2.37-0.361c-0.38,0.311-0.79,0.6-1.189,0.881
		c0.98,0.795,2.231,1.18,3.489,1.07c1.9,0.08,4.101,0,5.28-1.5c0.676-1,0.968-2.213,0.82-3.41
		C973.321,517.658,973.062,518.281,972.66,518.809z"/>
	<path d="M997.67,522.809c0.027,0.115,0.068,0.227,0.12,0.33c0.12-0.279,0.26-0.568,0.37-0.859c0.24-0.658,0.309-1.367,0.2-2.061
		c-0.034,0.16-0.078,0.316-0.13,0.471C997.97,521.389,997.5,522.09,997.67,522.809z"/>
	<path d="M984.23,505.969c0.114-0.684,0.114-1.385,0-2.068c-0.402-1.969-1.963-3.494-3.94-3.852c-0.53-0.09-1.06-0.09-1.58-0.189
		c-0.772-0.227-1.522-0.525-2.24-0.891c-0.727-0.367-1.562-0.457-2.35-0.25c-0.9,0.32-0.79,1-1.19,1.66
		c-0.29,0.48-0.939,0.721-1.3,1.16c-0.792,1.057-1.15,2.377-1,3.689c0.125-0.764,0.445-1.484,0.931-2.09
		c0.359-0.449,1-0.68,1.3-1.16c0.399-0.67,0.29-1.34,1.189-1.658c0.786-0.211,1.622-0.125,2.351,0.238
		c0.715,0.371,1.466,0.668,2.239,0.891c0.521,0.109,1,0.109,1.58,0.189c1.977,0.359,3.536,1.883,3.94,3.852
		C984.193,505.648,984.217,505.809,984.23,505.969z"/>
	<path d="M999.8,527.98c-0.234,0.092-0.495,0.092-0.729,0c-2.32-0.551-3.521-3.102-5.5-4.432c-1.107-0.623-2.269-1.146-3.471-1.559
		c-1.214-0.42-2.228-1.281-2.84-2.41c-0.279-0.65-0.34-1.371-0.63-2c-0.557-0.883-1.229-1.688-2-2.391
		c-0.833-0.992-1.337-2.219-1.44-3.51c-0.06,0.387-0.09,0.777-0.09,1.17c0.019,1.455,0.55,2.857,1.5,3.959
		c0.771,0.703,1.444,1.508,2,2.391c0.29,0.641,0.351,1.371,0.631,2c0.611,1.133,1.624,1.996,2.84,2.42
		c1.205,0.404,2.367,0.928,3.47,1.561c2,1.33,3.18,3.879,5.5,4.43c0.233,0.102,0.497,0.102,0.729,0
		c0.213-0.17,0.338-0.428,0.341-0.699c0.045-0.379,0.024-0.76-0.061-1.131C999.986,527.867,999.899,527.936,999.8,527.98z"/>
</g>
<rect x="943.91" y="494.279" opacity="0.1" fill="#4875D5" enable-background="new    " width="12.859" height="18.371"/>
<rect x="945.75" y="496.91" opacity="0.1" fill="#4875D5" enable-background="new    " width="9.18" height="13.119"/>
<rect x="999.01" y="497.039" opacity="0.1" fill="#4875D5" enable-background="new    " width="21.12" height="11.02"/>
<rect x="1001.77" y="498.48" opacity="0.1" fill="#4875D5" enable-background="new    " width="15.61" height="8.148"/>
<rect x="369.73" y="266.38" fill="#4875D5" width="655" height="285.759"/>
<text transform="matrix(1 0 0 1 563.6348 388.189)"><tspan x="0" y="0" fill="#FFD74E" font-family="'LeagueSpartan-Bold'" font-size="57.558">Kubernetes </tspan><tspan x="0" y="69.069" fill="#FFD74E" font-family="'LeagueSpartan-Bold'" font-size="57.558">Video Course</tspan></text>
<polyline fill="#FFD74E" points="482.193,372.502 482.193,421.229 519.326,395.108 "/>
<circle fill="none" stroke="#FFD74E" stroke-width="4" stroke-miterlimit="10" cx="492.76" cy="396.865" r="47.074"/>
</svg>
