<?xml version="1.0" encoding="UTF-8"?>
<!--Generator: Apple Native CoreSVG 175-->
<!DOCTYPE svg
PUBLIC "-//W3C//DTD SVG 1.1//EN"
       "http://www.w3.org/Graphics/SVG/1.1/DTD/svg11.dtd">
<svg version="1.1" xmlns="http://www.w3.org/2000/svg" xmlns:xlink="http://www.w3.org/1999/xlink" width="15.7227" height="20.4004">
 <g>
  <rect height="20.4004" opacity="0" width="15.7227" x="0" y="0"/>
  <path d="M11.3965 4.66797Q10.6641 4.66797 10.0342 4.89258Q9.4043 5.11719 8.88672 5.33691Q8.36914 5.55664 7.98828 5.55664Q7.58789 5.55664 7.09961 5.34668Q6.61133 5.13672 6.0498 4.93164Q5.48828 4.72656 4.85352 4.72656Q3.65234 4.72656 2.53906 5.38086Q1.42578 6.03516 0.712891 7.31445Q0 8.59375 0 10.4688Q0 11.6406 0.273438 12.8125Q0.546875 13.9844 1.00586 15.0293Q1.46484 16.0742 2.02148 16.875Q2.74414 17.8809 3.43262 18.6035Q4.12109 19.3262 5.0293 19.3262Q5.625 19.3262 6.06445 19.1309Q6.50391 18.9355 6.99707 18.7354Q7.49023 18.5352 8.23242 18.5352Q8.79883 18.5352 9.17969 18.6523Q9.56055 18.7695 9.87793 18.9209Q10.1953 19.0723 10.5469 19.1895Q10.8984 19.3066 11.3965 19.3066Q12.0508 19.3066 12.5732 18.96Q13.0957 18.6133 13.54 18.0664Q13.9844 17.5195 14.4043 16.9238Q14.8633 16.25 15.1514 15.6299Q15.4395 15.0098 15.5762 14.6143Q15.7129 14.2188 15.7227 14.1797Q15.6934 14.1699 15.2979 13.96Q14.9023 13.75 14.3994 13.291Q13.8965 12.832 13.5205 12.0898Q13.1445 11.3477 13.1445 10.2734Q13.1445 9.33594 13.4424 8.65723Q13.7402 7.97852 14.1406 7.53418Q14.541 7.08984 14.8584 6.85547Q15.1758 6.62109 15.2246 6.5918Q14.7363 5.88867 14.1602 5.49805Q13.584 5.10742 13.0273 4.93164Q12.4707 4.75586 12.0361 4.71191Q11.6016 4.66797 11.3965 4.66797ZM10.7129 3.08594Q11.1621 2.54883 11.4453 1.84082Q11.7285 1.13281 11.7285 0.380859Q11.7285 0.166016 11.6992 0Q10.9668 0.0292969 10.1709 0.439453Q9.375 0.849609 8.85742 1.46484Q8.4375 1.93359 8.11523 2.63672Q7.79297 3.33984 7.79297 4.08203Q7.79297 4.19922 7.80762 4.29688Q7.82227 4.39453 7.83203 4.43359Q7.95898 4.46289 8.0957 4.46289Q8.75 4.46289 9.4873 4.07227Q10.2246 3.68164 10.7129 3.08594Z" fill="#ffffff"/>
 </g>
</svg>
