<?xml version="1.0" encoding="UTF-8"?>
<!--Generator: Apple Native CoreSVG 175-->
<!DOCTYPE svg
PUBLIC "-//W3C//DTD SVG 1.1//EN"
       "http://www.w3.org/Graphics/SVG/1.1/DTD/svg11.dtd">
<svg version="1.1" xmlns="http://www.w3.org/2000/svg" xmlns:xlink="http://www.w3.org/1999/xlink" width="18.0078" height="17.9395">
 <g>
  <rect height="17.9395" opacity="0" width="18.0078" x="0" y="0"/>
  <path d="M16.8652 1.17188Q16.1133 0.419922 15.0781 0.219727Q14.043 0.0195312 12.793 0.0195312L5.18555 0.0195312Q3.95508 0.0195312 2.9248 0.219727Q1.89453 0.419922 1.14258 1.17188Q0.400391 1.91406 0.200195 2.93945Q0 3.96484 0 5.19531L0 12.7344Q0 13.9844 0.195312 15.0146Q0.390625 16.0449 1.14258 16.7871Q1.89453 17.5391 2.9248 17.7393Q3.95508 17.9395 5.20508 17.9395L12.793 17.9395Q14.043 17.9395 15.0781 17.7393Q16.1133 17.5391 16.8652 16.7871Q17.6074 16.0449 17.8076 15.0146Q18.0078 13.9844 18.0078 12.7344L18.0078 5.22461Q18.0078 3.97461 17.8076 2.94434Q17.6074 1.91406 16.8652 1.17188ZM16.4355 4.95117L16.4355 12.998Q16.4355 13.7598 16.2939 14.4775Q16.1523 15.1953 15.7129 15.6445Q15.2734 16.084 14.5459 16.2256Q13.8184 16.3672 13.0664 16.3672L4.94141 16.3672Q4.18945 16.3672 3.46191 16.2256Q2.73438 16.084 2.28516 15.6445Q1.8457 15.1953 1.70898 14.4775Q1.57227 13.7598 1.57227 12.998L1.57227 4.98047Q1.57227 4.20898 1.70898 3.48145Q1.8457 2.75391 2.28516 2.31445Q2.72461 1.86523 3.46191 1.72852Q4.19922 1.5918 4.9707 1.5918L13.0664 1.5918Q13.8184 1.5918 14.5459 1.7334Q15.2734 1.875 15.7129 2.31445Q16.1621 2.76367 16.2988 3.48145Q16.4355 4.19922 16.4355 4.95117ZM12.0703 11.377Q12.3926 11.377 12.5879 11.1572Q12.7832 10.9375 12.7832 10.5957L12.7832 5.99609Q12.7832 5.55664 12.5635 5.37109Q12.3438 5.18555 11.9727 5.18555L7.33398 5.18555Q6.99219 5.18555 6.78711 5.38086Q6.58203 5.57617 6.58203 5.89844Q6.58203 6.23047 6.79199 6.42578Q7.00195 6.62109 7.35352 6.62109L9.13086 6.62109L10.5762 6.46484L9.0625 7.88086L5.45898 11.4844Q5.22461 11.7188 5.22461 12.002Q5.22461 12.334 5.41992 12.5342Q5.61523 12.7344 5.9375 12.7344Q6.26953 12.7344 6.49414 12.5098L10.0977 8.90625L11.4941 7.41211L11.3477 8.92578L11.3477 10.6152Q11.3477 10.9668 11.5479 11.1719Q11.748 11.377 12.0703 11.377Z" fill="#8389E6"/>
 </g>
</svg>
