<?xml version="1.0" encoding="UTF-8"?>
<!--Generator: Apple Native CoreSVG 175-->
<!DOCTYPE svg
PUBLIC "-//W3C//DTD SVG 1.1//EN"
       "http://www.w3.org/Graphics/SVG/1.1/DTD/svg11.dtd">
<svg version="1.1" xmlns="http://www.w3.org/2000/svg" xmlns:xlink="http://www.w3.org/1999/xlink" width="19.9219" height="19.9316">
 <g>
  <rect height="19.9316" opacity="0" width="19.9219" x="0" y="0"/>
  <path d="M9.96094 19.9219Q12.002 19.9219 13.8037 19.1406Q15.6055 18.3594 16.9824 16.9824Q18.3594 15.6055 19.1406 13.8037Q19.9219 12.002 19.9219 9.96094Q19.9219 7.91992 19.1406 6.11816Q18.3594 4.31641 16.9824 2.93945Q15.6055 1.5625 13.7988 0.78125Q11.9922 0 9.95117 0Q7.91016 0 6.1084 0.78125Q4.30664 1.5625 2.93457 2.93945Q1.5625 4.31641 0.78125 6.11816Q0 7.91992 0 9.96094Q0 12.002 0.78125 13.8037Q1.5625 15.6055 2.93945 16.9824Q4.31641 18.3594 6.11816 19.1406Q7.91992 19.9219 9.96094 19.9219ZM9.96094 18.2617Q8.23242 18.2617 6.72852 17.6172Q5.22461 16.9727 4.08691 15.835Q2.94922 14.6973 2.30957 13.1934Q1.66992 11.6895 1.66992 9.96094Q1.66992 8.23242 2.30957 6.72852Q2.94922 5.22461 4.08203 4.08203Q5.21484 2.93945 6.71875 2.2998Q8.22266 1.66016 9.95117 1.66016Q11.6797 1.66016 13.1836 2.2998Q14.6875 2.93945 15.8301 4.08203Q16.9727 5.22461 17.6172 6.72852Q18.2617 8.23242 18.2617 9.96094Q18.2617 11.6895 17.6221 13.1934Q16.9824 14.6973 15.8447 15.835Q14.707 16.9727 13.1982 17.6172Q11.6895 18.2617 9.96094 18.2617ZM14.9707 9.94141Q14.9707 9.6582 14.6875 9.375L11.3965 6.06445Q11.2012 5.86914 10.8789 5.86914Q10.5859 5.86914 10.3809 6.06934Q10.1758 6.26953 10.1758 6.57227Q10.1758 6.875 10.4004 7.08984L11.6211 8.30078L12.793 9.28711L10.7324 9.20898L5.64453 9.20898Q5.32227 9.20898 5.11719 9.41895Q4.91211 9.62891 4.91211 9.94141Q4.91211 10.2637 5.11719 10.4688Q5.32227 10.6738 5.64453 10.6738L10.7324 10.6738L12.8027 10.5957L11.6211 11.5918L10.4004 12.793Q10.1758 12.998 10.1758 13.3203Q10.1758 13.6133 10.3809 13.8232Q10.5859 14.0332 10.8789 14.0332Q11.1914 14.0332 11.3965 13.8281L14.6875 10.5176Q14.9707 10.2344 14.9707 9.94141Z" fill="#555FCD"/>
 </g>
</svg>
