<?xml version="1.0" encoding="UTF-8"?>
<!--Generator: Apple Native CoreSVG 175-->
<!DOCTYPE svg
PUBLIC "-//W3C//DTD SVG 1.1//EN"
       "http://www.w3.org/Graphics/SVG/1.1/DTD/svg11.dtd">
<svg version="1.1" xmlns="http://www.w3.org/2000/svg" xmlns:xlink="http://www.w3.org/1999/xlink" width="19.9219" height="19.9316">
 <g>
  <rect height="19.9316" opacity="0" width="19.9219" x="0" y="0"/>
  <path d="M9.96094 19.9219Q12.002 19.9219 13.8037 19.1406Q15.6055 18.3594 16.9824 16.9824Q18.3594 15.6055 19.1406 13.8037Q19.9219 12.002 19.9219 9.96094Q19.9219 7.91992 19.1406 6.11816Q18.3594 4.31641 16.9824 2.93945Q15.6055 1.5625 13.7988 0.78125Q11.9922 0 9.95117 0Q7.91016 0 6.1084 0.78125Q4.30664 1.5625 2.93457 2.93945Q1.5625 4.31641 0.78125 6.11816Q0 7.91992 0 9.96094Q0 12.002 0.78125 13.8037Q1.5625 15.6055 2.93945 16.9824Q4.31641 18.3594 6.11816 19.1406Q7.91992 19.9219 9.96094 19.9219ZM9.96094 18.2617Q8.23242 18.2617 6.72852 17.6172Q5.22461 16.9727 4.08691 15.835Q2.94922 14.6973 2.30957 13.1934Q1.66992 11.6895 1.66992 9.96094Q1.66992 8.23242 2.30957 6.72852Q2.94922 5.22461 4.08203 4.08203Q5.21484 2.93945 6.71875 2.2998Q8.22266 1.66016 9.95117 1.66016Q11.6797 1.66016 13.1836 2.2998Q14.6875 2.93945 15.8301 4.08203Q16.9727 5.22461 17.6172 6.72852Q18.2617 8.23242 18.2617 9.96094Q18.2617 11.6895 17.6221 13.1934Q16.9824 14.6973 15.8447 15.835Q14.707 16.9727 13.1982 17.6172Q11.6895 18.2617 9.96094 18.2617ZM9.9707 14.834Q10.2832 14.834 10.4883 14.6289Q10.6934 14.4238 10.6934 14.1016L10.6934 9.21875L10.625 7.14844L11.6113 8.33008L12.7637 9.50195Q12.959 9.7168 13.2812 9.7168Q13.584 9.7168 13.7891 9.5166Q13.9941 9.31641 13.9941 9.01367Q13.9941 8.71094 13.7988 8.50586L10.5371 5.26367Q10.2637 4.98047 9.9707 4.98047Q9.67773 4.98047 9.4043 5.26367L6.14258 8.50586Q5.94727 8.70117 5.94727 9.01367Q5.94727 9.31641 6.14746 9.5166Q6.34766 9.7168 6.65039 9.7168Q6.95312 9.7168 7.16797 9.50195L8.33008 8.33008L9.30664 7.1582L9.23828 9.21875L9.23828 14.1016Q9.23828 14.4238 9.44336 14.6289Q9.64844 14.834 9.9707 14.834Z" fill="#8389E6"/>
 </g>
</svg>
