<?xml version="1.0" encoding="UTF-8"?>
<!--Generator: Apple Native CoreSVG 175-->
<!DOCTYPE svg
PUBLIC "-//W3C//DTD SVG 1.1//EN"
       "http://www.w3.org/Graphics/SVG/1.1/DTD/svg11.dtd">
<svg version="1.1" xmlns="http://www.w3.org/2000/svg" xmlns:xlink="http://www.w3.org/1999/xlink" width="19.9219" height="19.9316">
 <g>
  <rect height="19.9316" opacity="0" width="19.9219" x="0" y="0"/>
  <path d="M9.96094 19.9219Q12.002 19.9219 13.8037 19.1406Q15.6055 18.3594 16.9824 16.9824Q18.3594 15.6055 19.1406 13.8037Q19.9219 12.002 19.9219 9.96094Q19.9219 7.91992 19.1406 6.11816Q18.3594 4.31641 16.9824 2.93945Q15.6055 1.5625 13.7988 0.78125Q11.9922 0 9.95117 0Q7.91016 0 6.1084 0.78125Q4.30664 1.5625 2.93457 2.93945Q1.5625 4.31641 0.78125 6.11816Q0 7.91992 0 9.96094Q0 12.002 0.78125 13.8037Q1.5625 15.6055 2.93945 16.9824Q4.31641 18.3594 6.11816 19.1406Q7.91992 19.9219 9.96094 19.9219ZM15.1367 9.94141Q15.1367 10.2441 14.8438 10.5371L11.4551 13.9453Q11.2402 14.1602 10.918 14.1602Q10.6055 14.1602 10.3955 13.9453Q10.1855 13.7305 10.1855 13.418Q10.1855 13.0957 10.4199 12.8711L11.6699 11.6406L12.8906 10.6152L10.752 10.7031L5.52734 10.7031Q5.19531 10.7031 4.98047 10.4883Q4.76562 10.2734 4.76562 9.94141Q4.76562 9.60938 4.98047 9.39453Q5.19531 9.17969 5.52734 9.17969L10.752 9.17969L12.8809 9.26758L11.6699 8.25195L10.4199 7.01172Q10.1855 6.76758 10.1855 6.47461Q10.1855 6.16211 10.3955 5.95215Q10.6055 5.74219 10.918 5.74219Q11.25 5.74219 11.4551 5.94727L14.8438 9.35547Q15.1367 9.64844 15.1367 9.94141Z" fill="#8389E6"/>
 </g>
</svg>
