<?xml version="1.0" encoding="UTF-8"?>
<!--Generator: Apple Native CoreSVG 175-->
<!DOCTYPE svg
PUBLIC "-//W3C//DTD SVG 1.1//EN"
       "http://www.w3.org/Graphics/SVG/1.1/DTD/svg11.dtd">
<svg version="1.1" xmlns="http://www.w3.org/2000/svg" xmlns:xlink="http://www.w3.org/1999/xlink" width="13.7598" height="21.9885">
 <g>
  <rect height="21.9885" opacity="0" width="13.7598" x="0" y="0"/>
  <path d="M4.62891 21.4191L13.5059 10.0031Q13.7598 9.68079 13.7598 9.37805Q13.7598 9.09485 13.5645 8.9093Q13.3691 8.72375 13.0566 8.72375L7.53906 8.72375L10.4492 1.1261Q10.5957 0.755005 10.5029 0.476685Q10.4102 0.198364 10.1758 0.0762939Q9.94141-0.0457764 9.65332 0.0274658Q9.36523 0.100708 9.13086 0.413208L0.253906 11.8195Q0 12.1417 0 12.4445Q0 12.7277 0.195312 12.9181Q0.390625 13.1085 0.703125 13.1085L6.2207 13.1085L3.31055 20.6964Q3.16406 21.0773 3.25684 21.3507Q3.34961 21.6241 3.58398 21.7462Q3.81836 21.8683 4.10645 21.7999Q4.39453 21.7316 4.62891 21.4191ZM5.20508 18.7921L8.47656 11.6534L2.44141 11.6534L8.81836 3.18665L8.54492 3.04016L5.2832 10.1788L11.3086 10.1788L4.93164 18.6456Z" fill="#8389E6"/>
 </g>
</svg>
