<?xml version="1.0" encoding="UTF-8"?>
<!--Generator: Apple Native CoreSVG 175-->
<!DOCTYPE svg
PUBLIC "-//W3C//DTD SVG 1.1//EN"
       "http://www.w3.org/Graphics/SVG/1.1/DTD/svg11.dtd">
<svg version="1.1" xmlns="http://www.w3.org/2000/svg" xmlns:xlink="http://www.w3.org/1999/xlink" width="19.7168" height="21.4844">
 <g>
  <rect height="21.4844" opacity="0" width="19.7168" x="0" y="0"/>
  <path d="M9.18945 3.53027L10.5273 3.53027L10.5273 1.19629L9.18945 1.19629ZM9.18945 7.10449L10.5273 7.10449L10.5273 4.5166L9.18945 4.5166ZM9.18945 10.3955L10.5273 10.3955L10.5273 8.10059L9.18945 8.10059ZM7.4707 12.9736L9.56055 11.9287L8.95508 10.7275L6.875 11.7725ZM4.26758 14.5654L6.57227 13.4131L5.97656 12.2119L3.67188 13.3643ZM1.31836 16.0303L3.37891 14.9951L2.77344 13.7939L0.712891 14.8291ZM10.1562 11.9287L12.2461 12.9736L12.8418 11.7725L10.7617 10.7275ZM13.1445 13.4131L15.459 14.5654L16.0547 13.3643L13.7402 12.2119ZM16.3379 14.9951L18.3984 16.0303L19.0039 14.8291L16.9531 13.7939ZM1.36719 16.8994L9.05273 21.2549Q9.86328 21.7139 10.6738 21.2549L18.3496 16.8994Q19.0234 16.5186 19.3701 16.0205Q19.7168 15.5225 19.7168 14.4775L19.7168 6.74316Q19.7168 5.98145 19.4287 5.47852Q19.1406 4.97559 18.5254 4.62402L11.6113 0.698242Q10.7324 0.19043 9.86328 0.19043Q8.99414 0.19043 8.10547 0.698242L1.20117 4.62402Q0.576172 4.97559 0.288086 5.47852Q0 5.98145 0 6.74316L0 14.4775Q0 15.5225 0.351562 16.0205Q0.703125 16.5186 1.36719 16.8994ZM2.24609 15.6104Q1.81641 15.376 1.65039 15.1025Q1.48438 14.8291 1.48438 14.4287L1.48438 7.05566L9.0918 11.4014L9.0918 19.5068ZM17.4805 15.6104L10.625 19.5068L10.625 11.4014L18.2324 7.05566L18.2324 14.4287Q18.2324 14.8291 18.0664 15.1025Q17.9004 15.376 17.4805 15.6104ZM9.86328 10.0342L2.32422 5.7666L8.75977 2.09473Q9.87305 1.45996 10.9668 2.09473L17.4023 5.7666Z" fill="#8389E6"/>
 </g>
</svg>
