<?xml version="1.0" encoding="UTF-8"?>
<!--Generator: Apple Native CoreSVG 175-->
<!DOCTYPE svg
PUBLIC "-//W3C//DTD SVG 1.1//EN"
       "http://www.w3.org/Graphics/SVG/1.1/DTD/svg11.dtd">
<svg version="1.1" xmlns="http://www.w3.org/2000/svg" xmlns:xlink="http://www.w3.org/1999/xlink" width="19.9707" height="24.5996">
 <g>
  <rect height="24.5996" opacity="0" width="19.9707" x="0" y="0"/>
  <path d="M4.73633 5.78125L7.75391 5.78125L14.7754 12.8711L14.7754 19.6973L16.9434 19.6973Q18.457 19.6973 19.2139 18.9258Q19.9707 18.1543 19.9707 16.6309L19.9707 3.06641Q19.9707 1.54297 19.2139 0.771484Q18.457 0 16.9434 0L7.76367 0Q6.25 0 5.49316 0.766602Q4.73633 1.5332 4.73633 3.06641ZM9.9707 3.34961Q9.64844 3.34961 9.49707 3.17383Q9.3457 2.99805 9.3457 2.77344L9.3457 2.56836Q9.3457 2.34375 9.49707 2.16797Q9.64844 1.99219 9.9707 1.99219L14.7363 1.99219Q15.0488 1.99219 15.2051 2.16797Q15.3613 2.34375 15.3613 2.56836L15.3613 2.77344Q15.3613 2.99805 15.2051 3.17383Q15.0488 3.34961 14.7363 3.34961ZM0 21.5039Q0 23.0371 0.756836 23.8037Q1.51367 24.5703 3.02734 24.5703L12.207 24.5703Q13.7207 24.5703 14.4775 23.7988Q15.2344 23.0273 15.2344 21.5039L15.2344 13.877Q15.2344 13.252 15.166 12.8223Q15.0977 12.3926 14.8975 12.0361Q14.6973 11.6797 14.3066 11.2793L8.92578 5.80078Q8.36914 5.22461 7.83203 5.04883Q7.29492 4.87305 6.47461 4.87305L3.02734 4.87305Q1.51367 4.87305 0.756836 5.64453Q0 6.41602 0 7.93945ZM1.57227 21.4746L1.57227 7.95898Q1.57227 7.23633 1.95801 6.84082Q2.34375 6.44531 3.10547 6.44531L6.30859 6.44531L6.30859 12.1094Q6.30859 13.0371 6.77246 13.4961Q7.23633 13.9551 8.14453 13.9551L13.6621 13.9551L13.6621 21.4746Q13.6621 22.207 13.2715 22.6025Q12.8809 22.998 12.1289 22.998L3.0957 22.998Q2.34375 22.998 1.95801 22.6025Q1.57227 22.207 1.57227 21.4746ZM8.33008 12.4805Q8.03711 12.4805 7.91016 12.3535Q7.7832 12.2266 7.7832 11.9336L7.7832 6.80664L13.3594 12.4805Z" fill="#8389E6"/>
 </g>
</svg>
