<?xml version="1.0" encoding="UTF-8"?>
<!--Generator: Apple Native CoreSVG 175-->
<!DOCTYPE svg
PUBLIC "-//W3C//DTD SVG 1.1//EN"
       "http://www.w3.org/Graphics/SVG/1.1/DTD/svg11.dtd">
<svg version="1.1" xmlns="http://www.w3.org/2000/svg" xmlns:xlink="http://www.w3.org/1999/xlink" width="23.0273" height="17.9785">
 <g>
  <rect height="17.9785" opacity="0" width="23.0273" x="0" y="0"/>
  <path d="M4.98047 4.92188L13.2422 4.92188Q13.5059 4.92188 13.6768 4.74609Q13.8477 4.57031 13.8477 4.31641Q13.8477 4.0625 13.6768 3.8916Q13.5059 3.7207 13.2422 3.7207L4.98047 3.7207Q4.7168 3.7207 4.5459 3.8916Q4.375 4.0625 4.375 4.31641Q4.375 4.57031 4.5459 4.74609Q4.7168 4.92188 4.98047 4.92188ZM4.98047 14.248L13.2422 14.248Q13.5059 14.248 13.6768 14.082Q13.8477 13.916 13.8477 13.6621Q13.8477 13.3984 13.6768 13.2227Q13.5059 13.0469 13.2422 13.0469L4.98047 13.0469Q4.7168 13.0469 4.5459 13.2227Q4.375 13.3984 4.375 13.6621Q4.375 13.916 4.5459 14.082Q4.7168 14.248 4.98047 14.248ZM3.06641 17.9785L19.9609 17.9785Q21.5039 17.9785 22.2656 17.2217Q23.0273 16.4648 23.0273 14.9609L23.0273 3.02734Q23.0273 1.52344 22.2656 0.761719Q21.5039 0 19.9609 0L3.06641 0Q1.5332 0 0.766602 0.756836Q0 1.51367 0 3.02734L0 14.9609Q0 16.4648 0.766602 17.2217Q1.5332 17.9785 3.06641 17.9785ZM3.08594 16.4062Q2.35352 16.4062 1.96289 16.0205Q1.57227 15.6348 1.57227 14.873L1.57227 3.11523Q1.57227 2.35352 1.96289 1.96289Q2.35352 1.57227 3.08594 1.57227L19.9414 1.57227Q20.6641 1.57227 21.0596 1.96289Q21.4551 2.35352 21.4551 3.11523L21.4551 14.873Q21.4551 15.6348 21.0596 16.0205Q20.6641 16.4062 19.9414 16.4062ZM4.11133 11.2891L18.9258 11.2891Q19.5312 11.2891 19.873 10.9326Q20.2148 10.5762 20.2148 9.9707L20.2148 7.98828Q20.2148 7.38281 19.873 7.02637Q19.5312 6.66992 18.9258 6.66992L4.11133 6.66992Q3.50586 6.66992 3.16406 7.02637Q2.82227 7.38281 2.82227 7.98828L2.82227 9.9707Q2.82227 10.5762 3.16406 10.9326Q3.50586 11.2891 4.11133 11.2891ZM4.99023 9.58984Q4.7168 9.58984 4.5459 9.41406Q4.375 9.23828 4.375 8.97461Q4.375 8.73047 4.5459 8.55957Q4.7168 8.38867 4.99023 8.38867L9.79492 8.38867Q10.0586 8.38867 10.2295 8.55957Q10.4004 8.73047 10.4004 8.97461Q10.4004 9.23828 10.2295 9.41406Q10.0586 9.58984 9.79492 9.58984Z" fill="#8389E6"/>
 </g>
</svg>
