<?xml version="1.0" encoding="UTF-8"?>
<!--Generator: Apple Native CoreSVG 175-->
<!DOCTYPE svg
PUBLIC "-//W3C//DTD SVG 1.1//EN"
       "http://www.w3.org/Graphics/SVG/1.1/DTD/svg11.dtd">
<svg version="1.1" xmlns="http://www.w3.org/2000/svg" xmlns:xlink="http://www.w3.org/1999/xlink" width="22.1777" height="17.998">
 <g>
  <rect height="17.998" opacity="0" width="22.1777" x="0" y="0"/>
  <path d="M0 14.8438Q0 16.3574 0.766602 17.1143Q1.5332 17.8711 3.06641 17.8711L19.4043 17.8711Q20.7129 17.8711 21.4453 17.1143Q22.1777 16.3574 22.1777 14.8438L22.1777 6.83594L0 6.83594ZM0 5.55664L22.1777 5.55664L22.1777 4.81445Q22.1777 3.31055 21.4062 2.54883Q20.6348 1.78711 19.1113 1.78711L9.73633 1.78711Q9.23828 1.78711 8.89648 1.65527Q8.55469 1.52344 8.18359 1.21094L7.58789 0.722656Q7.26562 0.449219 6.96777 0.292969Q6.66992 0.136719 6.31348 0.0683594Q5.95703 0 5.47852 0L2.69531 0Q1.40625 0 0.703125 0.732422Q0 1.46484 0 2.93945Z" fill="#3ab9f4"/>
 </g>
</svg>
