<?xml version="1.0" encoding="UTF-8"?>
<!--Generator: Apple Native CoreSVG 175-->
<!DOCTYPE svg
PUBLIC "-//W3C//DTD SVG 1.1//EN"
       "http://www.w3.org/Graphics/SVG/1.1/DTD/svg11.dtd">
<svg version="1.1" xmlns="http://www.w3.org/2000/svg" xmlns:xlink="http://www.w3.org/1999/xlink" width="24.5801" height="15.4395">
 <g>
  <rect height="15.4395" opacity="0" width="24.5801" x="0" y="0"/>
  <path d="M3.06641 15.4297L21.5137 15.4297Q23.0371 15.4297 23.8086 14.668Q24.5801 13.9062 24.5801 12.4023L24.5801 3.01758Q24.5801 1.51367 23.8086 0.756836Q23.0371 0 21.5137 0L3.06641 0Q1.5332 0 0.766602 0.756836Q0 1.51367 0 3.01758L0 12.4023Q0 13.916 0.766602 14.6729Q1.5332 15.4297 3.06641 15.4297ZM3.08594 13.8574Q2.35352 13.8574 1.96289 13.4668Q1.57227 13.0762 1.57227 12.3145L1.57227 3.10547Q1.57227 2.34375 1.96289 1.95801Q2.35352 1.57227 3.08594 1.57227L21.4844 1.57227Q22.207 1.57227 22.6074 1.95801Q23.0078 2.34375 23.0078 3.10547L23.0078 12.3145Q23.0078 13.0762 22.6074 13.4668Q22.207 13.8574 21.4844 13.8574ZM3.96484 5.43945L4.86328 5.43945Q5.30273 5.43945 5.30273 5.00977L5.30273 4.11133Q5.30273 3.67188 4.86328 3.67188L3.96484 3.67188Q3.53516 3.67188 3.53516 4.11133L3.53516 5.00977Q3.53516 5.43945 3.96484 5.43945ZM7.10938 5.43945L8.00781 5.43945Q8.4375 5.43945 8.4375 5.00977L8.4375 4.11133Q8.4375 3.67188 8.00781 3.67188L7.10938 3.67188Q6.66992 3.67188 6.66992 4.11133L6.66992 5.00977Q6.66992 5.43945 7.10938 5.43945ZM10.2539 5.43945L11.1426 5.43945Q11.582 5.43945 11.582 5.00977L11.582 4.11133Q11.582 3.67188 11.1426 3.67188L10.2539 3.67188Q9.81445 3.67188 9.81445 4.11133L9.81445 5.00977Q9.81445 5.43945 10.2539 5.43945ZM13.3887 5.43945L14.2871 5.43945Q14.7266 5.43945 14.7266 5.00977L14.7266 4.11133Q14.7266 3.67188 14.2871 3.67188L13.3887 3.67188Q12.959 3.67188 12.959 4.11133L12.959 5.00977Q12.959 5.43945 13.3887 5.43945ZM16.5332 5.43945L17.4316 5.43945Q17.8613 5.43945 17.8613 5.00977L17.8613 4.11133Q17.8613 3.67188 17.4316 3.67188L16.5332 3.67188Q16.0938 3.67188 16.0938 4.11133L16.0938 5.00977Q16.0938 5.43945 16.5332 5.43945ZM19.6777 5.43945L20.5664 5.43945Q21.0059 5.43945 21.0059 5.00977L21.0059 4.11133Q21.0059 3.67188 20.5664 3.67188L19.6777 3.67188Q19.2383 3.67188 19.2383 4.11133L19.2383 5.00977Q19.2383 5.43945 19.6777 5.43945ZM3.96484 8.58398L4.86328 8.58398Q5.30273 8.58398 5.30273 8.14453L5.30273 7.25586Q5.30273 6.81641 4.86328 6.81641L3.96484 6.81641Q3.53516 6.81641 3.53516 7.25586L3.53516 8.14453Q3.53516 8.58398 3.96484 8.58398ZM7.10938 8.58398L8.00781 8.58398Q8.4375 8.58398 8.4375 8.14453L8.4375 7.25586Q8.4375 6.81641 8.00781 6.81641L7.10938 6.81641Q6.66992 6.81641 6.66992 7.25586L6.66992 8.14453Q6.66992 8.58398 7.10938 8.58398ZM10.2539 8.58398L11.1426 8.58398Q11.582 8.58398 11.582 8.14453L11.582 7.25586Q11.582 6.81641 11.1426 6.81641L10.2539 6.81641Q9.81445 6.81641 9.81445 7.25586L9.81445 8.14453Q9.81445 8.58398 10.2539 8.58398ZM13.3887 8.58398L14.2871 8.58398Q14.7266 8.58398 14.7266 8.14453L14.7266 7.25586Q14.7266 6.81641 14.2871 6.81641L13.3887 6.81641Q12.959 6.81641 12.959 7.25586L12.959 8.14453Q12.959 8.58398 13.3887 8.58398ZM16.5332 8.58398L17.4316 8.58398Q17.8613 8.58398 17.8613 8.14453L17.8613 7.25586Q17.8613 6.81641 17.4316 6.81641L16.5332 6.81641Q16.0938 6.81641 16.0938 7.25586L16.0938 8.14453Q16.0938 8.58398 16.5332 8.58398ZM19.6777 8.58398L20.5664 8.58398Q21.0059 8.58398 21.0059 8.14453L21.0059 7.25586Q21.0059 6.81641 20.5664 6.81641L19.6777 6.81641Q19.2383 6.81641 19.2383 7.25586L19.2383 8.14453Q19.2383 8.58398 19.6777 8.58398ZM3.96484 11.7285L4.86328 11.7285Q5.30273 11.7285 5.30273 11.2891L5.30273 10.3906Q5.30273 9.96094 4.86328 9.96094L3.96484 9.96094Q3.53516 9.96094 3.53516 10.3906L3.53516 11.2891Q3.53516 11.7285 3.96484 11.7285ZM7.20703 11.7285L17.334 11.7285Q17.8613 11.7285 17.8613 11.1914L17.8613 10.4883Q17.8613 9.96094 17.334 9.96094L7.20703 9.96094Q6.66992 9.96094 6.66992 10.4883L6.66992 11.1914Q6.66992 11.7285 7.20703 11.7285ZM19.6777 11.7285L20.5664 11.7285Q21.0059 11.7285 21.0059 11.2891L21.0059 10.3906Q21.0059 9.96094 20.5664 9.96094L19.6777 9.96094Q19.2383 9.96094 19.2383 10.3906L19.2383 11.2891Q19.2383 11.7285 19.6777 11.7285Z" fill="#8389E6"/>
 </g>
</svg>
