<?xml version="1.0" encoding="UTF-8"?>
<!--Generator: Apple Native CoreSVG 175-->
<!DOCTYPE svg
PUBLIC "-//W3C//DTD SVG 1.1//EN"
       "http://www.w3.org/Graphics/SVG/1.1/DTD/svg11.dtd">
<svg version="1.1" xmlns="http://www.w3.org/2000/svg" xmlns:xlink="http://www.w3.org/1999/xlink" width="20.459" height="21.6504">
 <g>
  <rect height="21.6504" opacity="0" width="20.459" x="0" y="0"/>
  <path d="M4.0918 10.8105L10.293 10.8105Q10.5664 10.8105 10.7617 10.6104Q10.957 10.4102 10.957 10.1367Q10.957 9.85352 10.7617 9.6582Q10.5664 9.46289 10.293 9.46289L4.0918 9.46289Q3.79883 9.46289 3.6084 9.6582Q3.41797 9.85352 3.41797 10.1367Q3.41797 10.4102 3.6084 10.6104Q3.79883 10.8105 4.0918 10.8105ZM4.0918 13.3691L8.51562 13.3691Q8.79883 13.3691 8.99414 13.1787Q9.18945 12.9883 9.18945 12.7051Q9.18945 12.4219 8.99414 12.2266Q8.79883 12.0312 8.51562 12.0312L4.0918 12.0312Q3.79883 12.0312 3.6084 12.2266Q3.41797 12.4219 3.41797 12.7051Q3.41797 12.9883 3.6084 13.1787Q3.79883 13.3691 4.0918 13.3691ZM14.7363 13.6328Q15.3613 13.6328 15.8838 13.3252Q16.4062 13.0176 16.7139 12.4902Q17.0215 11.9629 17.0215 11.3281Q17.0215 10.6934 16.7139 10.1709Q16.4062 9.64844 15.8838 9.33594Q15.3613 9.02344 14.7363 9.02344Q14.0918 9.02344 13.5693 9.33594Q13.0469 9.64844 12.7344 10.1709Q12.4219 10.6934 12.4219 11.3281Q12.4219 11.9629 12.7344 12.4902Q13.0469 13.0176 13.5693 13.3252Q14.0918 13.6328 14.7363 13.6328ZM3.06641 21.6211L17.3926 21.6211Q18.916 21.6211 19.6875 20.8594Q20.459 20.0977 20.459 18.5938L20.459 8.56445Q20.459 7.06055 19.6875 6.29883Q18.916 5.53711 17.3926 5.53711L3.06641 5.53711Q1.5332 5.53711 0.766602 6.29395Q0 7.05078 0 8.56445L0 18.5938Q0 20.1074 0.766602 20.8643Q1.5332 21.6211 3.06641 21.6211ZM3.08594 20.0488Q2.35352 20.0488 1.96289 19.6582Q1.57227 19.2676 1.57227 18.5059L1.57227 8.65234Q1.57227 7.89062 1.96289 7.5Q2.35352 7.10938 3.08594 7.10938L17.3633 7.10938Q18.0859 7.10938 18.4863 7.5Q18.8867 7.89062 18.8867 8.65234L18.8867 18.5059Q18.8867 19.2676 18.4863 19.6582Q18.0859 20.0488 17.3633 20.0488ZM2.06055 3.96484L18.4082 3.96484Q18.291 3.30078 17.9443 2.94434Q17.5977 2.58789 16.8652 2.58789L3.60352 2.58789Q2.87109 2.58789 2.51953 2.94434Q2.16797 3.30078 2.06055 3.96484ZM4.07227 1.25977L16.3965 1.25977Q16.3477 0.634766 15.9912 0.317383Q15.6348 0 14.9609 0L5.49805 0Q4.82422 0 4.46777 0.317383Q4.11133 0.634766 4.07227 1.25977Z" fill="#8389E6"/>
 </g>
</svg>
