<?xml version="1.0" encoding="UTF-8"?>
<!--Generator: Apple Native CoreSVG 175-->
<!DOCTYPE svg
PUBLIC "-//W3C//DTD SVG 1.1//EN"
       "http://www.w3.org/Graphics/SVG/1.1/DTD/svg11.dtd">
<svg version="1.1" xmlns="http://www.w3.org/2000/svg" xmlns:xlink="http://www.w3.org/1999/xlink" width="23.0273" height="17.9785">
 <g>
  <rect height="17.9785" opacity="0" width="23.0273" x="0" y="0"/>
  <path d="M4.19922 7.54883Q3.91602 7.71484 3.87207 7.97852Q3.82812 8.24219 3.96484 8.4668Q4.10156 8.69141 4.35547 8.76465Q4.60938 8.83789 4.92188 8.64258L7.73438 6.88477Q8.01758 6.70898 8.10059 6.41602Q8.18359 6.12305 8.09082 5.83008Q7.99805 5.53711 7.73438 5.37109L4.92188 3.61328Q4.60938 3.41797 4.35059 3.49121Q4.0918 3.56445 3.95996 3.78906Q3.82812 4.01367 3.87207 4.27246Q3.91602 4.53125 4.19922 4.70703L6.55273 6.12305ZM8.32031 8.63281Q8.32031 8.88672 8.50098 9.07227Q8.68164 9.25781 8.94531 9.25781L12.666 9.25781Q12.9297 9.25781 13.1104 9.07227Q13.291 8.88672 13.291 8.63281Q13.291 8.36914 13.1104 8.18359Q12.9297 7.99805 12.666 7.99805L8.94531 7.99805Q8.68164 7.99805 8.50098 8.18359Q8.32031 8.36914 8.32031 8.63281ZM3.06641 17.9785L19.9609 17.9785Q21.5039 17.9785 22.2656 17.2217Q23.0273 16.4648 23.0273 14.9609L23.0273 3.02734Q23.0273 1.52344 22.2656 0.761719Q21.5039 0 19.9609 0L3.06641 0Q1.5332 0 0.766602 0.756836Q0 1.51367 0 3.02734L0 14.9609Q0 16.4648 0.766602 17.2217Q1.5332 17.9785 3.06641 17.9785ZM3.08594 16.4062Q2.35352 16.4062 1.96289 16.0205Q1.57227 15.6348 1.57227 14.873L1.57227 3.11523Q1.57227 2.35352 1.96289 1.96289Q2.35352 1.57227 3.08594 1.57227L19.9414 1.57227Q20.6641 1.57227 21.0596 1.96289Q21.4551 2.35352 21.4551 3.11523L21.4551 14.873Q21.4551 15.6348 21.0596 16.0205Q20.6641 16.4062 19.9414 16.4062Z" fill="#8389E6"/>
 </g>
</svg>
