<?xml version="1.0" encoding="UTF-8"?>
<!--Generator: Apple Native CoreSVG 175-->
<!DOCTYPE svg
PUBLIC "-//W3C//DTD SVG 1.1//EN"
       "http://www.w3.org/Graphics/SVG/1.1/DTD/svg11.dtd">
<svg version="1.1" xmlns="http://www.w3.org/2000/svg" xmlns:xlink="http://www.w3.org/1999/xlink" width="23.0273" height="17.9785">
 <g>
  <rect height="17.9785" opacity="0" width="23.0273" x="0" y="0"/>
  <path d="M4.0625 7.58789L6.48438 6.11328L4.0625 4.6582Q3.76953 4.48242 3.7207 4.20898Q3.67188 3.93555 3.81348 3.70605Q3.95508 3.47656 4.21875 3.39844Q4.48242 3.32031 4.81445 3.52539L7.70508 5.33203Q7.97852 5.50781 8.07617 5.81055Q8.17383 6.11328 8.08594 6.41602Q7.99805 6.71875 7.70508 6.9043L4.81445 8.7207Q4.48242 8.92578 4.21875 8.84766Q3.95508 8.76953 3.81348 8.53516Q3.67188 8.30078 3.7207 8.03223Q3.76953 7.76367 4.0625 7.58789ZM8.31055 8.70117Q8.31055 8.42773 8.49609 8.2373Q8.68164 8.04688 8.95508 8.04688L12.793 8.04688Q13.0664 8.04688 13.2568 8.2373Q13.4473 8.42773 13.4473 8.70117Q13.4473 8.97461 13.2568 9.16504Q13.0664 9.35547 12.793 9.35547L8.95508 9.35547Q8.68164 9.35547 8.49609 9.16504Q8.31055 8.97461 8.31055 8.70117ZM3.06641 17.9785L19.9609 17.9785Q21.5039 17.9785 22.2656 17.2217Q23.0273 16.4648 23.0273 14.9609L23.0273 3.02734Q23.0273 1.52344 22.2656 0.761719Q21.5039 0 19.9609 0L3.06641 0Q1.5332 0 0.766602 0.756836Q0 1.51367 0 3.02734L0 14.9609Q0 16.4648 0.766602 17.2217Q1.5332 17.9785 3.06641 17.9785Z" fill="#8389E6"/>
 </g>
</svg>
