<?xml version="1.0" encoding="UTF-8"?>
<!--Generator: Apple Native CoreSVG 175-->
<!DOCTYPE svg
PUBLIC "-//W3C//DTD SVG 1.1//EN"
       "http://www.w3.org/Graphics/SVG/1.1/DTD/svg11.dtd">
<svg version="1.1" xmlns="http://www.w3.org/2000/svg" xmlns:xlink="http://www.w3.org/1999/xlink" width="23.0273" height="17.998">
 <g>
  <rect height="17.998" opacity="0" width="23.0273" x="0" y="0"/>
  <path d="M18.4961 13.8086Q19.1113 13.8086 19.4824 13.4326Q19.8535 13.0566 19.8535 12.4414Q19.8535 11.8359 19.4824 11.4697Q19.1113 11.1035 18.4961 11.1035L18.0078 11.1035L18.0078 10.0684L18.4961 10.0684Q19.1113 10.0684 19.4824 9.70215Q19.8535 9.33594 19.8535 8.74023Q19.8535 8.125 19.4824 7.74902Q19.1113 7.37305 18.4961 7.37305Q17.8906 7.37305 17.5244 7.74902Q17.1582 8.125 17.1582 8.74023L17.1582 9.22852L16.1523 9.22852L16.1523 8.74023Q16.1523 8.125 15.7861 7.74902Q15.4199 7.37305 14.8145 7.37305Q14.1992 7.37305 13.8281 7.74902Q13.457 8.125 13.457 8.74023Q13.457 9.33594 13.8281 9.70215Q14.1992 10.0684 14.8145 10.0684L15.293 10.0684L15.293 11.1035L14.8145 11.1035Q14.1992 11.1035 13.8281 11.4697Q13.457 11.8359 13.457 12.4414Q13.457 13.0566 13.8281 13.4326Q14.1992 13.8086 14.8145 13.8086Q15.4199 13.8086 15.7861 13.4326Q16.1523 13.0566 16.1523 12.4414L16.1523 11.9629L17.1582 11.9629L17.1582 12.4414Q17.1582 13.0566 17.5244 13.4326Q17.8906 13.8086 18.4961 13.8086ZM18.0078 11.9434L18.4961 11.9434Q18.7305 11.9434 18.8672 12.0801Q19.0039 12.2168 19.0039 12.4414Q19.0039 12.6758 18.8672 12.8174Q18.7305 12.959 18.4961 12.959Q18.2812 12.959 18.1445 12.8174Q18.0078 12.6758 18.0078 12.4414ZM15.293 11.9434L15.293 12.4414Q15.293 12.6562 15.1562 12.8076Q15.0195 12.959 14.8145 12.959Q14.5801 12.959 14.4434 12.8174Q14.3066 12.6758 14.3066 12.4414Q14.3066 12.2168 14.4434 12.0801Q14.5801 11.9434 14.8145 11.9434ZM17.1582 11.123L16.1523 11.123L16.1523 10.0684L17.1582 10.0684ZM18.0078 9.22852L18.0078 8.74023Q18.0078 8.50586 18.1445 8.36426Q18.2812 8.22266 18.4961 8.22266Q18.7305 8.22266 18.8672 8.36426Q19.0039 8.50586 19.0039 8.74023Q19.0039 8.96484 18.8672 9.09668Q18.7305 9.22852 18.4961 9.22852ZM15.293 9.22852L14.8145 9.22852Q14.5801 9.22852 14.4434 9.09668Q14.3066 8.96484 14.3066 8.74023Q14.3066 8.50586 14.4434 8.36426Q14.5801 8.22266 14.8145 8.22266Q15.0293 8.22266 15.1611 8.36426Q15.293 8.50586 15.293 8.74023ZM3.79883 8.18359Q3.79883 8.42773 3.96973 8.59375Q4.14062 8.75977 4.375 8.75977L10.332 8.75977Q10.5664 8.75977 10.7324 8.59375Q10.8984 8.42773 10.8984 8.18359Q10.8984 7.93945 10.7324 7.76855Q10.5664 7.59766 10.332 7.59766L4.375 7.59766Q4.14062 7.59766 3.96973 7.76855Q3.79883 7.93945 3.79883 8.18359ZM3.79883 10.5957Q3.79883 10.8398 3.96973 11.0107Q4.14062 11.1816 4.375 11.1816L10.332 11.1816Q10.5664 11.1816 10.7324 11.0107Q10.8984 10.8398 10.8984 10.5957Q10.8984 10.3516 10.7324 10.1855Q10.5664 10.0195 10.332 10.0195L4.375 10.0195Q4.14062 10.0195 3.96973 10.1855Q3.79883 10.3516 3.79883 10.5957ZM3.79883 13.0176Q3.79883 13.252 3.96973 13.4229Q4.14062 13.5938 4.375 13.5938L10.332 13.5938Q10.5664 13.5938 10.7324 13.4229Q10.8984 13.252 10.8984 13.0176Q10.8984 12.7734 10.7324 12.6025Q10.5664 12.4316 10.332 12.4316L4.375 12.4316Q4.14062 12.4316 3.96973 12.6025Q3.79883 12.7734 3.79883 13.0176ZM0 14.9707Q0 16.4844 0.766602 17.2412Q1.5332 17.998 3.06641 17.998L19.9609 17.998Q21.5039 17.998 22.2656 17.2412Q23.0273 16.4844 23.0273 14.9707L23.0273 3.04688Q23.0273 1.5332 22.2656 0.776367Q21.5039 0.0195312 19.9609 0.0195312L3.06641 0.0195312Q1.5332 0.0195312 0.766602 0.776367Q0 1.5332 0 3.04688ZM3.0957 3.34961Q2.73438 3.34961 2.48047 3.08594Q2.22656 2.82227 2.22656 2.48047Q2.22656 2.13867 2.48047 1.875Q2.73438 1.61133 3.0957 1.61133Q3.45703 1.61133 3.71582 1.875Q3.97461 2.13867 3.97461 2.48047Q3.97461 2.82227 3.71582 3.08594Q3.45703 3.34961 3.0957 3.34961ZM5.89844 3.34961Q5.53711 3.34961 5.2832 3.09082Q5.0293 2.83203 5.0293 2.48047Q5.0293 2.13867 5.2832 1.875Q5.53711 1.61133 5.89844 1.61133Q6.25977 1.61133 6.51855 1.875Q6.77734 2.13867 6.77734 2.48047Q6.77734 2.83203 6.51855 3.09082Q6.25977 3.34961 5.89844 3.34961ZM8.70117 3.34961Q8.33984 3.34961 8.08594 3.09082Q7.83203 2.83203 7.83203 2.48047Q7.83203 2.13867 8.08594 1.875Q8.33984 1.61133 8.70117 1.61133Q9.0625 1.61133 9.31641 1.875Q9.57031 2.13867 9.57031 2.48047Q9.57031 2.83203 9.31641 3.09082Q9.0625 3.34961 8.70117 3.34961ZM1.57227 14.8926L1.57227 4.94141L21.4551 4.94141L21.4551 14.8926Q21.4551 15.6543 21.0596 16.04Q20.6641 16.4258 19.9414 16.4258L3.08594 16.4258Q2.35352 16.4258 1.96289 16.04Q1.57227 15.6543 1.57227 14.8926Z" fill="#8389E6"/>
 </g>
</svg>
