<?xml version="1.0" encoding="UTF-8"?>
<!--Generator: Apple Native CoreSVG 175-->
<!DOCTYPE svg
PUBLIC "-//W3C//DTD SVG 1.1//EN"
       "http://www.w3.org/Graphics/SVG/1.1/DTD/svg11.dtd">
<svg version="1.1" xmlns="http://www.w3.org/2000/svg" xmlns:xlink="http://www.w3.org/1999/xlink" width="19.9219" height="19.9316">
 <g>
  <rect height="19.9316" opacity="0" width="19.9219" x="0" y="0"/>
  <path d="M9.96094 19.9219Q12.002 19.9219 13.8037 19.1406Q15.6055 18.3594 16.9824 16.9824Q18.3594 15.6055 19.1406 13.8037Q19.9219 12.002 19.9219 9.96094Q19.9219 7.91992 19.1406 6.11816Q18.3594 4.31641 16.9824 2.93945Q15.6055 1.5625 13.7988 0.78125Q11.9922 0 9.95117 0Q7.91016 0 6.1084 0.78125Q4.30664 1.5625 2.93457 2.93945Q1.5625 4.31641 0.78125 6.11816Q0 7.91992 0 9.96094Q0 12.002 0.78125 13.8037Q1.5625 15.6055 2.93945 16.9824Q4.31641 18.3594 6.11816 19.1406Q7.91992 19.9219 9.96094 19.9219ZM9.96094 18.2617Q8.23242 18.2617 6.72852 17.6172Q5.22461 16.9727 4.08691 15.835Q2.94922 14.6973 2.30957 13.1934Q1.66992 11.6895 1.66992 9.96094Q1.66992 8.23242 2.30957 6.72852Q2.94922 5.22461 4.08203 4.08203Q5.21484 2.93945 6.71875 2.2998Q8.22266 1.66016 9.95117 1.66016Q11.6797 1.66016 13.1836 2.2998Q14.6875 2.93945 15.8301 4.08203Q16.9727 5.22461 17.6172 6.72852Q18.2617 8.23242 18.2617 9.96094Q18.2617 11.6895 17.6221 13.1934Q16.9824 14.6973 15.8447 15.835Q14.707 16.9727 13.1982 17.6172Q11.6895 18.2617 9.96094 18.2617ZM5 11.3867Q5.24414 11.3867 5.41504 11.2207Q5.58594 11.0547 5.58594 10.8105L5.58594 9.08203Q5.58594 8.83789 5.41504 8.67188Q5.24414 8.50586 5 8.50586Q4.75586 8.50586 4.58496 8.67188Q4.41406 8.83789 4.41406 9.08203L4.41406 10.8105Q4.41406 11.0547 4.58496 11.2207Q4.75586 11.3867 5 11.3867ZM6.98242 13.7402Q7.22656 13.7402 7.39746 13.5693Q7.56836 13.3984 7.56836 13.1543L7.56836 6.72852Q7.56836 6.48438 7.39746 6.31836Q7.22656 6.15234 6.98242 6.15234Q6.73828 6.15234 6.56738 6.31836Q6.39648 6.48438 6.39648 6.72852L6.39648 13.1543Q6.39648 13.3984 6.56738 13.5693Q6.73828 13.7402 6.98242 13.7402ZM8.96484 16.3477Q9.20898 16.3477 9.37988 16.1768Q9.55078 16.0059 9.55078 15.752L9.55078 4.15039Q9.55078 3.89648 9.37988 3.72559Q9.20898 3.55469 8.96484 3.55469Q8.71094 3.55469 8.54492 3.72559Q8.37891 3.89648 8.37891 4.15039L8.37891 15.752Q8.37891 16.0156 8.54492 16.1816Q8.71094 16.3477 8.96484 16.3477ZM10.9375 12.959Q11.1914 12.959 11.3623 12.793Q11.5332 12.627 11.5332 12.3828L11.5332 7.50977Q11.5332 7.26562 11.3623 7.09961Q11.1914 6.93359 10.9375 6.93359Q10.6934 6.93359 10.5273 7.09961Q10.3613 7.26562 10.3613 7.50977L10.3613 12.3828Q10.3613 12.627 10.5273 12.793Q10.6934 12.959 10.9375 12.959ZM12.9199 14.9707Q13.1641 14.9707 13.335 14.8047Q13.5059 14.6387 13.5059 14.3945L13.5059 5.49805Q13.5059 5.25391 13.335 5.08789Q13.1641 4.92188 12.9199 4.92188Q12.6758 4.92188 12.5049 5.08789Q12.334 5.25391 12.334 5.49805L12.334 14.3945Q12.334 14.6387 12.5049 14.8047Q12.6758 14.9707 12.9199 14.9707ZM14.9121 11.875Q15.1562 11.875 15.3223 11.7139Q15.4883 11.5527 15.4883 11.2988L15.4883 8.59375Q15.4883 8.33984 15.3223 8.17871Q15.1562 8.01758 14.9121 8.01758Q14.6582 8.01758 14.4873 8.18359Q14.3164 8.34961 14.3164 8.59375L14.3164 11.2988Q14.3164 11.543 14.4873 11.709Q14.6582 11.875 14.9121 11.875Z" fill="#8389E6"/>
 </g>
</svg>
