<?xml version="1.0" encoding="UTF-8"?>
<!--Generator: Apple Native CoreSVG 232.5-->
<!DOCTYPE svg
PUBLIC "-//W3C//DTD SVG 1.1//EN"
       "http://www.w3.org/Graphics/SVG/1.1/DTD/svg11.dtd">
<svg version="1.1" xmlns="http://www.w3.org/2000/svg" xmlns:xlink="http://www.w3.org/1999/xlink" width="15.7227" height="20.4004">
 <g>
  <rect height="20.4004" opacity="0" width="15.7227" x="0" y="0"/>
  <path d="M11.3965 4.66797C9.94141 4.66797 8.75 5.55664 7.98828 5.55664C7.17773 5.55664 6.12305 4.72656 4.85352 4.72656C2.44141 4.72656 0 6.71875 0 10.4688C0 12.8125 0.898438 15.2832 2.02148 16.875C2.97852 18.2227 3.81836 19.3262 5.0293 19.3262C6.2207 19.3262 6.74805 18.5352 8.23242 18.5352C9.73633 18.5352 10.0781 19.3066 11.3965 19.3066C12.7051 19.3066 13.5742 18.1055 14.4043 16.9238C15.3223 15.5664 15.7129 14.248 15.7227 14.1797C15.6445 14.1602 13.1445 13.1348 13.1445 10.2734C13.1445 7.79297 15.1074 6.67969 15.2246 6.5918C13.9258 4.72656 11.9434 4.66797 11.3965 4.66797ZM10.7129 3.08594C11.3086 2.36328 11.7285 1.37695 11.7285 0.380859C11.7285 0.244141 11.7188 0.107422 11.6992 0C10.7227 0.0390625 9.55078 0.644531 8.85742 1.46484C8.30078 2.08984 7.79297 3.08594 7.79297 4.08203C7.79297 4.23828 7.82227 4.38477 7.83203 4.43359C7.89062 4.44336 7.98828 4.46289 8.0957 4.46289C8.96484 4.46289 10.0586 3.87695 10.7129 3.08594Z" fill="#000000" fill-opacity="0.85"/>
 </g>
</svg>
