<?xml version="1.0" encoding="UTF-8"?>
<!--Generator: Apple Native CoreSVG 175-->
<!DOCTYPE svg
PUBLIC "-//W3C//DTD SVG 1.1//EN"
       "http://www.w3.org/Graphics/SVG/1.1/DTD/svg11.dtd">
<svg version="1.1" xmlns="http://www.w3.org/2000/svg" xmlns:xlink="http://www.w3.org/1999/xlink" width="19.9219" height="19.9316">
 <g>
  <rect height="19.9316" opacity="0" width="19.9219" x="0" y="0"/>
  <path d="M9.96094 19.9219Q12.002 19.9219 13.8037 19.1406Q15.6055 18.3594 16.9824 16.9824Q18.3594 15.6055 19.1406 13.8037Q19.9219 12.002 19.9219 9.96094Q19.9219 7.91992 19.1406 6.11816Q18.3594 4.31641 16.9824 2.93945Q15.6055 1.5625 13.7988 0.78125Q11.9922 0 9.95117 0Q7.91016 0 6.1084 0.78125Q4.30664 1.5625 2.93457 2.93945Q1.5625 4.31641 0.78125 6.11816Q0 7.91992 0 9.96094Q0 12.002 0.78125 13.8037Q1.5625 15.6055 2.93945 16.9824Q4.31641 18.3594 6.11816 19.1406Q7.91992 19.9219 9.96094 19.9219ZM9.96094 18.2617Q8.23242 18.2617 6.72852 17.6172Q5.22461 16.9727 4.08691 15.835Q2.94922 14.6973 2.30957 13.1934Q1.66992 11.6895 1.66992 9.96094Q1.66992 8.23242 2.30957 6.72852Q2.94922 5.22461 4.08203 4.08203Q5.21484 2.93945 6.71875 2.2998Q8.22266 1.66016 9.95117 1.66016Q11.6797 1.66016 13.1836 2.2998Q14.6875 2.93945 15.8301 4.08203Q16.9727 5.22461 17.6172 6.72852Q18.2617 8.23242 18.2617 9.96094Q18.2617 11.6895 17.6221 13.1934Q16.9824 14.6973 15.8447 15.835Q14.707 16.9727 13.1982 17.6172Q11.6895 18.2617 9.96094 18.2617ZM9.9707 4.98047Q9.64844 4.98047 9.44336 5.18555Q9.23828 5.39062 9.23828 5.71289L9.23828 10.5957L9.30664 12.6562L8.33008 11.4844L7.16797 10.3125Q6.95312 10.0977 6.65039 10.0977Q6.34766 10.0977 6.14746 10.3027Q5.94727 10.5078 5.94727 10.8008Q5.94727 11.123 6.14258 11.3086L9.4043 14.5605Q9.67773 14.834 9.9707 14.834Q10.2637 14.834 10.5371 14.5605L13.7988 11.3086Q13.9941 11.1133 13.9941 10.8008Q13.9941 10.5078 13.7891 10.3027Q13.584 10.0977 13.2812 10.0977Q12.959 10.0977 12.7637 10.3125L11.6113 11.4844L10.625 12.666L10.6934 10.5957L10.6934 5.71289Q10.6934 5.39062 10.4883 5.18555Q10.2832 4.98047 9.9707 4.98047Z" fill="#ffffff"/>
 </g>
</svg>
