<?xml version="1.0" encoding="UTF-8" standalone="no"?>
<!DOCTYPE svg PUBLIC "-//W3C//DTD SVG 1.1//EN" "http://www.w3.org/Graphics/SVG/1.1/DTD/svg11.dtd">
<svg width="1280" height="640" preserveAspectRatio="none" viewBox="0 0 1280 640" version="1.1" xmlns="http://www.w3.org/2000/svg" xmlns:xlink="http://www.w3.org/1999/xlink" xml:space="preserve" xmlns:serif="http://www.serif.com/" style="fill-rule:evenodd;clip-rule:evenodd;stroke-linejoin:round;stroke-miterlimit:2;">
    <g>
        <rect x="0" y="0" width="1280" height="640" style="fill:rgb(119,209,185);"/>
        <path d="M0,503.45C93.604,489.591 118.047,358.7 198.075,308.21C279.21,257.022 409.842,291.322 462.907,211.402C514.845,133.179 457.648,29.057 445.219,-64.013C432.647,-158.158 454.3,-268.055 389.594,-337.586C324.99,-407.007 215.902,-412.246 121.071,-412.331C41.963,-412.402 -20.953,-349.302 -99.253,-338.024C-197.422,-323.884 -314.811,-402.381 -390.77,-338.605C-463.611,-277.447 -435.619,-156.447 -428.474,-61.605C-422.461,18.211 -384.996,87.843 -353.114,161.262C-320.562,236.225 -298.424,316.159 -239.734,373.033C-173.055,437.649 -91.85,517.05 0,503.45" style="fill:rgb(56,165,136);fill-rule:nonzero;"/>
        <path d="M1280,1023.2C1355.04,1017.35 1427.11,1006.24 1496.25,976.496C1576.51,941.967 1680.73,918.869 1712.05,837.311C1743.59,755.192 1676.39,669.852 1645.67,587.425C1621.27,521.953 1594.22,460.077 1551,405.178C1505.94,347.948 1456.58,294.205 1390.58,263.406C1317.43,229.274 1237.41,213.473 1157.08,221.37C1065.13,230.409 962.43,242.59 900.938,311.541C839.322,380.631 857.467,485.82 840.137,576.757C821.823,672.856 755.26,772.096 796.241,860.926C837.226,949.766 948.174,980.882 1040.93,1012C1118.13,1037.89 1198.82,1029.53 1280,1023.2" style="fill:rgb(182,224,213);fill-rule:nonzero;"/>
    </g>
</svg>
