<svg xmlns="http://www.w3.org/2000/svg" version="1.1" xmlns:xlink="http://www.w3.org/1999/xlink" xmlns:svgjs="http://svgjs.com/svgjs" width="1280" height="640" preserveAspectRatio="none" viewBox="0 0 1280 640">
    <g mask="url(&quot;#SvgjsMask1047&quot;)" fill="none">
        <rect width="1280" height="640" x="0" y="0" fill="rgba(131, 137, 230, 1)"></rect>
        <path d="M0,503.45C93.604,489.591,118.047,358.7,198.075,308.21C279.21,257.022,409.842,291.322,462.907,211.402C514.845,133.179,457.648,29.057,445.219,-64.013C432.647,-158.158,454.3,-268.055,389.594,-337.586C324.99,-407.007,215.902,-412.246,121.071,-412.331C41.963,-412.402,-20.953,-349.302,-99.253,-338.024C-197.422,-323.884,-314.811,-402.381,-390.77,-338.605C-463.611,-277.447,-435.619,-156.447,-428.474,-61.605C-422.461,18.211,-384.996,87.843,-353.114,161.262C-320.562,236.225,-298.424,316.159,-239.734,373.033C-173.055,437.649,-91.85,517.05,0,503.45" fill="#4750da"></path>
        <path d="M1280 1023.1990000000001C1355.0430000000001 1017.348 1427.1100000000001 1006.244 1496.253 976.496 1576.5059999999999 941.967 1680.73 918.869 1712.051 837.311 1743.588 755.192 1676.3899999999999 669.852 1645.67 587.425 1621.269 521.953 1594.22 460.077 1550.999 405.178 1505.943 347.948 1456.584 294.205 1390.578 263.406 1317.43 229.274 1237.411 213.473 1157.079 221.37 1065.134 230.409 962.4300000000001 242.58999999999997 900.938 311.541 839.322 380.631 857.467 485.82 840.137 576.757 821.823 672.856 755.26 772.096 796.241 860.9259999999999 837.226 949.7660000000001 948.174 980.8820000000001 1040.932 1011.9970000000001 1118.13 1037.893 1198.82 1029.529 1280 1023.1990000000001" fill="#bfc2f2"></path>
    </g>
    <defs>
        <mask id="SvgjsMask1047">
            <rect width="1280" height="640" fill="#ffffff"></rect>
        </mask>
    </defs>
</svg>