<?xml version="1.0" encoding="UTF-8"?>
<!--Generator: Apple Native CoreSVG 232.5-->
<!DOCTYPE svg
PUBLIC "-//W3C//DTD SVG 1.1//EN"
       "http://www.w3.org/Graphics/SVG/1.1/DTD/svg11.dtd">
<svg version="1.1" xmlns="http://www.w3.org/2000/svg" xmlns:xlink="http://www.w3.org/1999/xlink" width="28.9062" height="13.2129">
 <g>
  <rect height="13.2129" opacity="0" width="28.9062" x="0" y="0"/>
  <path d="M5.20508 13.2129L20.5566 13.2129C22.2266 13.2129 23.6328 13.0566 24.6289 12.0605C25.625 11.0645 25.7715 9.67773 25.7715 8.00781L25.7715 5.20508C25.7715 3.53516 25.625 2.14844 24.6289 1.15234C23.6328 0.15625 22.2266 0 20.5566 0L5.18555 0C3.54492 0 2.13867 0.15625 1.14258 1.15234C0.146484 2.14844 0 3.54492 0 5.17578L0 8.00781C0 9.67773 0.146484 11.0645 1.14258 12.0605C2.13867 13.0566 3.54492 13.2129 5.20508 13.2129ZM4.94141 11.6406C3.93555 11.6406 2.88086 11.5039 2.28516 10.918C1.69922 10.3223 1.57227 9.27734 1.57227 8.27148L1.57227 4.96094C1.57227 3.93555 1.69922 2.89062 2.28516 2.29492C2.88086 1.69922 3.94531 1.57227 4.9707 1.57227L20.8301 1.57227C21.8359 1.57227 22.8906 1.70898 23.4766 2.29492C24.0723 2.89062 24.1992 3.92578 24.1992 4.93164L24.1992 8.27148C24.1992 9.27734 24.0723 10.3223 23.4766 10.918C22.8906 11.5039 21.8359 11.6406 20.8301 11.6406ZM27.0996 9.13086C27.8711 9.08203 28.9062 8.0957 28.9062 6.60156C28.9062 5.11719 27.8711 4.13086 27.0996 4.08203Z" fill="#000000" fill-opacity="0.85"/>
  <path d="M4.42383 10.5078L21.3477 10.5078C22.0215 10.5078 22.4121 10.4102 22.6855 10.1367C22.9492 9.86328 23.0566 9.47266 23.0566 8.79883L23.0566 4.41406C23.0566 3.74023 22.9492 3.34961 22.6855 3.07617C22.4121 2.80273 22.0117 2.70508 21.3477 2.70508L4.45312 2.70508C3.75 2.70508 3.34961 2.80273 3.08594 3.07617C2.8125 3.34961 2.71484 3.75 2.71484 4.43359L2.71484 8.79883C2.71484 9.47266 2.8125 9.86328 3.08594 10.1367C3.35938 10.4102 3.75977 10.5078 4.42383 10.5078Z" fill="#000000" fill-opacity="0.85"/>
 </g>
</svg>
