<?xml version="1.0" encoding="UTF-8"?>
<!--Generator: Apple Native CoreSVG 232.5-->
<!DOCTYPE svg
PUBLIC "-//W3C//DTD SVG 1.1//EN"
       "http://www.w3.org/Graphics/SVG/1.1/DTD/svg11.dtd">
<svg version="1.1" xmlns="http://www.w3.org/2000/svg" xmlns:xlink="http://www.w3.org/1999/xlink" width="9.55078" height="16.9629">
 <g>
  <rect height="16.9629" opacity="0" width="9.55078" x="0" y="0"/>
  <path d="M9.55078 8.47656C9.55078 8.23242 9.45312 8.00781 9.26758 7.83203L1.5332 0.253906C1.35742 0.0878906 1.14258 0 0.888672 0C0.390625 0 0 0.380859 0 0.888672C0 1.13281 0.0976562 1.35742 0.253906 1.52344L7.36328 8.47656L0.253906 15.4297C0.0976562 15.5957 0 15.8105 0 16.0645C0 16.5723 0.390625 16.9531 0.888672 16.9531C1.14258 16.9531 1.35742 16.8652 1.5332 16.6895L9.26758 9.12109C9.45312 8.93555 9.55078 8.7207 9.55078 8.47656Z" fill="#000000" fill-opacity="0.85"/>
 </g>
</svg>
