<?xml version="1.0" encoding="UTF-8"?>
<!--Generator: Apple Native CoreSVG 232.5-->
<!DOCTYPE svg
PUBLIC "-//W3C//DTD SVG 1.1//EN"
       "http://www.w3.org/Graphics/SVG/1.1/DTD/svg11.dtd">
<svg version="1.1" xmlns="http://www.w3.org/2000/svg" xmlns:xlink="http://www.w3.org/1999/xlink" width="19.8828" height="20.7129">
 <g>
  <rect height="20.7129" opacity="0" width="19.8828" x="0" y="0"/>
  <path d="M0 10.6934C0 13.6328 0.849609 16.875 2.28516 19.3945C2.5293 19.8145 2.98828 19.9316 3.42773 19.6875C3.83789 19.4629 3.95508 19.0039 3.70117 18.5449C2.39258 16.1621 1.66016 13.3203 1.66016 10.6934C1.66016 5.27344 4.9707 1.66016 9.94141 1.66016C14.9023 1.66016 18.2227 5.27344 18.2227 10.6934C18.2227 13.3203 17.4805 16.1621 16.1719 18.5449C15.918 19.0039 16.0352 19.4629 16.4453 19.6875C16.8848 19.9316 17.3535 19.8145 17.5879 19.3945C19.0234 16.875 19.8828 13.6328 19.8828 10.6934C19.8828 4.26758 15.918 0 9.94141 0C3.95508 0 0 4.26758 0 10.6934ZM3.05664 19.1504C3.37891 20.2734 4.33594 20.791 5.46875 20.4688C6.5918 20.1465 7.11914 19.1699 6.78711 18.0469L5.39062 13.2812C5.06836 12.168 4.11133 11.6406 2.97852 11.9629C1.85547 12.2949 1.32812 13.2617 1.66016 14.3945ZM16.8164 19.1504L18.2129 14.3945C18.5449 13.252 18.0273 12.2949 16.8945 11.9629C15.7617 11.6406 14.8145 12.168 14.4824 13.2812L13.0859 18.0469C12.7539 19.1797 13.2812 20.1465 14.4043 20.4688C15.5469 20.791 16.4941 20.2734 16.8164 19.1504Z" fill="#000000" fill-opacity="0.85"/>
 </g>
</svg>
