<?xml version="1.0" encoding="UTF-8"?>
<!--Generator: Apple Native CoreSVG 232.5-->
<!DOCTYPE svg
PUBLIC "-//W3C//DTD SVG 1.1//EN"
       "http://www.w3.org/Graphics/SVG/1.1/DTD/svg11.dtd">
<svg version="1.1" xmlns="http://www.w3.org/2000/svg" xmlns:xlink="http://www.w3.org/1999/xlink" width="24.3364" height="13.0762">
 <g>
  <rect height="13.0762" opacity="0" width="24.3364" x="0" y="0"/>
  <path d="M0.283636 5.85938C-0.0679267 6.25977-0.116755 6.82617 0.27387 7.20703L3.28168 10.2246C3.67231 10.6152 4.26801 10.5957 4.6391 10.2148L6.14301 8.71094L8.35004 10.9082C8.72114 11.2891 9.31684 11.2793 9.6977 10.8984L11.7582 8.85742C13.0375 11.543 15.2348 13.0566 17.8227 13.0566C21.436 13.0566 24.3364 10.1465 24.3364 6.5332C24.3364 2.91016 21.4457 0 17.8227 0C15.2153 0 12.8813 1.50391 11.8461 3.87695L2.61762 3.87695C2.29535 3.87695 1.92426 3.97461 1.68012 4.26758ZM1.81684 6.5332L2.90082 5.45898L12.9692 5.45898C13.4965 3.1543 15.4692 1.5625 17.8227 1.5625C20.5571 1.5625 22.7641 3.7793 22.7641 6.5332C22.7641 9.27734 20.5668 11.4844 17.8227 11.4844C15.4985 11.4844 13.4965 9.88281 12.9106 7.43164L10.9282 7.43164L9.0141 9.3457L6.96332 7.27539L5.352 7.27539L3.97504 8.66211ZM18.1157 6.5332C18.1157 7.41211 18.8286 8.125 19.7075 8.125C20.5864 8.125 21.2895 7.41211 21.2895 6.5332C21.2895 5.64453 20.5864 4.95117 19.7075 4.95117C18.8286 4.95117 18.1157 5.6543 18.1157 6.5332Z" fill="#000000" fill-opacity="0.85"/>
 </g>
</svg>
