<?xml version="1.0" encoding="UTF-8"?>
<!--Generator: Apple Native CoreSVG 232.5-->
<!DOCTYPE svg
PUBLIC "-//W3C//DTD SVG 1.1//EN"
       "http://www.w3.org/Graphics/SVG/1.1/DTD/svg11.dtd">
<svg version="1.1" xmlns="http://www.w3.org/2000/svg" xmlns:xlink="http://www.w3.org/1999/xlink" width="24.5801" height="15.4395">
 <g>
  <rect height="15.4395" opacity="0" width="24.5801" x="0" y="0"/>
  <path d="M3.06641 15.4297L21.5137 15.4297C23.5449 15.4297 24.5801 14.4141 24.5801 12.4023L24.5801 3.01758C24.5801 1.01562 23.5449 0 21.5137 0L3.06641 0C1.01562 0 0 1.00586 0 3.01758L0 12.4023C0 14.4141 1.01562 15.4297 3.06641 15.4297ZM3.70117 5.37109C3.42773 5.37109 3.26172 5.19531 3.26172 4.92188L3.26172 3.99414C3.26172 3.7207 3.42773 3.54492 3.70117 3.54492L4.62891 3.54492C4.91211 3.54492 5.08789 3.7207 5.08789 3.99414L5.08789 4.92188C5.08789 5.19531 4.91211 5.37109 4.62891 5.37109ZM6.94336 5.37109C6.66016 5.37109 6.49414 5.19531 6.49414 4.92188L6.49414 3.99414C6.49414 3.7207 6.66016 3.54492 6.94336 3.54492L7.87109 3.54492C8.14453 3.54492 8.32031 3.7207 8.32031 3.99414L8.32031 4.92188C8.32031 5.19531 8.14453 5.37109 7.87109 5.37109ZM10.1855 5.37109C9.91211 5.37109 9.73633 5.19531 9.73633 4.92188L9.73633 3.99414C9.73633 3.7207 9.91211 3.54492 10.1855 3.54492L11.1035 3.54492C11.3867 3.54492 11.5625 3.7207 11.5625 3.99414L11.5625 4.92188C11.5625 5.19531 11.3867 5.37109 11.1035 5.37109ZM13.4277 5.37109C13.1543 5.37109 12.9785 5.19531 12.9785 4.92188L12.9785 3.99414C12.9785 3.7207 13.1543 3.54492 13.4277 3.54492L14.3555 3.54492C14.6289 3.54492 14.8047 3.7207 14.8047 3.99414L14.8047 4.92188C14.8047 5.19531 14.6289 5.37109 14.3555 5.37109ZM16.6699 5.37109C16.3867 5.37109 16.2109 5.19531 16.2109 4.92188L16.2109 3.99414C16.2109 3.7207 16.3867 3.54492 16.6699 3.54492L17.5977 3.54492C17.8711 3.54492 18.0371 3.7207 18.0371 3.99414L18.0371 4.92188C18.0371 5.19531 17.8711 5.37109 17.5977 5.37109ZM19.9121 5.37109C19.6289 5.37109 19.4531 5.19531 19.4531 4.92188L19.4531 3.99414C19.4531 3.7207 19.6289 3.54492 19.9121 3.54492L20.8301 3.54492C21.1133 3.54492 21.2793 3.7207 21.2793 3.99414L21.2793 4.92188C21.2793 5.19531 21.1133 5.37109 20.8301 5.37109ZM3.70117 8.61328C3.42773 8.61328 3.26172 8.4375 3.26172 8.16406L3.26172 7.23633C3.26172 6.96289 3.42773 6.78711 3.70117 6.78711L4.62891 6.78711C4.91211 6.78711 5.08789 6.96289 5.08789 7.23633L5.08789 8.16406C5.08789 8.4375 4.91211 8.61328 4.62891 8.61328ZM6.94336 8.61328C6.66016 8.61328 6.49414 8.4375 6.49414 8.16406L6.49414 7.23633C6.49414 6.96289 6.66016 6.78711 6.94336 6.78711L7.87109 6.78711C8.14453 6.78711 8.32031 6.96289 8.32031 7.23633L8.32031 8.16406C8.32031 8.4375 8.14453 8.61328 7.87109 8.61328ZM10.1855 8.61328C9.91211 8.61328 9.73633 8.4375 9.73633 8.16406L9.73633 7.23633C9.73633 6.96289 9.91211 6.78711 10.1855 6.78711L11.1035 6.78711C11.3867 6.78711 11.5625 6.96289 11.5625 7.23633L11.5625 8.16406C11.5625 8.4375 11.3867 8.61328 11.1035 8.61328ZM13.4277 8.61328C13.1543 8.61328 12.9785 8.4375 12.9785 8.16406L12.9785 7.23633C12.9785 6.96289 13.1543 6.78711 13.4277 6.78711L14.3555 6.78711C14.6289 6.78711 14.8047 6.96289 14.8047 7.23633L14.8047 8.16406C14.8047 8.4375 14.6289 8.61328 14.3555 8.61328ZM16.6699 8.61328C16.3867 8.61328 16.2109 8.4375 16.2109 8.16406L16.2109 7.23633C16.2109 6.96289 16.3867 6.78711 16.6699 6.78711L17.5977 6.78711C17.8711 6.78711 18.0371 6.96289 18.0371 7.23633L18.0371 8.16406C18.0371 8.4375 17.8711 8.61328 17.5977 8.61328ZM19.9121 8.61328C19.6289 8.61328 19.4531 8.4375 19.4531 8.16406L19.4531 7.23633C19.4531 6.96289 19.6289 6.78711 19.9121 6.78711L20.8301 6.78711C21.1133 6.78711 21.2793 6.96289 21.2793 7.23633L21.2793 8.16406C21.2793 8.4375 21.1133 8.61328 20.8301 8.61328ZM3.70117 11.8555C3.42773 11.8555 3.26172 11.6797 3.26172 11.4062L3.26172 10.4785C3.26172 10.2051 3.42773 10.0293 3.70117 10.0293L4.62891 10.0293C4.91211 10.0293 5.08789 10.2051 5.08789 10.4785L5.08789 11.4062C5.08789 11.6797 4.91211 11.8555 4.62891 11.8555ZM7.05078 11.8555C6.69922 11.8555 6.49414 11.6504 6.49414 11.2988L6.49414 10.5762C6.49414 10.2344 6.69922 10.0293 7.05078 10.0293L17.4902 10.0293C17.832 10.0293 18.0371 10.2344 18.0371 10.5762L18.0371 11.2988C18.0371 11.6504 17.832 11.8555 17.4902 11.8555ZM19.9121 11.8555C19.6289 11.8555 19.4531 11.6797 19.4531 11.4062L19.4531 10.4785C19.4531 10.2051 19.6289 10.0293 19.9121 10.0293L20.8301 10.0293C21.1133 10.0293 21.2793 10.2051 21.2793 10.4785L21.2793 11.4062C21.2793 11.6797 21.1133 11.8555 20.8301 11.8555Z" fill="#000000" fill-opacity="0.85"/>
 </g>
</svg>
