<?xml version="1.0" encoding="UTF-8"?>
<!--Generator: Apple Native CoreSVG 232.5-->
<!DOCTYPE svg
PUBLIC "-//W3C//DTD SVG 1.1//EN"
       "http://www.w3.org/Graphics/SVG/1.1/DTD/svg11.dtd">
<svg version="1.1" xmlns="http://www.w3.org/2000/svg" xmlns:xlink="http://www.w3.org/1999/xlink" width="28.1641" height="15.9082">
 <g>
  <rect height="15.9082" opacity="0" width="28.1641" x="0" y="0"/>
  <path d="M4.81445 13.6816L4.81445 2.5293C4.81445 1.9043 5.12695 1.5918 5.75195 1.5918L22.4121 1.5918C23.0371 1.5918 23.3496 1.9043 23.3496 2.5293L23.3496 13.6816Z" fill="#000000" fill-opacity="0.2125"/>
  <path d="M11.1328 1.5918L11.377 1.5918C11.5234 1.5918 11.6016 1.66016 11.6016 1.82617L11.6016 1.93359C11.6016 2.34375 11.875 2.61719 12.2852 2.61719L15.8984 2.61719C16.2988 2.61719 16.5527 2.34375 16.5527 1.93359L16.5527 1.82617C16.5527 1.66016 16.6309 1.5918 16.7969 1.5918L17.041 1.5918L17.041 0.78125L11.1328 0.78125ZM0 14.7949C0 15.4102 0.498047 15.9082 1.10352 15.9082L27.0605 15.9082C27.666 15.9082 28.1641 15.4102 28.1641 14.7949C28.1641 14.1797 27.666 13.6816 27.0605 13.6816L24.9219 13.6816L24.9219 2.08984C24.9219 0.722656 24.1895 0.0195312 22.832 0.0195312L5.33203 0.0195312C4.04297 0.0195312 3.24219 0.722656 3.24219 2.08984L3.24219 13.6816L1.10352 13.6816C0.498047 13.6816 0 14.1797 0 14.7949ZM4.81445 13.6816L4.81445 2.5293C4.81445 1.9043 5.12695 1.5918 5.75195 1.5918L22.4121 1.5918C23.0371 1.5918 23.3496 1.9043 23.3496 2.5293L23.3496 13.6816Z" fill="#000000" fill-opacity="0.85"/>
 </g>
</svg>
