<?xml version="1.0" encoding="UTF-8"?>
<!--Generator: Apple Native CoreSVG 232.5-->
<!DOCTYPE svg
PUBLIC "-//W3C//DTD SVG 1.1//EN"
       "http://www.w3.org/Graphics/SVG/1.1/DTD/svg11.dtd">
<svg version="1.1" xmlns="http://www.w3.org/2000/svg" xmlns:xlink="http://www.w3.org/1999/xlink" width="19.4629" height="17.998">
 <g>
  <rect height="17.998" opacity="0" width="19.4629" x="0" y="0"/>
  <path d="M3.06641 17.998L16.4062 17.998C18.4473 17.998 19.4629 16.9824 19.4629 14.9707L19.4629 3.04688C19.4629 1.03516 18.4473 0.0195312 16.4062 0.0195312L3.06641 0.0195312C1.02539 0.0195312 0 1.02539 0 3.04688L0 14.9707C0 16.9922 1.02539 17.998 3.06641 17.998ZM2.91992 16.4258C2.05078 16.4258 1.57227 15.9668 1.57227 15.0586L1.57227 5.84961C1.57227 4.95117 2.05078 4.48242 2.91992 4.48242L16.5332 4.48242C17.4023 4.48242 17.8906 4.95117 17.8906 5.84961L17.8906 15.0586C17.8906 15.9668 17.4023 16.4258 16.5332 16.4258Z" fill="#000000" fill-opacity="0.85"/>
  <path d="M4.61914 8.11523L14.873 8.11523C15.2148 8.11523 15.4785 7.8418 15.4785 7.5C15.4785 7.16797 15.2148 6.91406 14.873 6.91406L4.61914 6.91406C4.25781 6.91406 4.00391 7.16797 4.00391 7.5C4.00391 7.8418 4.25781 8.11523 4.61914 8.11523ZM4.61914 11.0547L14.873 11.0547C15.2148 11.0547 15.4785 10.8008 15.4785 10.4688C15.4785 10.1172 15.2148 9.85352 14.873 9.85352L4.61914 9.85352C4.25781 9.85352 4.00391 10.1172 4.00391 10.4688C4.00391 10.8008 4.25781 11.0547 4.61914 11.0547ZM4.61914 13.9941L11.1328 13.9941C11.4746 13.9941 11.7383 13.7402 11.7383 13.4082C11.7383 13.0664 11.4746 12.793 11.1328 12.793L4.61914 12.793C4.25781 12.793 4.00391 13.0664 4.00391 13.4082C4.00391 13.7402 4.25781 13.9941 4.61914 13.9941Z" fill="#000000" fill-opacity="0.85"/>
 </g>
</svg>
