<?xml version="1.0" encoding="UTF-8"?>
<!--Generator: Apple Native CoreSVG 232.5-->
<!DOCTYPE svg
PUBLIC "-//W3C//DTD SVG 1.1//EN"
       "http://www.w3.org/Graphics/SVG/1.1/DTD/svg11.dtd">
<svg version="1.1" xmlns="http://www.w3.org/2000/svg" xmlns:xlink="http://www.w3.org/1999/xlink" width="19.9219" height="19.9316">
 <g>
  <rect height="19.9316" opacity="0" width="19.9219" x="0" y="0"/>
  <path d="M9.96094 19.9219C15.4102 19.9219 19.9219 15.4004 19.9219 9.96094C19.9219 4.51172 15.4004 0 9.95117 0C4.51172 0 0 4.51172 0 9.96094C0 15.4004 4.52148 19.9219 9.96094 19.9219ZM9.96094 18.2617C5.35156 18.2617 1.66992 14.5703 1.66992 9.96094C1.66992 5.35156 5.3418 1.66016 9.95117 1.66016C14.5605 1.66016 18.2617 5.35156 18.2617 9.96094C18.2617 14.5703 14.5703 18.2617 9.96094 18.2617Z" fill="#000000" fill-opacity="0.85"/>
  <path d="M5.48828 14.9121L14.4141 14.9121C14.8047 14.9121 14.9902 14.6484 14.9902 14.2969C14.9902 13.2227 13.3789 10.4492 9.95117 10.4492C6.52344 10.4492 4.91211 13.2227 4.91211 14.2969C4.91211 14.6484 5.09766 14.9121 5.48828 14.9121ZM9.95117 9.6582C11.3379 9.66797 12.4609 8.47656 12.4609 6.91406C12.4609 5.44922 11.3379 4.23828 9.95117 4.23828C8.56445 4.23828 7.44141 5.44922 7.44141 6.91406C7.44141 8.47656 8.56445 9.64844 9.95117 9.6582Z" fill="#000000" fill-opacity="0.85"/>
 </g>
</svg>
