<?xml version="1.0" encoding="UTF-8"?>
<!--Generator: Apple Native CoreSVG 232.5-->
<!DOCTYPE svg
PUBLIC "-//W3C//DTD SVG 1.1//EN"
       "http://www.w3.org/Graphics/SVG/1.1/DTD/svg11.dtd">
<svg version="1.1" xmlns="http://www.w3.org/2000/svg" xmlns:xlink="http://www.w3.org/1999/xlink" width="26.2109" height="18.8748">
 <g>
  <rect height="18.8748" opacity="0" width="26.2109" x="0" y="0"/>
  <path d="M22.4023 18.7294C22.7344 18.9735 23.2129 18.8759 23.4766 18.4852C25.1855 16.0145 26.2109 12.8798 26.2109 9.4325C26.2109 5.97547 25.1562 2.86023 23.4766 0.379764C23.2129-0.020627 22.7344-0.108518 22.4023 0.135623C22.0312 0.389529 21.9824 0.848514 22.2461 1.2489C23.7598 3.48523 24.7168 6.29773 24.7168 9.4325C24.7168 12.5575 23.7598 15.3895 22.2461 17.6161C21.9824 18.0165 22.0312 18.4755 22.4023 18.7294Z" fill="#000000" fill-opacity="0.85"/>
  <path d="M18.7402 16.1415C19.1016 16.3856 19.5508 16.2977 19.8145 15.9266C21.0645 14.2079 21.7969 11.8446 21.7969 9.4325C21.7969 7.02039 21.0742 4.63758 19.8145 2.93836C19.5508 2.56726 19.1016 2.47937 18.7402 2.72351C18.3789 2.96765 18.3203 3.42664 18.6035 3.82703C19.668 5.33094 20.2832 7.35242 20.2832 9.4325C20.2832 11.5126 19.6484 13.5145 18.6035 15.038C18.3301 15.4384 18.3789 15.8973 18.7402 16.1415Z" fill="#000000" fill-opacity="0.85"/>
  <path d="M15.1172 13.5927C15.4395 13.8173 15.8984 13.7489 16.1621 13.368C16.9141 12.3817 17.3633 10.9266 17.3633 9.4325C17.3633 7.93836 16.9141 6.49304 16.1621 5.49695C15.8984 5.11609 15.4395 5.03797 15.1172 5.27234C14.7168 5.54578 14.6582 6.03406 14.9609 6.43445C15.5273 7.2157 15.8496 8.29969 15.8496 9.4325C15.8496 10.5653 15.5176 11.6395 14.9609 12.4305C14.668 12.8407 14.7168 13.3095 15.1172 13.5927Z" fill="#000000" fill-opacity="0.85"/>
  <path d="M10.5273 18.0555C11.1719 18.0555 11.6309 17.5966 11.6309 16.9618L11.6309 1.98133C11.6309 1.34656 11.1719 0.828982 10.5078 0.828982C10.0488 0.828982 9.73633 1.02429 9.24805 1.50281L5.07812 5.40906C5.01953 5.46765 4.93164 5.49695 4.83398 5.49695L2.04102 5.49695C0.712891 5.49695 0 6.22937 0 7.63562L0 11.2684C0 12.6845 0.712891 13.4071 2.04102 13.4071L4.83398 13.4071C4.93164 13.4071 5.01953 13.4364 5.07812 13.495L9.24805 17.4403C9.6875 17.87 10.0684 18.0555 10.5273 18.0555Z" fill="#000000" fill-opacity="0.85"/>
 </g>
</svg>
