<?xml version="1.0" encoding="UTF-8"?>
<!--Generator: Apple Native CoreSVG 232.5-->
<!DOCTYPE svg
PUBLIC "-//W3C//DTD SVG 1.1//EN"
       "http://www.w3.org/Graphics/SVG/1.1/DTD/svg11.dtd">
<svg version="1.1" xmlns="http://www.w3.org/2000/svg" xmlns:xlink="http://www.w3.org/1999/xlink" width="21.2573" height="19.6191">
 <g>
  <rect height="19.6191" opacity="0" width="21.2573" x="0" y="0"/>
  <path d="M19.4531 19.2578C19.8633 19.6777 20.5664 19.6777 20.957 19.2578C21.3574 18.8281 21.3574 18.1641 20.957 17.7539L11.6699 8.4375C11.2598 8.02734 10.5566 8.02734 10.166 8.4375C9.75586 8.86719 9.76562 9.54102 10.166 9.95117ZM13.7695 12.5488L10.9082 9.67773C10.7324 9.50195 10.6738 9.30664 10.8496 9.14062C10.9961 8.98438 11.2012 9.02344 11.3867 9.20898L14.2578 12.0801Z" fill="#000000" fill-opacity="0.85"/>
  <path d="M7.41211 19.4141C7.58789 19.4141 7.71484 19.2871 7.74414 19.1016C8.05664 16.4941 8.18359 16.4258 10.8398 15.9961C11.0449 15.957 11.1719 15.8594 11.1719 15.6641C11.1719 15.4785 11.0449 15.3613 10.8789 15.332C8.20312 14.8242 8.05664 14.834 7.74414 12.2266C7.71484 12.041 7.58789 11.9141 7.41211 11.9141C7.22656 11.9141 7.09961 12.041 7.08008 12.2168C6.73828 14.8633 6.65039 14.9512 3.94531 15.332C3.7793 15.3516 3.65234 15.4785 3.65234 15.6641C3.65234 15.8496 3.7793 15.957 3.94531 15.9961C6.65039 16.5137 6.72852 16.5137 7.08008 19.1211C7.09961 19.2871 7.22656 19.4141 7.41211 19.4141ZM2.77344 10.9082C2.91016 10.9082 2.98828 10.8105 3.01758 10.6836C3.34961 8.82812 3.35938 8.71094 5.32227 8.37891C5.44922 8.34961 5.54688 8.27148 5.54688 8.13477C5.54688 7.99805 5.44922 7.91016 5.32227 7.89062C3.35938 7.54883 3.34961 7.43164 3.01758 5.57617C2.98828 5.44922 2.91016 5.36133 2.77344 5.36133C2.63672 5.36133 2.55859 5.44922 2.5293 5.57617C2.19727 7.43164 2.1875 7.54883 0.224609 7.89062C0.0976562 7.91016 0 7.99805 0 8.13477C0 8.27148 0.0976562 8.34961 0.224609 8.37891C2.1875 8.71094 2.19727 8.82812 2.5293 10.6836C2.55859 10.8105 2.63672 10.9082 2.77344 10.9082ZM8.125 4.6582C8.24219 4.6582 8.30078 4.58984 8.32031 4.48242C8.65234 2.91992 8.63281 2.86133 10.2734 2.5293C10.3809 2.50977 10.459 2.44141 10.459 2.33398C10.459 2.2168 10.3809 2.14844 10.2734 2.12891C8.63281 1.79688 8.65234 1.73828 8.32031 0.185547C8.30078 0.078125 8.24219 0 8.125 0C8.00781 0 7.94922 0.078125 7.92969 0.185547C7.59766 1.73828 7.61719 1.79688 5.97656 2.12891C5.86914 2.14844 5.79102 2.2168 5.79102 2.33398C5.79102 2.44141 5.86914 2.50977 5.97656 2.5293C7.61719 2.86133 7.59766 2.91992 7.92969 4.48242C7.94922 4.58984 8.00781 4.6582 8.125 4.6582ZM16.1914 8.10547C16.3281 8.10547 16.4062 8.01758 16.4355 7.89062C16.7676 6.03516 16.7773 5.91797 18.7402 5.57617C18.877 5.55664 18.9648 5.46875 18.9648 5.33203C18.9648 5.19531 18.877 5.11719 18.7402 5.08789C16.7773 4.75586 16.7676 4.63867 16.4355 2.7832C16.4062 2.65625 16.3281 2.55859 16.1914 2.55859C16.0547 2.55859 15.9766 2.65625 15.9473 2.7832C15.6152 4.63867 15.6055 4.75586 13.6426 5.08789C13.5156 5.11719 13.418 5.19531 13.418 5.33203C13.418 5.46875 13.5156 5.55664 13.6426 5.57617C15.6055 5.91797 15.6152 6.03516 15.9473 7.89062C15.9766 8.01758 16.0547 8.10547 16.1914 8.10547Z" fill="#000000" fill-opacity="0.85"/>
 </g>
</svg>
