<?xml version="1.0" encoding="UTF-8"?>
<!--Generator: Apple Native CoreSVG 232.5-->
<!DOCTYPE svg
PUBLIC "-//W3C//DTD SVG 1.1//EN"
       "http://www.w3.org/Graphics/SVG/1.1/DTD/svg11.dtd">
<svg version="1.1" xmlns="http://www.w3.org/2000/svg" xmlns:xlink="http://www.w3.org/1999/xlink" width="22.487" height="16.2402">
 <g>
  <rect height="16.2402" opacity="0" width="22.487" x="0" y="0"/>
  <path d="M1.4761 6.8457C1.67141 7.03125 1.94485 7.03125 2.13039 6.83594C4.53274 4.28711 7.6968 2.93945 11.2417 2.93945C14.8062 2.93945 17.9898 4.29688 20.3726 6.8457C20.5484 7.02148 20.812 7.01172 21.0073 6.82617L22.355 5.47852C22.5308 5.30273 22.521 5.08789 22.3843 4.92188C20.0894 2.08984 15.773 0.00976562 11.2417 0.00976562C6.72024 0.00976562 2.3843 2.08984 0.0991432 4.92188C-0.0375756 5.08789-0.0375756 5.30273 0.12844 5.47852Z" fill="#000000" fill-opacity="0.85"/>
  <path d="M5.52883 10.9277C5.74367 11.1328 6.00735 11.1035 6.20266 10.8887C7.37453 9.58984 9.2886 8.64258 11.2417 8.65234C13.2144 8.64258 15.1284 9.61914 16.3198 10.918C16.4956 11.123 16.7398 11.1133 16.9546 10.918L18.4683 9.41406C18.6245 9.25781 18.6441 9.04297 18.4976 8.86719C17.023 7.06055 14.2886 5.70312 11.2417 5.70312C8.19485 5.70312 5.46047 7.06055 3.98586 8.86719C3.83938 9.04297 3.84914 9.23828 4.01516 9.41406Z" fill="#000000" fill-opacity="0.85"/>
  <path d="M11.2417 16.2402C11.4566 16.2402 11.6421 16.1426 12.023 15.7715L14.4058 13.4863C14.5523 13.3398 14.5913 13.125 14.4546 12.9492C13.8198 12.1289 12.6187 11.416 11.2417 11.416C9.82571 11.416 8.62453 12.1582 7.98977 13.0078C7.89211 13.1641 7.93117 13.3398 8.08742 13.4863L10.4605 15.7715C10.8413 16.1328 11.0269 16.2402 11.2417 16.2402Z" fill="#000000" fill-opacity="0.85"/>
 </g>
</svg>
