<?xml version="1.0" encoding="UTF-8"?>
<!--Generator: Apple Native CoreSVG 232.5-->
<!DOCTYPE svg
PUBLIC "-//W3C//DTD SVG 1.1//EN"
       "http://www.w3.org/Graphics/SVG/1.1/DTD/svg11.dtd">
<svg version="1.1" xmlns="http://www.w3.org/2000/svg" xmlns:xlink="http://www.w3.org/1999/xlink" width="28.3183" height="20.166">
 <g>
  <rect height="20.166" opacity="0" width="28.3183" x="0" y="0"/>
  <path d="M14.1631 14.4043C16.087 14.4043 18.3331 14.9805 20.003 15.8594C20.4522 16.0938 20.9503 16.0059 21.2432 15.625L27.8936 7.14844C28.5479 6.30859 28.4405 5.41992 27.6104 4.77539C24.8858 2.66602 19.6612 1.03516 14.1631 1.03516C8.66509 1.03516 3.44049 2.66602 0.70611 4.77539C-0.123968 5.41992-0.23139 6.30859 0.432673 7.14844L7.08306 15.625C7.37603 16.0059 7.86431 16.0938 8.31353 15.8594C9.98345 14.9805 12.2393 14.4043 14.1631 14.4043ZM14.1631 12.832C12.376 12.832 10.3155 13.3008 8.3233 14.1113C8.07916 14.209 7.97174 14.1895 7.77642 13.9453L1.99517 6.5918C1.80963 6.33789 1.83892 6.11328 2.10259 5.92773C5.46197 3.80859 9.76861 2.60742 14.1631 2.60742C18.5577 2.60742 22.8643 3.80859 26.2237 5.92773C26.4874 6.11328 26.5167 6.33789 26.3213 6.5918L20.5499 13.9453C20.3545 14.1895 20.2471 14.209 20.003 14.1113C18.0108 13.3008 15.9405 12.832 14.1631 12.832Z" fill="#000000" fill-opacity="0.85"/>
  <path d="M14.1631 20.166C15.3545 20.166 16.3604 19.1699 16.3604 17.9688C16.3604 16.748 15.3643 15.7617 14.1631 15.7617C12.9522 15.7617 11.9659 16.748 11.9659 17.9688C11.9659 19.1797 12.9424 20.166 14.1631 20.166ZM14.1631 18.8672C13.6553 18.8672 13.2549 18.457 13.2549 17.9688C13.2549 17.4609 13.6553 17.041 14.1631 17.041C14.6514 17.041 15.0811 17.4609 15.0811 17.9688C15.0811 18.457 14.6514 18.8672 14.1631 18.8672ZM12.7178 17.041L14.1143 16.2988L4.91509 0.488281C4.71002 0.126953 4.2608-0.0195312 3.82134 0.205078C3.42095 0.400391 3.33306 0.908203 3.54791 1.2793Z" fill="#000000" fill-opacity="0.85"/>
 </g>
</svg>
