<?xml version="1.0" encoding="utf-8"?>
<!-- Generator: Adobe Illustrator 16.0.3, SVG Export Plug-In . SVG Version: 6.00 Build 0)  -->
<!DOCTYPE svg PUBLIC "-//W3C//DTD SVG 1.0//EN" "http://www.w3.org/TR/2001/REC-SVG-20010904/DTD/svg10.dtd">
<svg version="1.0" id="Layer_1" xmlns="http://www.w3.org/2000/svg" xmlns:xlink="http://www.w3.org/1999/xlink" x="0px" y="0px"
	 width="600px" height="600px" viewBox="0 0 600 600" enable-background="new 0 0 600 600" xml:space="preserve">
<g>
	<g>
		<path d="M245.414,447.68h-23.263l-5.047,16.06h-14.224l22.987-66.209h16.288l23.033,66.209h-14.729L245.414,447.68z
			 M225.134,437.311h17.298l-8.488-27.117h-0.321L225.134,437.311z"/>
		<path d="M271.112,397.53h13.398v66.209h-13.398V397.53z"/>
		<path d="M338.424,448.689c-1.468,9.59-10.369,15.922-22.437,15.922c-15.05,0-24.227-9.59-24.227-25.236
			c0-15.691,9.223-25.694,23.722-25.694c14.27,0,23.354,9.498,23.354,24.456v4.083H304.93v0.826c0,6.929,4.542,11.654,11.287,11.654
			c4.817,0,8.672-2.294,9.91-6.011H338.424z M305.067,434.007h20.876c-0.274-6.286-4.404-10.415-10.323-10.415
			C309.793,423.592,305.525,427.858,305.067,434.007z"/>
		<path d="M345.724,414.553h12.938v8.855h0.275c1.697-6.103,5.919-9.452,11.7-9.452c1.56,0,2.845,0.184,3.809,0.505v11.792
			c-1.102-0.459-2.937-0.78-4.864-0.78c-6.606,0-10.461,4.038-10.461,10.966v27.301h-13.397V414.553z"/>
		<path d="M396.885,403.22v11.333h9.085v10.094h-9.085v23.492c0,3.763,1.835,5.598,5.781,5.598c1.192,0,2.432-0.092,3.258-0.229
			v9.864c-1.377,0.275-3.671,0.551-6.378,0.551c-11.562,0-16.06-3.9-16.06-13.489v-25.787h-6.928v-10.094h6.928V403.22H396.885z"/>
	</g>
	<g>
		<path d="M158.737,557.65c0.643,5.461,6.332,9.039,13.674,9.039c7.387,0,12.435-3.532,12.435-8.396
			c0-4.312-3.166-6.699-11.15-8.488l-8.626-1.881c-12.205-2.615-18.216-8.81-18.216-18.491c0-12.205,10.554-20.28,25.328-20.28
			c15.417,0,25.098,7.938,25.327,19.913h-12.984c-0.459-5.598-5.369-8.993-12.297-8.993c-6.837,0-11.425,3.258-11.425,8.167
			c0,4.084,3.212,6.378,10.828,8.122l8.029,1.697c13.261,2.845,19.042,8.534,19.042,18.629c0,12.847-10.416,20.969-26.842,20.969
			c-15.922,0-26.062-7.571-26.475-20.006H158.737z"/>
		<path d="M204.257,551.869c0-15.737,9.498-25.419,24.364-25.419s24.364,9.636,24.364,25.419c0,16.014-9.36,25.512-24.364,25.512
			S204.257,567.837,204.257,551.869z M239.357,551.915c0-9.589-4.037-15.232-10.736-15.232s-10.783,5.689-10.783,15.232
			c0,9.682,4.038,15.233,10.783,15.233C235.32,567.148,239.357,561.597,239.357,551.915z"/>
		<path d="M305.295,576.509h-12.939v-8.947h-0.274c-2.479,6.194-7.296,9.682-14.729,9.682c-10.646,0-17.711-6.929-17.711-18.399
			v-31.521h13.397v28.723c0,6.562,3.258,10.049,9.177,10.049c5.965,0,9.682-4.268,9.682-10.783v-27.988h13.397V576.509z"/>
		<path d="M314.017,527.322h12.938v8.855h0.275c2.799-6.286,7.8-9.59,15.371-9.59c10.92,0,17.068,6.883,17.068,18.399v31.521
			h-13.397v-28.723c0-6.424-2.982-10.095-9.085-10.095c-6.057,0-9.773,4.405-9.773,10.828v27.989h-13.397V527.322z"/>
		<path d="M366.372,551.823c0-15.416,7.892-25.098,20.143-25.098c7.112,0,12.572,3.579,15.004,9.039h0.275V510.3h13.397v66.209
			h-13.214v-8.442h-0.229c-2.386,5.414-8.075,9.039-15.325,9.039C374.218,577.105,366.372,567.378,366.372,551.823z
			 M380.091,551.915c0,8.855,4.222,14.407,10.875,14.407c6.652,0,10.92-5.598,10.92-14.407c0-8.764-4.268-14.407-10.92-14.407
			C384.312,537.508,380.091,543.105,380.091,551.915z"/>
		<path d="M444.056,526.45c12.297,0,20.418,6.194,20.556,15.692h-12.343c-0.229-3.854-3.441-6.286-8.396-6.286
			c-4.589,0-7.663,2.064-7.663,5.185c0,2.386,2.111,3.992,6.424,5.001l9.406,2.02c9.865,2.202,13.856,6.057,13.856,13.352
			c0,9.636-8.901,15.968-21.886,15.968c-13.123,0-21.244-6.286-21.933-15.83h13.077c0.597,4.084,3.899,6.424,9.223,6.424
			c5.047,0,8.167-1.973,8.167-5.139c0-2.432-1.652-3.763-6.057-4.818l-9.085-2.019c-9.314-2.11-14.086-6.929-14.086-14.132
			C423.316,532.553,431.438,526.45,444.056,526.45z"/>
	</g>
	<path fill="#808285" d="M306.661,326.421c-0.171-1.11-17.079-111.53-16.662-149.355c0.38-34.435,16.494-136.131,16.657-137.154
		c0.396-2.489-0.807-4.96-3.009-6.186c-2.203-1.226-4.936-1.104-6.842,0.546L197.505,120H104.16c-1.697,0-3.314,0.877-4.452,2.136
		c-1.137,1.259-1.689,3.02-1.518,4.708c0.039,0.385,3.897,38.625,3.969,51.15c0.085,14.755-3.936,59.721-3.976,60.173
		c-0.15,1.678,0.411,3.49,1.548,4.733c1.137,1.244,2.744,2.1,4.428,2.1h91.896l100.749,87.009c1.116,0.965,2.516,1.394,3.927,1.394
		c0.994,0,1.993-0.281,2.902-0.784C305.835,331.401,307.043,328.906,306.661,326.421"/>
	<path fill="#939598" d="M346.41,123.688c11.896,18.126,17.842,38.908,17.843,59.701c-0.001,20.794-5.946,41.575-17.843,59.702
		c-1.818,2.771-1.047,6.49,1.724,8.309c2.77,1.818,6.489,1.046,8.308-1.724c13.206-20.118,19.812-43.208,19.812-66.287
		c0.001-23.077-6.605-46.168-19.812-66.286c-1.818-2.77-5.538-3.542-8.308-1.724C345.363,117.198,344.592,120.918,346.41,123.688
		L346.41,123.688 M388.396,82.156c22.188,30.104,33.275,65.658,33.277,101.233c-0.002,35.575-11.089,71.129-33.277,101.233
		c-1.966,2.667-1.397,6.424,1.271,8.39c2.667,1.966,6.423,1.397,8.39-1.27c23.741-32.209,35.619-70.291,35.617-108.353
		c0.002-38.062-11.876-76.145-35.617-108.354c-1.967-2.667-5.723-3.236-8.39-1.27C386.998,75.732,386.43,79.489,388.396,82.156
		 M426.813,44.087c32.688,40.691,49.023,89.983,49.026,139.303c-0.003,49.32-16.338,98.612-49.026,139.303
		c-2.075,2.583-1.663,6.36,0.92,8.436s6.36,1.663,8.436-0.92c34.442-42.87,51.673-94.858,51.671-146.818
		c0.002-51.96-17.229-103.948-51.671-146.818c-2.075-2.583-5.853-2.995-8.436-0.92C425.15,37.727,424.738,41.503,426.813,44.087"/>
	
		<linearGradient id="SVGID_1_" gradientUnits="userSpaceOnUse" x1="0" y1="0" x2="1" y2="0" gradientTransform="matrix(-36.3571 296.1049 296.1049 36.3571 227.375 24)">
		<stop  offset="0" style="stop-color:#C0C1C2"/>
		<stop  offset="0.0098" style="stop-color:#BEBFC0"/>
		<stop  offset="0.2181" style="stop-color:#97989A"/>
		<stop  offset="0.4245" style="stop-color:#797A7D"/>
		<stop  offset="0.626" style="stop-color:#636468"/>
		<stop  offset="0.8205" style="stop-color:#56575B"/>
		<stop  offset="1" style="stop-color:#525357"/>
	</linearGradient>
	<path fill="url(#SVGID_1_)" d="M300.535,32.906c-1.344,0-2.666,0.445-3.73,1.366L197.505,120H104.16
		c-1.697,0-3.314,0.877-4.452,2.136c-1,1.106-1.547,2.601-1.548,4.092c0,0.206,0.01,0.411,0.031,0.615
		c0.039,0.385,3.897,38.625,3.969,51.15c0.001,0.159,0.001,0.32,0.001,0.486c-0.002,15.23-3.938,59.24-3.978,59.688
		c-0.016,0.177-0.024,0.355-0.024,0.535c-0.001,1.519,0.555,3.086,1.572,4.198c1.137,1.244,2.744,2.1,4.428,2.1h91.896
		l100.749,87.009c1.116,0.965,2.516,1.394,3.927,1.394c0.994,0,1.993-0.281,2.902-0.784c1.931-1.067,3.097-3.117,3.098-5.282
		c0-0.304-0.023-0.609-0.07-0.915c-0.169-1.097-16.668-108.85-16.669-147.938c0-0.483,0.003-0.956,0.008-1.417
		c0.38-34.435,16.494-136.131,16.657-137.154c0.05-0.316,0.074-0.632,0.074-0.945c0-2.152-1.16-4.171-3.083-5.241
		C302.675,33.185,301.598,32.906,300.535,32.906"/>
	
		<linearGradient id="SVGID_2_" gradientUnits="userSpaceOnUse" x1="0" y1="0.1172" x2="1" y2="0.1172" gradientTransform="matrix(-36.0719 293.782 293.782 36.0719 431.875 34.25)">
		<stop  offset="0" style="stop-color:#BEBFC1"/>
		<stop  offset="0.2036" style="stop-color:#B8B9BB"/>
		<stop  offset="0.4791" style="stop-color:#A7A8AA"/>
		<stop  offset="0.7945" style="stop-color:#8A8B8F"/>
		<stop  offset="1" style="stop-color:#747579"/>
	</linearGradient>
	<path fill="url(#SVGID_2_)" d="M431.487,34.329c-1.318,0-2.646,0.433-3.754,1.322c-1.474,1.184-2.24,2.921-2.242,4.674
		c-0.002,1.321,0.431,2.651,1.322,3.761c32.688,40.691,49.023,89.983,49.026,139.303l0,0l0,0
		c-0.003,49.32-16.338,98.612-49.026,139.303c-0.892,1.11-1.324,2.44-1.322,3.762c0.002,1.753,0.769,3.49,2.242,4.674
		c1.107,0.89,2.436,1.322,3.754,1.322c1.756,0,3.496-0.767,4.682-2.242c34.442-42.87,51.673-94.858,51.671-146.818
		c0.002-51.96-17.229-103.948-51.671-146.818C434.983,35.096,433.243,34.329,431.487,34.329"/>
	
		<linearGradient id="SVGID_3_" gradientUnits="userSpaceOnUse" x1="0" y1="-0.0303" x2="1" y2="-0.0303" gradientTransform="matrix(-36.0719 293.782 293.782 36.0719 431.875 34.25)">
		<stop  offset="0" style="stop-color:#BEBFC1"/>
		<stop  offset="0.2036" style="stop-color:#B8B9BB"/>
		<stop  offset="0.4791" style="stop-color:#A7A8AA"/>
		<stop  offset="0.7945" style="stop-color:#8A8B8F"/>
		<stop  offset="1" style="stop-color:#747579"/>
	</linearGradient>
	<path fill="url(#SVGID_3_)" d="M393.221,72.596c-1.236,0-2.483,0.381-3.555,1.171c-1.595,1.175-2.439,2.989-2.44,4.829
		c-0.002,1.238,0.379,2.488,1.17,3.561c22.188,30.104,33.275,65.658,33.277,101.233l0,0l0,0
		c-0.002,35.575-11.089,71.129-33.277,101.233c-0.791,1.073-1.172,2.323-1.17,3.561c0.001,1.839,0.846,3.654,2.44,4.829
		c1.071,0.79,2.318,1.17,3.555,1.17c1.842,0,3.658-0.845,4.835-2.44c23.741-32.209,35.619-70.291,35.617-108.353
		c0.002-38.062-11.876-76.145-35.617-108.354C396.879,73.44,395.062,72.596,393.221,72.596"/>
	
		<linearGradient id="SVGID_4_" gradientUnits="userSpaceOnUse" x1="0" y1="-0.1885" x2="1" y2="-0.1885" gradientTransform="matrix(-36.0719 293.782 293.782 36.0719 431.875 34.25)">
		<stop  offset="0" style="stop-color:#BEBFC1"/>
		<stop  offset="0.2036" style="stop-color:#B8B9BB"/>
		<stop  offset="0.4791" style="stop-color:#A7A8AA"/>
		<stop  offset="0.7945" style="stop-color:#8A8B8F"/>
		<stop  offset="1" style="stop-color:#747579"/>
	</linearGradient>
	<path fill="url(#SVGID_4_)" d="M351.42,114.396c-1.13,0-2.271,0.318-3.286,0.984c-1.753,1.151-2.706,3.063-2.709,5.014
		c-0.001,1.132,0.317,2.277,0.985,3.294l0,0l0,0l0,0c11.896,18.126,17.842,38.908,17.843,59.701l0,0l0,0
		c-0.001,20.794-5.946,41.575-17.843,59.702c-0.668,1.017-0.986,2.163-0.985,3.294c0.003,1.951,0.956,3.863,2.709,5.014
		c1.015,0.666,2.157,0.984,3.286,0.984c1.954,0,3.87-0.953,5.021-2.708c13.206-20.118,19.812-43.208,19.812-66.287
		c0.001-23.077-6.605-46.168-19.812-66.286C355.29,115.349,353.374,114.396,351.42,114.396"/>
</g>
<g>
</g>
<g>
</g>
<g>
</g>
<g>
</g>
<g>
</g>
<g>
</g>
</svg>
