<?xml version="1.0" encoding="utf-8"?>
<!-- Generator: Adobe Illustrator 16.0.3, SVG Export Plug-In . SVG Version: 6.00 Build 0)  -->
<!DOCTYPE svg PUBLIC "-//W3C//DTD SVG 1.0//EN" "http://www.w3.org/TR/2001/REC-SVG-20010904/DTD/svg10.dtd">
<svg version="1.0" id="Layer_1" xmlns="http://www.w3.org/2000/svg" xmlns:xlink="http://www.w3.org/1999/xlink" x="0px" y="0px"
	 width="600px" height="600px" viewBox="0 0 600 600" enable-background="new 0 0 600 600" xml:space="preserve">
<g>
	<path fill="#0A67ED" d="M156.983,233.899c-22.274-4.445-33.537-17.12-30.327-33.206c4.085-20.473,22.646-30.02,49.925-24.576
		l25.276,5.044l15.889-35.279l-19.021-3.796c-22.274-4.445-33.454-17.537-30.244-33.623c4.085-20.473,22.688-30.229,49.966-24.785
		l25.276,5.044L263.91,44.96c8.799-19.314,24.481-26.178,47.506-21.583c21.273,4.246,31.242,16.879,28.158,32.338
		c-0.584,2.925-2.002,7.421-3.379,10.404l-17.139,37.636l47.802,9.539l19.934-43.812c8.799-19.315,24.481-26.178,47.505-21.583
		c21.273,4.246,31.243,16.879,28.158,32.339c-0.584,2.925-2.002,7.42-3.378,10.404l-17.139,37.636l19.771,3.945
		c22.274,4.445,33.538,17.12,30.328,33.205c-4.086,20.474-22.646,30.021-49.926,24.577l-26.027-5.194l-15.888,35.278l19.52,3.896
		c22.274,4.445,33.454,17.537,30.244,33.624c-4.085,20.473-22.688,30.229-49.967,24.785l-25.527-5.094l-21.977,47.531
		c-8.799,19.315-24.481,26.179-47.506,21.583c-21.272-4.245-31.243-16.879-28.158-32.338c0.583-2.925,2.002-7.421,3.378-10.404
		l19.182-41.355l-48.052-9.589l-21.725,47.582c-8.799,19.315-24.481,26.178-47.507,21.583
		c-21.272-4.245-31.242-16.879-28.157-32.338c0.583-2.925,2.001-7.421,3.377-10.404l18.932-41.405L156.983,233.899z
		 M328.203,213.108l22.936-48.426l-61.567-12.286l-22.435,48.526L328.203,213.108z"/>
</g>
<g>
	<path d="M158.438,463.739v-54.784h-19.133V397.53h52.169v11.425h-19.179v54.784H158.438z"/>
	<path d="M186.108,449.562c0-8.947,6.883-14.04,19.5-14.774l12.159-0.734v-3.212c0-4.634-3.212-7.157-8.442-7.157
		c-4.634,0-7.938,2.432-8.535,5.965h-12.205c0.367-9.498,8.855-15.968,21.335-15.968c12.664,0,21.015,6.516,21.015,16.334v33.725
		h-12.939v-7.524h-0.275c-2.707,5.139-8.764,8.259-15.004,8.259C193.267,464.474,186.108,458.371,186.108,449.562z M217.768,445.707
		v-3.533l-10.14,0.643c-5.323,0.367-8.167,2.523-8.167,6.011c0,3.579,3.028,5.919,7.663,5.919
		C213.042,454.746,217.768,450.983,217.768,445.707z"/>
	<path d="M239.29,467.227h13.123c1.056,3.396,4.91,5.735,10.002,5.735c6.929,0,10.783-3.854,10.783-9.544v-8.626h-0.275
		c-2.294,5.23-8.075,8.626-15.187,8.626c-11.976,0-19.959-9.269-19.959-24.456c0-15.416,7.754-25.006,20.189-25.006
		c7.066,0,12.618,3.579,15.187,9.039h0.229v-8.442h13.214v48.498c0,11.746-9.819,19.226-24.547,19.226
		C249.109,482.276,240.346,475.99,239.29,467.227z M273.244,439.054c0-8.672-4.267-14.315-10.966-14.315
		c-6.607,0-10.783,5.552-10.783,14.315c0,8.81,4.129,14.041,10.783,14.041C268.977,453.095,273.244,447.771,273.244,439.054z"/>
	<path d="M295.042,467.227h13.123c1.056,3.396,4.91,5.735,10.002,5.735c6.93,0,10.783-3.854,10.783-9.544v-8.626h-0.275
		c-2.294,5.23-8.075,8.626-15.188,8.626c-11.975,0-19.959-9.269-19.959-24.456c0-15.416,7.754-25.006,20.188-25.006
		c7.066,0,12.618,3.579,15.188,9.039h0.229v-8.442h13.215v48.498c0,11.746-9.819,19.226-24.548,19.226
		C304.861,482.276,296.097,475.99,295.042,467.227z M328.995,439.054c0-8.672-4.267-14.315-10.966-14.315
		c-6.607,0-10.783,5.552-10.783,14.315c0,8.81,4.13,14.041,10.783,14.041C324.729,453.095,328.995,447.771,328.995,439.054z"/>
	<path d="M395.941,448.689c-1.468,9.59-10.369,15.922-22.437,15.922c-15.05,0-24.227-9.59-24.227-25.236
		c0-15.691,9.223-25.694,23.722-25.694c14.27,0,23.354,9.498,23.354,24.456v4.083h-33.907v0.826c0,6.929,4.542,11.654,11.287,11.654
		c4.817,0,8.672-2.294,9.91-6.011H395.941z M362.585,434.007h20.876c-0.274-6.286-4.404-10.415-10.323-10.415
		C367.311,423.592,363.043,427.858,362.585,434.007z"/>
	<path d="M401.45,439.054c0-15.416,7.892-25.098,20.143-25.098c7.112,0,12.572,3.579,15.004,9.039h0.275V397.53h13.397v66.209
		h-13.214v-8.442h-0.229c-2.386,5.414-8.075,9.039-15.325,9.039C409.296,464.336,401.45,454.608,401.45,439.054z M415.169,439.146
		c0,8.855,4.222,14.407,10.875,14.407c6.652,0,10.92-5.598,10.92-14.407c0-8.764-4.268-14.407-10.92-14.407
		C419.391,424.738,415.169,430.336,415.169,439.146z"/>
	<path d="M161.627,500.3c13.582,0,22.941,9.038,22.941,22.666c0,13.581-9.681,22.666-23.63,22.666H148.55v20.877h-13.857V500.3
		H161.627z M148.55,534.804h9.36c7.938,0,12.572-4.222,12.572-11.792c0-7.525-4.588-11.746-12.526-11.746h-9.406V534.804z"/>
	<path d="M191.592,517.322h12.939v8.855h0.275c1.698-6.103,5.919-9.452,11.7-9.452c1.56,0,2.845,0.184,3.808,0.505v11.792
		c-1.101-0.459-2.937-0.78-4.863-0.78c-6.607,0-10.461,4.038-10.461,10.966v27.301h-13.398V517.322z"/>
	<path d="M222.381,541.869c0-15.737,9.498-25.419,24.364-25.419s24.364,9.636,24.364,25.419c0,16.014-9.36,25.512-24.364,25.512
		C231.742,567.381,222.381,557.837,222.381,541.869z M257.482,541.915c0-9.589-4.038-15.232-10.736-15.232
		c-6.699,0-10.783,5.689-10.783,15.232c0,9.682,4.038,15.233,10.783,15.233C253.444,557.148,257.482,551.597,257.482,541.915z"/>
	<path d="M291.623,568.803c0,9.957-6.103,15.188-17.619,15.188c-1.056,0-3.074-0.092-3.671-0.184v-9.865
		c0.321,0.046,1.239,0.092,1.698,0.092c4.451,0,6.194-1.605,6.194-5.598v-51.113h13.398V568.803z M277.766,504.979
		c0-3.992,3.212-6.929,7.158-6.929c3.946,0,7.158,2.937,7.158,6.929c0,3.9-3.211,6.929-7.158,6.929
		C280.978,511.908,277.766,508.88,277.766,504.979z"/>
	<path d="M345.398,551.459c-1.469,9.59-10.369,15.922-22.437,15.922c-15.05,0-24.227-9.59-24.227-25.236
		c0-15.691,9.223-25.694,23.722-25.694c14.27,0,23.354,9.498,23.354,24.456v4.083h-33.907v0.826c0,6.929,4.542,11.654,11.287,11.654
		c4.817,0,8.672-2.294,9.91-6.011H345.398z M312.041,536.776h20.877c-0.275-6.286-4.404-10.415-10.323-10.415
		C316.768,526.361,312.5,530.628,312.041,536.776z"/>
	<path d="M384.953,535.63c-0.688-5.14-4.222-8.673-9.773-8.673c-6.561,0-10.69,5.599-10.69,14.912
		c0,9.498,4.13,15.004,10.736,15.004c5.415,0,8.947-3.028,9.728-8.396h12.48c-0.734,11.562-9.314,18.904-22.346,18.904
		c-14.774,0-24.18-9.636-24.18-25.512c0-15.6,9.405-25.419,24.088-25.419c13.307,0,21.795,8.075,22.392,19.18H384.953z"/>
	<path d="M420.883,505.989v11.333h9.085v10.094h-9.085v23.492c0,3.763,1.835,5.598,5.781,5.598c1.192,0,2.432-0.092,3.258-0.229
		v9.865c-1.377,0.275-3.671,0.551-6.378,0.551c-11.562,0-16.06-3.9-16.06-13.489v-25.787h-6.928v-10.094h6.928v-11.333H420.883z"/>
	<path d="M457.225,516.45c12.297,0,20.418,6.194,20.556,15.692h-12.343c-0.229-3.854-3.441-6.286-8.396-6.286
		c-4.589,0-7.663,2.064-7.663,5.185c0,2.386,2.111,3.992,6.424,5.001l9.406,2.02c9.865,2.202,13.856,6.057,13.856,13.352
		c0,9.636-8.901,15.968-21.886,15.968c-13.123,0-21.244-6.286-21.933-15.83h13.077c0.597,4.084,3.899,6.424,9.223,6.424
		c5.047,0,8.167-1.973,8.167-5.139c0-2.433-1.652-3.763-6.057-4.818l-9.085-2.019c-9.314-2.11-14.086-6.929-14.086-14.132
		C436.485,522.553,444.606,516.45,457.225,516.45z"/>
</g>
<g>
	<linearGradient id="SVGID_1_" gradientUnits="userSpaceOnUse" x1="309.4023" y1="22.0269" x2="309.4023" y2="347.7944">
		<stop  offset="0" style="stop-color:#FFFFFF;stop-opacity:0.6"/>
		<stop  offset="0.2226" style="stop-color:#FCFCFC;stop-opacity:0.689"/>
		<stop  offset="0.364" style="stop-color:#F4F4F4;stop-opacity:0.7456"/>
		<stop  offset="0.4829" style="stop-color:#E5E5E5;stop-opacity:0.7931"/>
		<stop  offset="0.5892" style="stop-color:#D1D0D0;stop-opacity:0.8357"/>
		<stop  offset="0.6871" style="stop-color:#B7B5B6;stop-opacity:0.8748"/>
		<stop  offset="0.779" style="stop-color:#969494;stop-opacity:0.9116"/>
		<stop  offset="0.8662" style="stop-color:#6F6D6D;stop-opacity:0.9465"/>
		<stop  offset="0.9474" style="stop-color:#444041;stop-opacity:0.979"/>
		<stop  offset="1" style="stop-color:#231F20"/>
	</linearGradient>
	<path fill="url(#SVGID_1_)" d="M157.041,233.911c-22.277-4.445-33.541-17.12-30.33-33.206
		c4.084-20.471,22.646-30.018,49.927-24.574l25.277,5.044l15.886-35.278l-19.018-3.795c-22.275-4.445-33.458-17.536-30.248-33.621
		c4.084-20.472,22.688-30.228,49.967-24.784l25.278,5.044l20.182-43.76c8.8-19.313,24.481-26.176,47.508-21.58
		c21.273,4.244,31.242,16.877,28.155,32.336c-0.581,2.925-1.999,7.419-3.376,10.403l-17.139,37.634l47.804,9.539l19.934-43.811
		c8.797-19.314,24.479-26.175,47.504-21.581c21.272,4.244,31.245,16.878,28.158,32.336c-0.582,2.925-1.999,7.419-3.377,10.403
		l-17.138,37.634l19.77,3.946c22.274,4.445,33.537,17.119,30.328,33.205c-4.087,20.472-22.647,30.018-49.925,24.573l-26.028-5.195
		l-15.887,35.279l19.521,3.895c22.275,4.445,33.454,17.536,30.245,33.622c-4.087,20.472-22.688,30.228-49.968,24.784l-25.525-5.094
		l-21.978,47.53c-8.797,19.312-24.48,26.175-47.508,21.579c-21.272-4.244-31.243-16.876-28.158-32.336
		c0.583-2.924,2.001-7.42,3.378-10.404l19.183-41.352l-48.053-9.588l-21.727,47.578c-8.797,19.312-24.479,26.177-47.503,21.582
		c-21.274-4.247-31.245-16.88-28.16-32.337c0.584-2.925,2.001-7.421,3.377-10.404l18.932-41.403L157.041,233.911z M328.26,213.122
		l22.936-48.423l-61.565-12.286l-22.438,48.523L328.26,213.122z"/>
</g>
<g>
</g>
<g>
</g>
<g>
</g>
<g>
</g>
<g>
</g>
<g>
</g>
</svg>
