<?xml version="1.0" encoding="utf-8"?>
<!-- Generator: Adobe Illustrator 16.0.3, SVG Export Plug-In . SVG Version: 6.00 Build 0)  -->
<!DOCTYPE svg PUBLIC "-//W3C//DTD SVG 1.0//EN" "http://www.w3.org/TR/2001/REC-SVG-20010904/DTD/svg10.dtd">
<svg version="1.0" id="Layer_1" xmlns="http://www.w3.org/2000/svg" xmlns:xlink="http://www.w3.org/1999/xlink" x="0px" y="0px"
	 width="600px" height="600px" viewBox="0 0 600 600" enable-background="new 0 0 600 600" xml:space="preserve">
<g>
	<g>
		<path d="M233.233,460.739v-54.784H214.1V394.53h52.169v11.425H247.09v54.784H233.233z"/>
		<path d="M270.961,399.21c0-3.992,3.211-6.929,7.157-6.929s7.158,2.937,7.158,6.929c0,3.9-3.212,6.929-7.158,6.929
			S270.961,403.11,270.961,399.21z M271.419,411.553h13.398v49.187h-13.398V411.553z"/>
		<path d="M293.721,411.553h12.938v8.993h0.275c2.064-5.965,7.479-9.728,14.04-9.728c7.112,0,12.067,3.671,13.72,10.095h0.274
			c2.203-6.194,8.076-10.095,15.279-10.095c9.636,0,16.105,6.607,16.105,16.518v33.403h-13.398v-30.054
			c0-5.689-2.845-8.81-8.029-8.81c-5.093,0-8.442,3.717-8.442,9.177v29.687H323.59v-30.467c0-5.276-2.982-8.396-7.938-8.396
			c-5.093,0-8.534,3.854-8.534,9.36v29.503h-13.397V411.553z"/>
		<path d="M419.72,445.689c-1.468,9.59-10.369,15.922-22.437,15.922c-15.05,0-24.227-9.59-24.227-25.236
			c0-15.691,9.223-25.694,23.722-25.694c14.27,0,23.354,9.498,23.354,24.456v4.083h-33.907v0.826
			c0,6.929,4.542,11.654,11.287,11.654c4.817,0,8.672-2.294,9.91-6.011H419.72z M386.363,431.007h20.876
			c-0.274-6.286-4.404-10.415-10.323-10.415C391.089,420.592,386.821,424.858,386.363,431.007z"/>
	</g>
	<g>
		<path d="M167.915,573.509h-13.856V507.3h27.117c15.233,0,23.951,8.029,23.951,21.105c0,8.489-4.405,15.83-12.021,18.812
			l13.948,26.291h-15.692l-12.342-24.227h-11.104V573.509z M167.915,539.234h11.93c6.975,0,11.059-3.992,11.059-10.554
			c0-6.424-4.313-10.553-11.196-10.553h-11.792V539.234z"/>
		<path d="M257.565,558.459c-1.468,9.59-10.369,15.922-22.437,15.922c-15.05,0-24.227-9.59-24.227-25.236
			c0-15.691,9.223-25.694,23.722-25.694c14.27,0,23.354,9.498,23.354,24.456v4.083h-33.907v0.826
			c0,6.929,4.542,11.654,11.287,11.654c4.817,0,8.672-2.294,9.91-6.011H257.565z M224.209,543.776h20.876
			c-0.274-6.286-4.404-10.415-10.323-10.415C228.935,533.361,224.667,537.628,224.209,543.776z"/>
		<path d="M313.73,548.915c0,15.646-7.617,25.19-19.913,25.19c-7.158,0-12.618-3.304-15.279-8.855h-0.275v24.318h-13.397v-65.246
			h13.214v8.442h0.275c2.615-5.598,8.305-9.039,15.233-9.039C306.067,523.726,313.73,533.224,313.73,548.915z M300.012,548.915
			c0-8.718-4.313-14.407-10.921-14.407c-6.516,0-10.874,5.781-10.874,14.407c0,8.718,4.312,14.407,10.874,14.407
			C295.698,563.322,300.012,557.679,300.012,548.915z"/>
		<path d="M318.826,548.869c0-15.737,9.498-25.419,24.364-25.419s24.364,9.636,24.364,25.419c0,16.014-9.36,25.512-24.364,25.512
			S318.826,564.837,318.826,548.869z M353.927,548.915c0-9.589-4.037-15.232-10.736-15.232s-10.782,5.689-10.782,15.232
			c0,9.682,4.037,15.233,10.782,15.233C349.89,564.148,353.927,558.597,353.927,548.915z"/>
		<path d="M374.44,524.322h12.938v8.855h0.275c1.697-6.103,5.919-9.452,11.7-9.452c1.56,0,2.845,0.184,3.809,0.505v11.792
			c-1.102-0.459-2.937-0.78-4.864-0.78c-6.606,0-10.461,4.038-10.461,10.966v27.301H374.44V524.322z"/>
		<path d="M425.602,512.989v11.333h9.085v10.094h-9.085v23.492c0,3.763,1.835,5.598,5.781,5.598c1.192,0,2.432-0.092,3.258-0.229
			v9.864c-1.377,0.275-3.671,0.551-6.378,0.551c-11.562,0-16.06-3.9-16.06-13.489v-25.787h-6.928v-10.094h6.928v-11.333H425.602z"/>
		<path d="M461.943,523.45c12.297,0,20.418,6.194,20.556,15.692h-12.343c-0.229-3.854-3.441-6.286-8.396-6.286
			c-4.589,0-7.663,2.064-7.663,5.185c0,2.386,2.111,3.992,6.424,5.001l9.406,2.02c9.865,2.202,13.856,6.057,13.856,13.352
			c0,9.636-8.901,15.968-21.886,15.968c-13.123,0-21.244-6.286-21.933-15.83h13.077c0.597,4.084,3.899,6.424,9.223,6.424
			c5.047,0,8.167-1.973,8.167-5.139c0-2.432-1.652-3.763-6.057-4.818l-9.085-2.019c-9.314-2.11-14.086-6.929-14.086-14.132
			C441.204,529.553,449.325,523.45,461.943,523.45z"/>
	</g>
	<path fill="#0A67ED" d="M388,319.356c0,7.232,5.049,13.644,12.273,13.644h81.791c7.226,0,12.936-6.411,12.936-13.644V40.915
		C495,33.688,489.29,27,482.064,27h-81.791C393.049,27,388,33.688,388,40.915V319.356"/>
	<path fill="#00B77E" d="M267,319.356c0,7.232,2.654,13.644,9.883,13.644h81.793C365.9,333,370,326.589,370,319.356V118.034
		c0-7.227-4.1-13.034-11.324-13.034h-81.793c-7.229,0-9.883,5.808-9.883,13.034V319.356"/>
	<path fill="#E5A20C" d="M247,186.089c0-7.229-5.859-13.089-13.088-13.089h-80.824c-7.229,0-13.088,5.859-13.088,13.089v133.822
		c0,7.229,5.859,13.089,13.088,13.089h80.824c7.229,0,13.088-5.86,13.088-13.089V186.089"/>
	
		<linearGradient id="SVGID_1_" gradientUnits="userSpaceOnUse" x1="0" y1="0" x2="0.9995" y2="0" gradientTransform="matrix(-38.2503 311.5238 311.5238 38.2503 460.75 24.25)">
		<stop  offset="0" style="stop-color:#0F9BF6"/>
		<stop  offset="0.2129" style="stop-color:#0F97F5"/>
		<stop  offset="0.4217" style="stop-color:#0D8BF3"/>
		<stop  offset="0.6288" style="stop-color:#0B78F0"/>
		<stop  offset="0.8335" style="stop-color:#095CEB"/>
		<stop  offset="1" style="stop-color:#0640E6"/>
	</linearGradient>
	<path fill="url(#SVGID_1_)" d="M482.064,27h-81.791C393.049,27,388,33.688,388,40.915v278.442c0,7.232,5.049,13.644,12.273,13.644
		h81.791c7.226,0,12.936-6.411,12.936-13.644V40.915C495,33.688,489.29,27,482.064,27"/>
	
		<linearGradient id="SVGID_2_" gradientUnits="userSpaceOnUse" x1="-4.882812e-04" y1="0" x2="1" y2="0" gradientTransform="matrix(-28.8161 234.6882 234.6882 28.8161 332.875 101.75)">
		<stop  offset="0" style="stop-color:#00DBBD"/>
		<stop  offset="0.1993" style="stop-color:#00D9B9"/>
		<stop  offset="0.3874" style="stop-color:#00D2AE"/>
		<stop  offset="0.5711" style="stop-color:#00C89B"/>
		<stop  offset="0.7521" style="stop-color:#00B880"/>
		<stop  offset="0.9294" style="stop-color:#00A55E"/>
		<stop  offset="1" style="stop-color:#009C4E"/>
	</linearGradient>
	<path fill="url(#SVGID_2_)" d="M358.676,105h-81.793c-7.229,0-9.883,5.808-9.883,13.034v201.322c0,7.232,2.654,13.644,9.883,13.644
		h81.793C365.9,333,370,326.589,370,319.356V118.034C370,110.808,365.9,105,358.676,105"/>
	
		<linearGradient id="SVGID_3_" gradientUnits="userSpaceOnUse" x1="0" y1="0" x2="1" y2="0" gradientTransform="matrix(-20.5783 167.5968 167.5968 20.5783 203.75 169.25)">
		<stop  offset="0" style="stop-color:#F2D112"/>
		<stop  offset="0.2272" style="stop-color:#F1CD11"/>
		<stop  offset="0.4456" style="stop-color:#EEC210"/>
		<stop  offset="0.6604" style="stop-color:#E9AE0D"/>
		<stop  offset="0.8718" style="stop-color:#E1930A"/>
		<stop  offset="1" style="stop-color:#DC7F07"/>
	</linearGradient>
	<path fill="url(#SVGID_3_)" d="M233.912,173h-80.824c-7.229,0-13.088,5.859-13.088,13.089v133.822
		c0,7.229,5.859,13.089,13.088,13.089h80.824c7.229,0,13.088-5.86,13.088-13.089V186.089C247,178.859,241.141,173,233.912,173"/>
</g>
<g>
</g>
<g>
</g>
<g>
</g>
<g>
</g>
<g>
</g>
<g>
</g>
</svg>
