<?xml version="1.0" encoding="utf-8"?>
<!-- Generator: Adobe Illustrator 18.0.0, SVG Export Plug-In . SVG Version: 6.00 Build 0)  -->
<!DOCTYPE svg PUBLIC "-//W3C//DTD SVG 1.1//EN" "http://www.w3.org/Graphics/SVG/1.1/DTD/svg11.dtd">
<svg version="1.1" id="Layer_1" xmlns="http://www.w3.org/2000/svg" xmlns:xlink="http://www.w3.org/1999/xlink" x="0px" y="0px"
	 viewBox="0 0 200 128.1" enable-background="new 0 0 200 128.1" xml:space="preserve">
<g>
	<path fill="#222222" d="M24.6,0c11.3,0,28.9,4.6,38.1,4.6c3.1,0,6.3-0.3,8.2-2.6H71c-5.3,10.3-11.3,13.2-17.8,13.2
		c-2.6,0-5.4-0.5-8.2-1.2c-2.4,0.7-3.6,4-4.5,9.5l-5.3,27.4c-1.2,7.9-1.9,12,5.1,12v0.3H12.5v-0.1c7,0,7.8-4.1,9.1-12l4.9-25.5
		C27.8,16.7,39,14.3,44.7,14C33.3,11,20.8,3.9,11.5,3.9c-4.5,0-7.4,1.7-7.4,5.3s2.8,5.6,5.8,5.6c2.2,0,4.4-1,6-2.8
		c2.8,1.3,4,3.3,4,5.4c0,5.1-4.4,7.9-9,7.9c-4.8,0-9.7-3-10.1-9.6C1,3.3,13.5,0,24.6,0"/>
	<path fill="#222222" d="M80,33.7c0,11.2-10.1,21.2-22.2,21.2c-9.7,0-16.4-6.3-16.4-15.2c0-11.7,10.1-21.3,22.2-21.3
		C73.3,18.5,80,24.7,80,33.7 M67.6,25.7c0-4-1-7-4.1-7c-7.4,0-9.8,21.8-9.8,29.1c0,4,1.1,6.9,4.1,6.9C65.3,54.7,67.6,33.7,67.6,25.7
		"/>
	<path fill="#222222" d="M120.7,33.7c0,11.2-10.1,21.2-22.2,21.2c-9.7,0-16.4-6.3-16.4-15.2c0-11.7,10.1-21.3,22.2-21.3
		C114,18.5,120.7,24.7,120.7,33.7 M108.3,25.7c0-4-1-7-4.1-7c-7.4,0-9.8,21.8-9.8,29.1c0,4,1.1,6.9,4.1,6.9
		C106,54.7,108.3,33.7,108.3,25.7"/>
	<path fill="#222222" d="M134.2,46.5c-0.8,4.7-2.7,13.5-0.1,14.3l-0.1,0.1c-1.5,0.3-3.1,0.6-4.7,0.6c-5,0-9.2-2.3-7.8-10.6l7.5-45.2
		c0.3-1.9-0.7-2.7-2.8-1.9L126,3.7c2.4-1.2,7.1-2.6,10.3-2.6c3.9,0,5.2,1.4,4.4,6L134.2,46.5z"/>
	<path fill="#222222" d="M139.2,47.8c0-3.4,2.6-6.5,6.3-6.5c2.6,0,5.3,1.6,4.9,4.9c-1.9,0.7-3.2,2.5-3.2,4.4c0,2.1,1.1,4,6,4
		c4.1,0,10.6-1.3,10.6-5.3c0-7.2-21.1-6.5-21.1-18c0-9.4,10.3-13,19.2-13c5.3,0,12.5,1.3,12.5,6.5c0,3.1-2.3,5.8-5.6,5.8
		c-2.3,0-4.4-1.5-4.1-4.5c1.5-0.6,2.8-1.9,2.8-3.7c0-2.3-2.3-3.8-6.2-3.8c-5.2,0-8.1,2.6-8.1,5.3c0,7.5,20.8,5.1,20.8,17.5
		c0,9-11.2,13.5-21.4,13.5C147.2,55,139.2,53.7,139.2,47.8"/>
	<path fill="#222222" d="M124.1,92c0,11.2-10.1,21.3-22.2,21.3c-9.7,0-16.4-6.3-16.4-15.2c0-11.7,10.1-21.2,22.2-21.2
		C117.4,76.8,124.1,83.1,124.1,92 M111.7,84c0-4-1-7-4.1-7c-7.4,0-9.8,21.8-9.8,29.1c0,4,1.1,6.9,4.1,6.9
		C109.4,113.1,111.7,92,111.7,84"/>
	<path fill="#222222" d="M159.6,112.4c-1.5,9.3-8.5,15.7-21.3,15.7c-5.6,0-13.4-1.2-13.4-7.4c0-3.8,3.1-6.6,6.9-6.6
		c2.8,0,5.8,1.9,5.4,5.6c-2.6,0.3-3.8,2.1-3.8,3.9c0,1.9,1.2,4.2,5.3,4.2c5.2,0,6.9-3.9,8.1-10.6l4.5-25.2l-0.2-0.1
		c-4.6,17.4-10.8,21.4-16.9,21.4c-8.2,0-8.2-7-7.4-11.7l3.4-20.3c0.3-1.9-0.7-2.7-2.8-1.9l-0.1-0.1c2.4-1.2,7.1-2.6,10.3-2.6
		c3.9,0,5.2,1.4,4.4,6l-3.6,21.7c-0.6,3.6-0.1,5.8,1.7,5.8c3.5,0,8.2-8.5,10.7-18.6c1.2-4.7,3-13.6,0.6-14.7l0.1-0.1
		c1.9-0.2,4.1-0.3,5.7-0.3c5.3,0,7.6,2.2,6.2,10.6L159.6,112.4z"/>
	<path fill="#222222" d="M164.8,106.2c0-3.4,2.6-6.5,6.3-6.5c2.6,0,5.3,1.6,4.9,4.9c-1.9,0.7-3.2,2.5-3.2,4.4c0,2.1,1.1,4,6,4
		c4.1,0,10.6-1.3,10.6-5.3c0-7.2-21.1-6.5-21.1-18c0-9.4,10.3-13,19.2-13c5.3,0,12.5,1.3,12.5,6.5c0,3.1-2.3,5.8-5.6,5.8
		c-2.3,0-4.4-1.5-4.1-4.5c1.5-0.6,2.8-1.9,2.8-3.7c0-2.3-2.3-3.8-6.2-3.8c-5.2,0-8.1,2.6-8.1,5.3c0,7.5,20.8,5.1,20.8,17.5
		c0,9-11.3,13.5-21.4,13.5C172.7,113.3,164.8,112,164.8,106.2"/>
</g>
<path fill="#222222" d="M68.7,58.3c11.4,0,28.9,4.6,38.1,4.6c3.1,0,6.3-0.3,8.2-2.6h0.1c-5.3,10.3-11.3,13.2-17.8,13.2
	c-2.6,0-5.4-0.5-8.2-1.2c-2.4,0.7-3.6,4-4.5,9.5l-4.4,27.4c-1.2,7.9-1.9,12,5.1,12v0.1H57.5v-0.1c7,0,7.8-4.1,9.1-12l4-25.5
	c1.3-8.9,12.6-11.2,18.2-11.5c-11.3-2.8-23.9-10-33.2-10c-4.5,0-7.4,1.7-7.4,5.3c0,3.6,2.8,5.6,5.8,5.6c2.2,0,4.4-1,6-2.8
	c2.8,1.3,4,3.3,4,5.4c0,5.1-4.4,7.9-9,7.9c-4.7,0-9.7-3-10.1-9.5C45.1,61.7,57.6,58.3,68.7,58.3"/>
<path fill="#222222" d="M53,115.9L53,115.9c-4.2,5.9-8.6,8.7-12.6,8.7c-4.3,0-8.6-2.5-12.3-6.2c-5.7,4.5-10.8,6.2-15.2,6.2
	c-8.7,0-12.8-5-12.8-11c0-9.7,9-15.3,17-16.5c-0.5-2.2-0.7-4.2-0.7-6.2c0-9,7.4-14,15.8-14c5.5,0,7.9,2.1,7.9,5.1
	c0,5.1-7.2,9.6-11,11.2c1,3,2.8,6.7,5.1,10.4c0.6-8.1,5-16.2,12.6-16.2c5.2,0,9.1,3.9,9.1,9.4c0,5.6-4,11.2-10.2,11.2
	c-4.9,0-7.8-3.5-7.8-7.2c0-2.2,1-5.3,4.9-6.3c0.8,1.8,2.2,2.8,4.1,2.8c2.8,0,4.4-2.1,4.4-4.5c0-2.3-1.3-5.1-5.1-5.1
	c-5.6,0-11.1,6.6-11.7,16.2c4.1,6.6,9.7,12.7,15.9,12.7C51.2,116.8,52.2,116.5,53,115.9 M12.4,107c0,8.5,7,15.7,15.6,11.2
	c-5.2-5.4-9.3-13.5-10.9-21C13.6,99.1,12.4,103.5,12.4,107 M31.9,77.2c-3.6,0-4.7,3.8-4.7,6.9c0,2.4,0.7,5.9,1.7,9.1
	c4.4-2.4,6.7-7.2,6.7-11.2C35.7,79.3,34.6,77.2,31.9,77.2"/>
</svg>
