<svg xmlns="http://www.w3.org/2000/svg" viewBox="0 0 256 256"><defs><style>.cls-1{fill:#e5f5fc;}.cls-2{fill:#cbecf9;}.cls-3{fill:#2fb1ea;}.cls-4{fill:#52e355;}.cls-5{fill:#90fc95;}.cls-6{fill:#ffc444;}.cls-7{fill:#ffe76e;}.cls-8{fill:#d4ffd4;}.cls-9{fill:#ffbdbd;}.cls-10{fill:#bbf1ff;}.cls-11{fill:#fff4c5;}</style></defs><title>business economic finance interprise company place holder</title><g id="Layer_2" data-name="Layer 2"><ellipse class="cls-1" cx="128" cy="212" rx="72.17" ry="20"/><ellipse class="cls-2" cx="128" cy="212.5" rx="28.36" ry="5"/><path class="cls-3" d="M128,234c-19.45,0-37.77-2.11-51.57-5.93-14.79-4.1-22.6-9.65-22.6-16.07s7.82-12,22.6-16.07C90.23,192.11,108.55,190,128,190s37.77,2.11,51.57,5.93c14.79,4.1,22.6,9.65,22.6,16.07s-7.82,12-22.6,16.07C165.77,231.89,147.45,234,128,234Zm0-40c-41.35,0-70.17,9.49-70.17,18S86.65,230,128,230s70.17-9.49,70.17-18S169.35,194,128,194Z"/><path class="cls-4" d="M191.86,87.86C191.86,142.41,128,212,128,212S64.14,142.41,64.14,87.86a63.86,63.86,0,1,1,127.72,0Z"/><path class="cls-5" d="M182.14,87.86C182.14,142.41,128,192,128,192S64.14,142.41,64.14,87.86A63.86,63.86,0,0,1,128,24C163.27,24,182.14,52.59,182.14,87.86Z"/><path class="cls-3" d="M128,214a2,2,0,0,1-1.47-.65A372.51,372.51,0,0,1,94.4,171.49C73,139,62.14,110.88,62.14,87.86a65.86,65.86,0,1,1,131.71,0c0,23-10.85,51.16-32.26,83.63a372.51,372.51,0,0,1-32.12,41.87A2,2,0,0,1,128,214Zm0-188A61.93,61.93,0,0,0,66.14,87.86c0,48.55,52.33,110.3,61.86,121.14,9.53-10.84,61.86-72.59,61.86-121.14A61.93,61.93,0,0,0,128,26Z"/><circle class="cls-4" cx="125.72" cy="85.58" r="49.6"/><circle class="cls-6" cx="128" cy="87.86" r="45.78"/><circle class="cls-7" cx="131.48" cy="91.33" r="41.69"/><path class="cls-3" d="M128,135.64a47.78,47.78,0,1,1,47.78-47.78A47.84,47.84,0,0,1,128,135.64Zm0-91.56a43.78,43.78,0,1,0,43.78,43.78A43.83,43.83,0,0,0,128,44.08Z"/><path class="cls-3" d="M133.71,112.42H112.51a5,5,0,0,1,0-10h21.19a4.78,4.78,0,0,0,0-9.56H122.29a14.78,14.78,0,0,1,0-29.56h21.19a5,5,0,0,1,0,10H122.29a4.78,4.78,0,0,0,0,9.56h11.41a14.78,14.78,0,0,1,0,29.56Z"/><path class="cls-3" d="M128,73.3a5,5,0,0,1-5-5V58.52a5,5,0,1,1,10,0V68.3A5,5,0,0,1,128,73.3Z"/><path class="cls-3" d="M128,122.2a5,5,0,0,1-5-5v-9.78a5,5,0,0,1,10,0v9.78A5,5,0,0,1,128,122.2Z"/><circle class="cls-8" cx="192" cy="33" r="5"/><circle class="cls-8" cx="181" cy="244" r="4"/><circle class="cls-8" cx="223" cy="47" r="3"/><circle class="cls-8" cx="54" cy="107" r="2"/><circle class="cls-8" cx="58" cy="177" r="1"/><circle class="cls-9" cx="126" cy="249" r="5"/><circle class="cls-9" cx="69" cy="173" r="4"/><circle class="cls-9" cx="199" cy="150" r="3"/><circle class="cls-9" cx="50" cy="18" r="2"/><circle class="cls-9" cx="146" cy="19" r="1"/><circle class="cls-10" cx="228" cy="105" r="5"/><circle class="cls-10" cx="62" cy="234" r="4"/><circle class="cls-10" cx="41" cy="125" r="3"/><circle class="cls-10" cx="56" cy="80" r="2"/><circle class="cls-10" cx="225" cy="213" r="1"/><circle class="cls-11" cx="199" cy="7" r="5"/><circle class="cls-11" cx="86" cy="21" r="4"/><circle class="cls-11" cx="206" cy="177" r="3"/><circle class="cls-11" cx="212" cy="80" r="2"/><circle class="cls-11" cx="24" cy="204" r="1"/></g></svg>