<svg xmlns="http://www.w3.org/2000/svg" viewBox="0 0 256 256"><defs><style>.cls-1{fill:#cbecf9;}.cls-2{fill:#fff;}.cls-3{fill:#2fb1ea;}.cls-4{fill:#f97171;}.cls-5{fill:#f88;}.cls-6{fill:#ffc444;}.cls-7{fill:#ffe76e;}.cls-8{fill:#52e355;}.cls-9{fill:#90fc95;}.cls-10{fill:#6dd0fc;}.cls-11{fill:#a4ecff;}.cls-12{fill:#d4ffd4;}.cls-13{fill:#ffbdbd;}.cls-14{fill:#bbf1ff;}.cls-15{fill:#fff4c5;}</style></defs><title>business economic finance interprise company rocket</title><g id="Layer_2" data-name="Layer 2"><path class="cls-1" d="M166.67,83v78.33H89.33V83C89.33,56.33,97,29.05,128,24,159,29.05,166.67,56.33,166.67,83Z"/><path class="cls-2" d="M159,153.5V83c0-26.67-6.13-53.95-31-59-24.87,5.05-31,32.33-31,59v70.5Z"/><path class="cls-3" d="M166.67,163.33H89.33a2,2,0,0,1-2-2V83c0-36.1,13.58-56.62,40.35-61a2,2,0,0,1,.64,0c26.77,4.36,40.35,24.87,40.35,61v78.33A2,2,0,0,1,166.67,163.33Zm-75.34-4h73.34V83c0-33.7-12.34-52.86-36.67-57C103.67,30.14,91.33,49.3,91.33,83Z"/><path class="cls-4" d="M89.33,161.33h77.34a0,0,0,0,1,0,0v3.49a12,12,0,0,1-12,12H101.33a12,12,0,0,1-12-12v-3.49A0,0,0,0,1,89.33,161.33Z"/><path class="cls-5" d="M89.72,167.79a12,12,0,0,0,11.61,9h53.34a12,12,0,0,0,11.61-9Z"/><path class="cls-3" d="M154.67,178.82H101.33a14,14,0,0,1-14-14v-3.49a2,2,0,0,1,2-2h77.34a2,2,0,0,1,2,2v3.49A14,14,0,0,1,154.67,178.82ZM91.33,163.33v1.49a10,10,0,0,0,10,10h53.34a10,10,0,0,0,10-10v-1.49Z"/><path class="cls-4" d="M161.17,187c0,11.5-10.84,34.33-33.17,45-22.33-10.67-33.17-33.5-33.17-45Z"/><path class="cls-5" d="M154.47,187c0,9.18-8.65,27.4-26.47,35.91-17.82-8.52-26.47-26.74-26.47-35.91Z"/><path class="cls-3" d="M128,234a2,2,0,0,1-.86-.2,63.78,63.78,0,0,1-25.77-22.91c-5.34-8.24-8.53-17.17-8.53-23.9a2,2,0,0,1,2-2h66.34a2,2,0,0,1,2,2c0,12.75-11.92,36.11-34.31,46.8A2,2,0,0,1,128,234ZM96.94,189c1.12,10.41,10.46,30.51,31.06,40.77,20.6-10.27,29.94-30.37,31.06-40.77Z"/><path class="cls-6" d="M128,218.29A35,35,0,0,1,116,205H140A35,35,0,0,1,128,218.29Z"/><path class="cls-6" d="M128,218.29A50.64,50.64,0,0,1,110.6,199h34.8A50.64,50.64,0,0,1,128,218.29Z"/><path class="cls-7" d="M128,218.29A35,35,0,0,1,116,205H140A35,35,0,0,1,128,218.29Z"/><path class="cls-3" d="M128,220.29a2,2,0,0,1-1.08-.32,52.91,52.91,0,0,1-18.1-20.06A2,2,0,0,1,110.6,197h34.8a2,2,0,0,1,1.78,2.92A52.91,52.91,0,0,1,129.08,220,2,2,0,0,1,128,220.29ZM114,201a48.93,48.93,0,0,0,14,14.89A48.91,48.91,0,0,0,142,201Z"/><polygon class="cls-8" points="44 192 44 164.73 89.33 121.47 89.33 161.33 70.75 170.3 70.75 192 44 192"/><polygon class="cls-9" points="44 185 44 164.73 80.96 129.46 80.96 155.23 63.7 167.92 63.7 185 44 185"/><path class="cls-3" d="M70.75,194H44a2,2,0,0,1-2-2V164.73a2,2,0,0,1,.62-1.45L87.95,120a2,2,0,0,1,3.38,1.45v39.85a2,2,0,0,1-1.13,1.8l-17.45,8.43V192A2,2,0,0,1,70.75,194ZM46,190H68.75V170.3a2,2,0,0,1,1.13-1.8l17.45-8.43V126.15L46,165.59Z"/><polygon class="cls-8" points="212 192 212 164.73 166.67 121.47 166.67 161.33 185.25 170.3 185.25 192 212 192"/><polygon class="cls-9" points="212 185 212 164.73 175.04 129.46 175.04 155.23 192.3 167.92 192.3 185 212 185"/><path class="cls-3" d="M212,194H185.25a2,2,0,0,1-2-2V171.56l-17.45-8.43a2,2,0,0,1-1.13-1.8V121.48a2,2,0,0,1,3.38-1.45l45.33,43.25a2,2,0,0,1,.62,1.45V192A2,2,0,0,1,212,194Zm-24.75-4H210V165.59l-41.33-39.44v33.93l17.45,8.43a2,2,0,0,1,1.13,1.8Z"/><path class="cls-8" d="M128,121.48l-15.09,43.26V192h30.19V164.73Z"/><path class="cls-9" d="M128,121.48l-8.71,37.84v23.85h17.41V159.31Z"/><path class="cls-3" d="M143.09,194H112.91a2,2,0,0,1-2-2V164.73a2,2,0,0,1,.11-.66l15.09-43.25a2,2,0,0,1,3.78,0L145,164.07a2,2,0,0,1,.11.66V192A2,2,0,0,1,143.09,194Zm-28.19-4h26.19V165.07L128,127.55l-13.09,37.52Z"/><circle class="cls-10" cx="128" cy="58.29" r="10"/><circle class="cls-11" cx="128" cy="61.02" r="7.28"/><path class="cls-3" d="M128,70.29a12,12,0,1,1,12-12A12,12,0,0,1,128,70.29Zm0-20a8,8,0,1,0,8,8A8,8,0,0,0,128,50.29Z"/><circle class="cls-10" cx="128" cy="91.9" r="10"/><circle class="cls-11" cx="128" cy="94.62" r="7.28"/><path class="cls-3" d="M128,103.9a12,12,0,1,1,12-12A12,12,0,0,1,128,103.9Zm0-20a8,8,0,1,0,8,8A8,8,0,0,0,128,83.9Z"/><circle class="cls-12" cx="194" cy="212" r="5"/><circle class="cls-12" cx="39" cy="114" r="4"/><circle class="cls-12" cx="33" cy="209" r="3"/><circle class="cls-12" cx="191" cy="123" r="2"/><circle class="cls-12" cx="229" cy="29" r="1"/><circle class="cls-13" cx="215" cy="7" r="5"/><circle class="cls-13" cx="207" cy="77" r="4"/><circle class="cls-13" cx="68" cy="19" r="3"/><circle class="cls-13" cx="206" cy="238" r="2"/><circle class="cls-13" cx="110" cy="237" r="1"/><circle class="cls-14" cx="28" cy="151" r="5"/><circle class="cls-14" cx="118" cy="12" r="4"/><circle class="cls-14" cx="215" cy="131" r="3"/><circle class="cls-14" cx="180" cy="206" r="2"/><circle class="cls-14" cx="31" cy="43" r="1"/><circle class="cls-15" cx="57" cy="249" r="5"/><circle class="cls-15" cx="170" cy="235" r="4"/><circle class="cls-15" cx="33" cy="80" r="3"/><circle class="cls-15" cx="44" cy="136" r="2"/><circle class="cls-15" cx="232" cy="98" r="1"/></g></svg>