<svg xmlns="http://www.w3.org/2000/svg" viewBox="0 0 256 256"><defs><style>.cls-1{fill:#ffd659;}.cls-2{fill:#2fb1ea;}.cls-3{fill:#6dd0fc;}.cls-4{fill:#a4ecff;}.cls-5{fill:#f88;}.cls-6{fill:#f97171;}.cls-7{fill:#fff;}.cls-8{fill:#ffc444;}.cls-9{fill:#ffe76e;}.cls-10{fill:#d4ffd4;}.cls-11{fill:#ffbdbd;}.cls-12{fill:#bbf1ff;}.cls-13{fill:#fff4c5;}</style></defs><title>business economic finance interprise company team work</title><g id="Layer_2" data-name="Layer 2"><polygon class="cls-1" points="216.41 99.94 216.41 108.34 191.26 112.67 166.1 108.34 166.1 99.94 176.29 86.75 206.23 86.75 216.41 99.94"/><path class="cls-2" d="M191.26,114.67l-.34,0-25.15-4.33a2,2,0,0,1-1.66-2v-8.4a2,2,0,0,1,.42-1.22L174.7,85.53a2,2,0,0,1,1.58-.78h29.94a2,2,0,0,1,1.58.78L218,98.72a2,2,0,0,1,.42,1.22v8.4a2,2,0,0,1-1.66,2l-25.15,4.33Zm-23.15-8,23.15,4,23.15-4v-6l-9.16-11.87h-28l-9.16,11.87Z"/><path class="cls-3" d="M232.14,109.1v39.18a25.2,25.2,0,0,1-25.2,25.2H175.57a25.2,25.2,0,0,1-25.2-25.2V109.1a10.08,10.08,0,0,1,6.44-9.4l5.22-2,29.23,15,29.23-15,5.22,2A10.08,10.08,0,0,1,232.14,109.1Z"/><path class="cls-4" d="M232.14,109.1v29.24a25.2,25.2,0,0,1-25.2,25.2H175.57a25.2,25.2,0,0,1-25.2-25.2V109.1a10.08,10.08,0,0,1,6.44-9.4l5.22-2,29.23,15,29.23-15,5.22,2A10.08,10.08,0,0,1,232.14,109.1Z"/><path class="cls-3" d="M174.2,129.16a9.92,9.92,0,0,0,5.82-.52l.7.69a15.07,15.07,0,0,0,21.06,0l.7-.69a10,10,0,0,0,3.75.74,10.13,10.13,0,0,0,2.1-.22,10,10,0,0,0,6.72-5l12.57-23.41a10.07,10.07,0,0,0-1.91-1l-5.22-2-29.23,15L162,97.68l-5.22,2a10.07,10.07,0,0,0-1.91,1l12.57,23.42A10,10,0,0,0,174.2,129.16Z"/><path class="cls-2" d="M206.94,175.48H175.57a27.23,27.23,0,0,1-27.2-27.2V109.1a12.16,12.16,0,0,1,7.71-11.26l5.22-2a2,2,0,0,1,1.64.09l28.31,14.53L219.57,95.9a2,2,0,0,1,1.64-.09l5.22,2a12.16,12.16,0,0,1,7.71,11.26v39.18A27.23,27.23,0,0,1,206.94,175.48Zm-45-75.61-4.39,1.7a8.13,8.13,0,0,0-5.16,7.53v39.18a23.23,23.23,0,0,0,23.2,23.2h31.37a23.23,23.23,0,0,0,23.2-23.2V109.1a8.13,8.13,0,0,0-5.16-7.53l-4.39-1.7-28.43,14.58a2,2,0,0,1-1.83,0Z"/><path class="cls-5" d="M200.33,159.91l-5,6.9a5,5,0,0,1-8.17,0l-5-6.9a10.08,10.08,0,0,1-1.79-7.44L185,123h12.6l4.56,29.44A10.08,10.08,0,0,1,200.33,159.91Z"/><path class="cls-6" d="M186.13,123l-1.63,10.52a12.29,12.29,0,0,0,13.51,0L196.38,123Z"/><path class="cls-2" d="M191.26,170.91a7,7,0,0,1-5.71-2.92l-5-6.9a12,12,0,0,1-2.14-8.92L183,122.73a2,2,0,0,1,2-1.69h12.6a2,2,0,0,1,2,1.69l4.56,29.44a12,12,0,0,1-2.14,8.92l-5,6.9A7,7,0,0,1,191.26,170.91ZM186.67,125l-4.29,27.74a8,8,0,0,0,1.43,6l5,6.9a3,3,0,0,0,4.93,0l5-6.9h0a8,8,0,0,0,1.43-6L195.84,125Z"/><path class="cls-5" d="M204.84,117.16,194.79,127a5,5,0,0,1-7.06,0l-10.05-9.86,13.58-5.49Z"/><path class="cls-2" d="M191.26,130.45a7,7,0,0,1-4.93-2l-10.05-9.86a2,2,0,0,1,.65-3.28l13.58-5.49a2,2,0,0,1,1.5,0l13.58,5.49a2,2,0,0,1,.65,3.28l-10.05,9.86A7,7,0,0,1,191.26,130.45Zm-10-12.58,7.87,7.72a3.05,3.05,0,0,0,4.26,0l7.87-7.72-10-4Z"/><polygon class="cls-7" points="172.44 89.08 162.03 97.68 176.28 124.21 191.26 112.67 172.44 89.08"/><path class="cls-2" d="M176.27,126.21a2,2,0,0,1-.42,0,2,2,0,0,1-1.34-1L160.27,98.63a2,2,0,0,1,.49-2.49l10.4-8.6a2,2,0,0,1,2.84.29l18.82,23.6a2,2,0,0,1-.34,2.83l-15,11.54A2,2,0,0,1,176.27,126.21Zm-11.7-28,12.35,23,11.5-8.86L172.14,91.91Z"/><polygon class="cls-7" points="210.08 89.08 220.48 97.68 206.24 124.21 191.26 112.67 210.08 89.08"/><path class="cls-2" d="M206.24,126.21a2,2,0,0,1-1.22-.42l-15-11.54a2,2,0,0,1-.34-2.83l18.82-23.6a2,2,0,0,1,2.84-.29l10.4,8.6a2,2,0,0,1,.49,2.49L208,125.16a2,2,0,0,1-1.34,1A2,2,0,0,1,206.24,126.21Zm-12.15-13.88,11.5,8.86,12.35-23-7.57-6.26Z"/><rect class="cls-8" x="171.09" y="44" width="40.32" height="50.4" rx="20.16" ry="20.16"/><rect class="cls-9" x="171.09" y="44" width="40.32" height="43.4" rx="20.16" ry="20.16"/><path class="cls-2" d="M191.26,96.4a22.19,22.19,0,0,1-22.16-22.16V64.16a22.16,22.16,0,1,1,44.32,0V74.24A22.19,22.19,0,0,1,191.26,96.4Zm0-50.4a18.18,18.18,0,0,0-18.16,18.16V74.24a18.16,18.16,0,1,0,36.32,0V64.16A18.18,18.18,0,0,0,191.26,46Z"/><polygon class="cls-1" points="89.89 99.94 89.89 108.34 64.74 112.67 39.59 108.34 39.59 99.94 49.77 86.75 79.71 86.75 89.89 99.94"/><path class="cls-2" d="M64.74,114.67l-.34,0-25.15-4.33a2,2,0,0,1-1.66-2v-8.4A2,2,0,0,1,38,98.72L48.19,85.53a2,2,0,0,1,1.58-.78H79.71a2,2,0,0,1,1.58.78L91.48,98.72a2,2,0,0,1,.42,1.22v8.4a2,2,0,0,1-1.66,2l-25.15,4.33Zm-23.15-8,23.15,4,23.15-4v-6L78.73,88.75h-28l-9.16,11.87Z"/><path class="cls-3" d="M105.63,109.1v39.18a25.2,25.2,0,0,1-25.2,25.2H49.06a25.2,25.2,0,0,1-25.2-25.2V109.1a10.08,10.08,0,0,1,6.44-9.4l5.22-2,29.23,15L94,97.68l5.22,2A10.08,10.08,0,0,1,105.63,109.1Z"/><path class="cls-4" d="M105.63,109.1v29.24a25.2,25.2,0,0,1-25.2,25.2H49.06a25.2,25.2,0,0,1-25.2-25.2V109.1a10.08,10.08,0,0,1,6.44-9.4l5.22-2,29.23,15L94,97.68l5.22,2A10.08,10.08,0,0,1,105.63,109.1Z"/><path class="cls-3" d="M47.69,129.16a9.92,9.92,0,0,0,5.82-.52l.7.69a15.07,15.07,0,0,0,21.06,0l.7-.69a10,10,0,0,0,3.75.74,10.13,10.13,0,0,0,2.1-.22,10,10,0,0,0,6.72-5L101.1,100.7a10.07,10.07,0,0,0-1.91-1l-5.22-2-29.23,15-29.23-15-5.22,2a10.07,10.07,0,0,0-1.91,1L41,124.11A10,10,0,0,0,47.69,129.16Z"/><path class="cls-2" d="M80.43,175.48H49.06a27.23,27.23,0,0,1-27.2-27.2V109.1a12.16,12.16,0,0,1,7.71-11.26l5.22-2a2,2,0,0,1,1.64.09l28.31,14.53L93.06,95.9a2,2,0,0,1,1.64-.09l5.22,2a12.16,12.16,0,0,1,7.71,11.26v39.18A27.23,27.23,0,0,1,80.43,175.48Zm-45-75.61L31,101.57a8.13,8.13,0,0,0-5.16,7.53v39.18a23.23,23.23,0,0,0,23.2,23.2H80.43a23.23,23.23,0,0,0,23.2-23.2V109.1a8.13,8.13,0,0,0-5.16-7.53l-4.39-1.7L65.66,114.45a2,2,0,0,1-1.83,0Z"/><path class="cls-5" d="M73.81,159.91l-5,6.9a5,5,0,0,1-8.17,0l-5-6.9a10.08,10.08,0,0,1-1.79-7.44L58.44,123H71l4.56,29.44A10.08,10.08,0,0,1,73.81,159.91Z"/><path class="cls-6" d="M59.62,123,58,133.56a12.29,12.29,0,0,0,13.51,0L69.87,123Z"/><path class="cls-2" d="M64.74,170.91A7,7,0,0,1,59,168l-5-6.9a12,12,0,0,1-2.14-8.92l4.56-29.44a2,2,0,0,1,2-1.69H71a2,2,0,0,1,2,1.69l4.56,29.44a12,12,0,0,1-2.14,8.92l-5,6.9A7,7,0,0,1,64.74,170.91ZM60.16,125l-4.29,27.74a8,8,0,0,0,1.43,6l5,6.9a3,3,0,0,0,4.93,0l5-6.9h0a8,8,0,0,0,1.43-6L69.33,125Z"/><path class="cls-5" d="M78.33,117.16,68.27,127a5,5,0,0,1-7.06,0l-10.05-9.86,13.58-5.49Z"/><path class="cls-2" d="M64.74,130.45a7,7,0,0,1-4.93-2l-10.05-9.86a2,2,0,0,1,.65-3.28L64,109.82a2,2,0,0,1,1.5,0l13.58,5.49a2,2,0,0,1,.65,3.28l-10.05,9.86A7,7,0,0,1,64.74,130.45Zm-10-12.58,7.87,7.72a3.05,3.05,0,0,0,4.26,0l7.87-7.72-10-4Z"/><polygon class="cls-7" points="45.92 89.08 35.52 97.68 49.76 124.21 64.74 112.67 45.92 89.08"/><path class="cls-2" d="M49.76,126.21a2,2,0,0,1-.42,0,2,2,0,0,1-1.34-1L33.76,98.63a2,2,0,0,1,.49-2.49l10.4-8.6a2,2,0,0,1,2.84.29l18.82,23.6a2,2,0,0,1-.34,2.83L51,125.8A2,2,0,0,1,49.76,126.21Zm-11.7-28,12.35,23,11.5-8.86L45.63,91.91Z"/><polygon class="cls-7" points="83.56 89.08 93.97 97.68 79.72 124.21 64.74 112.67 83.56 89.08"/><path class="cls-2" d="M79.73,126.21a2,2,0,0,1-1.22-.42l-15-11.54a2,2,0,0,1-.34-2.83L82,87.83a2,2,0,0,1,2.84-.29l10.4,8.6a2,2,0,0,1,.49,2.49L81.49,125.16a2,2,0,0,1-1.34,1A2,2,0,0,1,79.73,126.21ZM67.58,112.33l11.5,8.86,12.35-23-7.57-6.26Z"/><rect class="cls-8" x="44.58" y="44" width="40.32" height="50.4" rx="20.16" ry="20.16"/><rect class="cls-9" x="44.58" y="44" width="40.32" height="43.4" rx="20.16" ry="20.16"/><path class="cls-2" d="M64.74,96.4A22.19,22.19,0,0,1,42.58,74.24V64.16a22.16,22.16,0,0,1,44.32,0V74.24A22.19,22.19,0,0,1,64.74,96.4Zm0-50.4A18.18,18.18,0,0,0,46.58,64.16V74.24a18.16,18.16,0,1,0,36.32,0V64.16A18.18,18.18,0,0,0,64.74,46Z"/><polygon class="cls-1" points="153.09 138.46 153.09 146.86 127.94 151.19 102.79 146.86 102.79 138.46 112.97 125.27 142.91 125.27 153.09 138.46"/><path class="cls-2" d="M127.94,153.19l-.34,0-25.15-4.33a2,2,0,0,1-1.66-2v-8.4a2,2,0,0,1,.42-1.22L111.39,124a2,2,0,0,1,1.58-.78h29.94a2,2,0,0,1,1.58.78l10.18,13.19a2,2,0,0,1,.42,1.22v8.4a2,2,0,0,1-1.66,2l-25.15,4.33Zm-23.15-8,23.15,4,23.15-4v-6l-9.16-11.87H114l-9.16,11.87Z"/><path class="cls-3" d="M168.82,147.62V186.8a25.2,25.2,0,0,1-25.2,25.2H112.26a25.2,25.2,0,0,1-25.2-25.2V147.62a10.08,10.08,0,0,1,6.44-9.4l5.22-2,29.23,15,29.23-15,5.22,2A10.08,10.08,0,0,1,168.82,147.62Z"/><path class="cls-4" d="M168.82,147.62v29.24a25.2,25.2,0,0,1-25.2,25.2H112.26a25.2,25.2,0,0,1-25.2-25.2V147.62a10.08,10.08,0,0,1,6.44-9.4l5.22-2,29.23,15,29.23-15,5.22,2A10.08,10.08,0,0,1,168.82,147.62Z"/><path class="cls-3" d="M110.88,167.68a9.92,9.92,0,0,0,5.82-.52l.7.69a15.07,15.07,0,0,0,21.06,0l.7-.69a10,10,0,0,0,3.75.74,10.13,10.13,0,0,0,2.1-.22,10,10,0,0,0,6.72-5l12.57-23.41a10.07,10.07,0,0,0-1.91-1l-5.22-2-29.23,15-29.23-15-5.22,2a10.07,10.07,0,0,0-1.91,1l12.57,23.42A10,10,0,0,0,110.88,167.68Z"/><path class="cls-2" d="M143.62,214H112.26a27.23,27.23,0,0,1-27.2-27.2V147.62a12.16,12.16,0,0,1,7.71-11.26l5.22-2a2,2,0,0,1,1.64.09l28.31,14.53,28.31-14.53a2,2,0,0,1,1.64-.09l5.22,2a12.16,12.16,0,0,1,7.71,11.26V186.8A27.23,27.23,0,0,1,143.62,214Zm-45-75.61-4.39,1.7a8.13,8.13,0,0,0-5.16,7.53V186.8a23.23,23.23,0,0,0,23.2,23.2h31.37a23.23,23.23,0,0,0,23.2-23.2V147.62a8.13,8.13,0,0,0-5.16-7.53l-4.39-1.7L128.85,153a2,2,0,0,1-1.83,0Z"/><path class="cls-5" d="M137,198.43l-5,6.9a5,5,0,0,1-8.17,0l-5-6.9a10.08,10.08,0,0,1-1.79-7.44l4.56-29.44h12.6L138.8,191A10.08,10.08,0,0,1,137,198.43Z"/><path class="cls-6" d="M122.81,161.55l-1.63,10.52a12.29,12.29,0,0,0,13.51,0l-1.63-10.52Z"/><path class="cls-2" d="M127.94,209.43a7,7,0,0,1-5.71-2.92l-5-6.9a12,12,0,0,1-2.14-8.92l4.56-29.44a2,2,0,0,1,2-1.69h12.6a2,2,0,0,1,2,1.69l4.56,29.44a12,12,0,0,1-2.14,8.92l-5,6.9A7,7,0,0,1,127.94,209.43Zm-4.59-45.87-4.29,27.74a8,8,0,0,0,1.43,6l5,6.9a3,3,0,0,0,4.93,0l5-6.9h0a8,8,0,0,0,1.43-6l-4.29-27.75Z"/><path class="cls-5" d="M141.52,155.68l-10.05,9.86a5,5,0,0,1-7.06,0l-10.05-9.86,13.58-5.49Z"/><path class="cls-2" d="M127.94,169a7,7,0,0,1-4.93-2L113,157.11a2,2,0,0,1,.65-3.28l13.58-5.49a2,2,0,0,1,1.5,0l13.58,5.49a2,2,0,0,1,.65,3.28L132.87,167A7,7,0,0,1,127.94,169Zm-10-12.58,7.87,7.72a3.05,3.05,0,0,0,4.26,0l7.87-7.72-10-4Z"/><polygon class="cls-7" points="109.12 127.59 98.72 136.2 112.96 162.73 127.94 151.19 109.12 127.59"/><path class="cls-2" d="M113,164.73a2,2,0,0,1-.42,0,2,2,0,0,1-1.34-1L97,137.15a2,2,0,0,1,.49-2.49l10.4-8.6a2,2,0,0,1,2.84.29l18.82,23.6a2,2,0,0,1-.34,2.83l-15,11.54A2,2,0,0,1,113,164.73Zm-11.7-28,12.35,23,11.5-8.86-16.28-20.42Z"/><polygon class="cls-7" points="146.76 127.59 157.16 136.2 142.92 162.73 127.94 151.19 146.76 127.59"/><path class="cls-2" d="M142.92,164.73a2,2,0,0,1-1.22-.42l-15-11.54a2,2,0,0,1-.34-2.83l18.82-23.6a2,2,0,0,1,2.84-.29l10.4,8.6a2,2,0,0,1,.49,2.49l-14.24,26.53a2,2,0,0,1-1.34,1A2,2,0,0,1,142.92,164.73Zm-12.15-13.88,11.5,8.86,12.35-23-7.57-6.26Z"/><rect class="cls-8" x="107.78" y="82.52" width="40.32" height="50.4" rx="20.16" ry="20.16"/><rect class="cls-9" x="107.78" y="82.52" width="40.32" height="43.4" rx="20.16" ry="20.16"/><path class="cls-2" d="M127.94,134.92a22.19,22.19,0,0,1-22.16-22.16V102.68a22.16,22.16,0,0,1,44.32,0v10.08A22.19,22.19,0,0,1,127.94,134.92Zm0-50.4a18.18,18.18,0,0,0-18.16,18.16v10.08a18.16,18.16,0,1,0,36.32,0V102.68A18.18,18.18,0,0,0,127.94,84.52Z"/><circle class="cls-10" cx="7" cy="119.5" r="5"/><circle class="cls-10" cx="78" cy="225.5" r="4"/><circle class="cls-10" cx="213" cy="184.5" r="3"/><circle class="cls-10" cx="184" cy="31.5" r="2"/><circle class="cls-10" cx="240" cy="46.5" r="1"/><circle class="cls-11" cx="230" cy="81.5" r="5"/><circle class="cls-11" cx="106" cy="60.5" r="4"/><circle class="cls-11" cx="16" cy="145.5" r="3"/><circle class="cls-11" cx="28" cy="58.5" r="2"/><circle class="cls-11" cx="79" cy="27.5" r="1"/><circle class="cls-12" cx="52" cy="192.5" r="5"/><circle class="cls-12" cx="205" cy="31.5" r="4"/><circle class="cls-12" cx="142" cy="56.5" r="3"/><circle class="cls-12" cx="213" cy="211.5" r="2"/><circle class="cls-12" cx="209" cy="226.5" r="1"/><circle class="cls-13" cx="14" cy="187.5" r="5"/><circle class="cls-13" cx="250" cy="130.5" r="4"/><circle class="cls-13" cx="177" cy="205.5" r="3"/><circle class="cls-13" cx="123" cy="33.5" r="2"/><circle class="cls-13" cx="157" cy="35.5" r="1"/></g></svg>